<?xml version="1.0" standalone="no"?>
<!DOCTYPE svg PUBLIC "-//W3C//DTD SVG 1.1//EN" "http://www.w3.org/Graphics/SVG/1.1/DTD/svg11.dtd" >
<svg xmlns="http://www.w3.org/2000/svg">
<metadata></metadata>
<defs>
<font id="calibribold" horiz-adv-x="1013" >
<font-face units-per-em="2000" ascent="1500" descent="-500" />
<missing-glyph horiz-adv-x="452" />
<glyph horiz-adv-x="0" />
<glyph horiz-adv-x="666" />
<glyph horiz-adv-x="0" />
<glyph horiz-adv-x="0" />
<glyph unicode=" "  horiz-adv-x="452" />
<glyph unicode="&#x09;" horiz-adv-x="452" />
<glyph unicode="&#xa0;" horiz-adv-x="452" />
<glyph unicode="!" horiz-adv-x="651" d="M225 128q0 41 6 69t22 45t42.5 24t66.5 7t66.5 -7t42.5 -24t22.5 -45t6.5 -69q0 -40 -6.5 -67.5t-22.5 -44t-42.5 -24t-66.5 -7.5t-66.5 7.5t-42.5 24t-22 44t-6 67.5zM229 1301q0 13 6 22.5t21 16t41 9.5t65 3t64.5 -3.5t40.5 -10t21.5 -16t6.5 -21.5l-25 -887 q-1 -10 -6 -17.5t-17 -13t-33 -8.5t-52 -3t-51.5 3t-32.5 8.5t-17 13t-6 17.5z" />
<glyph unicode="&#x22;" horiz-adv-x="876" d="M119 1325q-1 10 5 18t19 13t34.5 7.5t52.5 2.5q63 0 87.5 -10t24.5 -31l-24 -436q0 -10 -4 -18t-14 -12.5t-27 -7.5t-43 -3t-42.5 3t-27 7.5t-14 12.5t-4.5 18zM490 1325q0 10 6 18t19 13t34.5 7.5t53.5 2.5q31 0 52.5 -2.5t34.5 -7.5t18 -13t5 -18l-23 -436 q0 -10 -4 -18t-14.5 -12.5t-27 -7.5t-41.5 -3q-26 0 -43.5 3t-27.5 7.5t-14 12.5t-4 18z" />
<glyph unicode="#" horiz-adv-x="996" d="M27 418q0 23 3 40t8 26.5t12 14t15 4.5h114l33 278h-99q-17 0 -27 18.5t-10 64.5q0 47 11 65.5t27 18.5h117l36 285q0 9 4.5 15.5t16.5 11.5t31.5 7.5t49.5 2.5t49 -2.5t28.5 -7.5t12 -11.5t2.5 -14.5l-36 -286h219l33 285q1 8 6 15t16 12t30.5 7.5t50.5 2.5 q30 0 49 -2.5t28.5 -7.5t12 -11.5t1.5 -14.5l-34 -286h94q17 0 27 -19t10 -64q0 -23 -3 -39t-8 -26t-12 -14.5t-15 -4.5h-112l-33 -278h96q17 0 27 -19t10 -64q0 -23 -3 -40t-8 -26.5t-12 -14t-15 -4.5h-116l-36 -306q-1 -9 -5.5 -15t-16 -11t-30.5 -7t-48 -2q-31 0 -50 2 t-29 7t-13.5 11.5t-2.5 14.5l37 306h-218l-37 -306q-1 -8 -5 -14.5t-15 -11.5t-30 -7t-50 -2q-30 0 -49 2t-29 7t-13.5 11.5t-1.5 14.5l35 306h-93q-17 0 -27 18.5t-10 64.5zM372 503h218l34 278h-219z" />
<glyph unicode="$" d="M80 183q0 33 2 54.5t7 33t12.5 16t16.5 4.5q13 0 37.5 -14.5t62.5 -32t92 -32.5t128 -15q114 0 169.5 42.5t55.5 113.5q0 47 -24 77t-64 53t-90 41t-103 38.5t-103 48t-90 67.5t-64 97t-24 138q0 73 24.5 133t70 105t112.5 73t152 38l20 196q1 8 4.5 13.5t12.5 9.5 t24.5 6t41.5 2q30 0 50 -3t31 -8t13.5 -14t2.5 -20l-19 -184q27 -4 57.5 -11t56.5 -16t47.5 -19.5t30 -18.5t13 -16.5t7 -20.5t3.5 -29.5t1 -39.5q0 -30 -1.5 -49.5t-5.5 -30t-9 -14t-12 -3.5q-13 0 -37 13t-59.5 27.5t-82 27t-102.5 12.5q-51 0 -87 -9.5t-58.5 -27t-33 -42 t-10.5 -54.5q0 -46 24 -77t64.5 -53.5t92 -41t104.5 -39t104.5 -47.5t91.5 -66.5t64.5 -95.5t24.5 -135q0 -84 -30 -151.5t-84.5 -116.5t-131.5 -78t-171 -37l-21 -209q-1 -8 -4 -14t-12.5 -9.5t-25.5 -6t-41 -2.5q-31 0 -50 3t-29.5 8t-14 14t-1.5 20l20 198q-42 6 -79 15 t-67.5 20.5t-52 23t-33 23t-16.5 33.5t-5 65z" />
<glyph unicode="%" horiz-adv-x="1458" d="M56 945q0 73 16.5 134.5t52 106.5t92 69.5t135.5 24.5q87 0 143 -26t88 -71t45 -105t13 -125q0 -77 -17 -139t-53.5 -106t-92.5 -68.5t-134 -24.5q-83 0 -138.5 24.5t-89 68t-47 104t-13.5 133.5zM166.5 0.5q1.5 10.5 12.5 24.5l900 1234q9 11 17.5 18.5t23 12.5t34 7 t47.5 2q32 0 51 -4t27.5 -12t6.5 -18.5t-12 -24.5l-900 -1233q-9 -12 -18 -19.5t-23 -12t-33.5 -6.5t-47.5 -2q-32 0 -51 4t-27.5 11.5t-7 18zM249 951q0 -61 7 -99t19.5 -60t31 -30.5t43.5 -8.5q28 0 46.5 11.5t30 34.5t16.5 59.5t5 87.5q0 54 -6 91.5t-18 61t-31.5 34.5 t-45.5 11q-24 0 -43 -10.5t-31 -33.5t-18 -59.5t-6 -89.5zM817 313q0 73 16.5 134.5t52 106.5t92 69.5t135.5 24.5q87 0 143 -26t88 -71t45 -105t13 -125q0 -77 -17 -139t-53.5 -106t-92.5 -68.5t-134 -24.5q-83 0 -138.5 24.5t-89 68t-47 104t-13.5 133.5zM1010 319 q0 -61 7 -99t19.5 -60t31 -30.5t43.5 -8.5q28 0 46.5 11.5t30 34.5t16.5 59.5t5 87.5q0 54 -6 91.5t-18 61t-31.5 34.5t-45.5 11q-24 0 -43 -10.5t-31 -33.5t-18 -59.5t-6 -89.5z" />
<glyph unicode="&#x26;" horiz-adv-x="1409" d="M0 1264zM80 353q0 55 16 103t48.5 91t79.5 82t110 76q-35 45 -61 84.5t-43 75.5t-25.5 69t-8.5 65q0 68 24.5 128.5t76.5 104t132 69.5t192 26q103 0 177 -19.5t122 -55t71.5 -88t23.5 -117.5q0 -59 -20 -108.5t-60.5 -94.5t-101.5 -86.5t-142 -83.5q26 -30 59 -64 t68 -67.5l70 -67t68 -61.5q13 20 23 45t17.5 53.5t12 58t4.5 57.5v30q0 11 4 19t16 12.5t35 7t59 2.5q34 0 56.5 -1.5t35.5 -6t18.5 -13t5.5 -21.5v-31q0 -47 -7 -95t-20 -93t-32.5 -86.5t-42.5 -78.5q34 -26 59 -43.5t42.5 -28t29 -14t19.5 -3.5h20t15 -7t9 -24.5t3 -51.5 q0 -36 -1.5 -57t-5 -30.5t-11.5 -16t-28 -12t-47 -5.5q-21 0 -44 5.5t-53.5 20.5t-70.5 40t-93 64q-46 -31 -94.5 -56t-102 -41.5t-110 -25t-120.5 -8.5q-63 0 -124 9.5t-114 29.5t-97 50.5t-75.5 72t-49 95t-17.5 117.5zM346 366q0 -42 15.5 -77t45 -60.5t72.5 -39.5 t100 -14q29 0 58 5.5t57 14.5t52.5 22t46.5 29q-44 35 -88.5 74.5t-86.5 79.5t-80.5 80t-68.5 75q-34 -21 -57 -44.5t-38 -47t-21.5 -48t-6.5 -49.5zM455 1012q0 -21 7 -43t19 -46t30.5 -50.5t42.5 -58.5q58 31 96 57.5t61.5 51.5t33.5 50t10 51q0 23 -9 44t-27.5 36 t-45.5 24t-65 9q-41 0 -69.5 -9.5t-47 -26.5t-27.5 -40t-9 -49z" />
<glyph unicode="'" horiz-adv-x="466" d="M119 1325q-1 10 5.5 18t20 13t35.5 7.5t53 2.5q32 0 54 -2.5t35.5 -7t19.5 -12.5t5 -19l-23 -436q0 -11 -5 -19t-15.5 -12.5t-27.5 -7t-43 -2.5t-43 3t-28 7.5t-15 12.5t-5 18z" />
<glyph unicode="(" horiz-adv-x="623" d="M104 525q0 109 13.5 216.5t40 212.5t64.5 208q38 104 90 206q2 5 8 9t18 7.5t32 5t51 1.5q35 0 57.5 -3.5t34 -10.5t13 -17.5t-3.5 -23.5q-82 -190 -124 -393t-42 -416q0 -214 42.5 -415.5t122.5 -394.5q6 -16 6 -27t-10.5 -19t-32.5 -12t-61 -4q-27 0 -47 2t-33 5.5 t-21 9.5q-8 5 -10 12q-53 102 -91.5 204.5t-64.5 207.5t-39 212t-13 217z" />
<glyph unicode=")" horiz-adv-x="623" d="M95 -310q0 11 6 27q81 191 123.5 393.5t42.5 416.5q0 213 -42 416t-125 393q-5 13 -3.5 23.5t13.5 17.5t34 10.5t58 3.5q30 0 49.5 -1.5t32.5 -5t18.5 -7.5t8.5 -9q102 -205 154.5 -414.5t52.5 -428.5q0 -110 -13 -217t-39 -212t-64.5 -208t-90.5 -204q-3 -7 -10.5 -12.5 t-20.5 -9t-32.5 -5.5t-47.5 -2q-40 0 -62 4t-32.5 12t-10.5 19z" />
<glyph unicode="*" horiz-adv-x="996" d="M131.5 1127q1.5 23 29.5 72t48 61.5t35 -0.5l194 -156l-39 246q-5 20 17 31t78 11q57 0 78.5 -11.5t16.5 -30.5l-39 -246l194 156q16 14 35 0.5t48 -62.5q28 -48 29.5 -71t-17.5 -30l-232 -90l232 -90q20 -7 18 -30.5t-30 -72.5t-47.5 -61t-35.5 1l-194 155l39 -245 q5 -21 -16.5 -31.5t-78.5 -10.5t-78 11t-17 31l39 245l-194 -155q-15 -13 -34.5 0t-48.5 61q-28 48 -29 71.5t17 30.5l233 90l-233 90q-19 7 -17.5 30z" />
<glyph unicode="+" horiz-adv-x="996" d="M51 562q0 26 3 45t8 30t12 16t16 5h306v330q0 10 5 18.5t17 13.5t31.5 8t48.5 3t48.5 -3t31.5 -8t17 -13.5t5 -18.5v-330h306q8 0 15.5 -5t12.5 -16t8 -30t3 -45q0 -27 -3 -46t-8.5 -30t-13.5 -16t-17 -5h-303v-331q0 -10 -5 -17.5t-17 -12.5t-31.5 -8t-48.5 -3t-48.5 3 t-31.5 8t-17 12.5t-5 17.5v331h-303q-9 0 -16.5 5t-13 16t-9 29.5t-3.5 46.5z" />
<glyph unicode="," horiz-adv-x="515" d="M22.5 -263q-0.5 8 4.5 19l119 269v155q0 33 8 53.5t24.5 31t42 14t61.5 3.5q34 0 58.5 -3.5t40.5 -14t23.5 -31t7.5 -53.5q0 -39 -4 -71t-12.5 -60t-22.5 -55t-34 -56l-131 -187q-7 -10 -15 -16.5t-20 -10.5t-28.5 -6.5t-41.5 -2.5q-28 0 -46 2.5t-26 7t-8.5 12.5z" />
<glyph unicode="-" horiz-adv-x="612" d="M58 491q0 55 10.5 77.5t35.5 22.5h406q12 0 20 -5t14 -16.5t8.5 -31.5t2.5 -47q0 -57 -11 -79t-34 -22h-406q-24 0 -35 23t-11 78z" />
<glyph unicode="." horiz-adv-x="534" d="M122 135q0 92 32 123t115 31q81 0 112 -30.5t31 -117.5q0 -91 -31.5 -122.5t-113.5 -31.5t-113.5 31t-31.5 117z" />
<glyph unicode="/" horiz-adv-x="859" d="M4 -260q-2 12 4 29l584 1639q4 13 11.5 21.5t21.5 13t36 7t53 2.5q41 0 66 -4t37.5 -11.5t14.5 -20t-3 -28.5l-583 -1641q-5 -13 -12.5 -20.5t-22 -12.5t-35.5 -7.5t-53 -2.5q-40 0 -65.5 4t-38.5 12t-15 20z" />
<glyph unicode="0" d="M56 627q0 150 24.5 272.5t80 208.5t144 132t215.5 46q130 0 215 -44.5t135 -128t69.5 -204t19.5 -272.5q0 -151 -24.5 -273.5t-79.5 -208.5t-143.5 -131.5t-216.5 -45.5q-130 0 -215 44t-134.5 127.5t-69.5 204.5t-20 273zM314 640q0 -135 11 -223.5t34 -140.5t59 -73 t87 -21q38 0 67.5 12t51.5 36.5t36.5 61.5t23.5 86t12.5 110.5t3.5 135.5q0 90 -5 159t-15 119.5t-25 85.5t-36.5 56t-49 30t-60.5 9q-58 0 -95.5 -28t-59.5 -83.5t-31 -138.5t-9 -193z" />
<glyph unicode="1" d="M145 987q0 23 0.5 38.5t4.5 26t11 17.5t19 15l271 176q5 4 12.5 6.5t19 3.5t30.5 1.5t49 0.5q37 0 60.5 -1t35 -4.5t15.5 -9.5t4 -15v-1044h206q9 0 16 -5t12.5 -17t8 -31t2.5 -47q0 -27 -3 -46.5t-8.5 -30.5t-12 -16t-15.5 -5h-697q-8 0 -15 5t-12.5 16t-8.5 30t-3 47 t2.5 47t8 31t12.5 17t16 5h235v823l-203 -113q-22 -11 -36.5 -13t-23 6t-11 28.5t-2.5 57.5z" />
<glyph unicode="2" d="M86 107q0 32 3 55.5t10.5 41.5t20 35t31.5 37l219 235q65 68 105.5 124t63 102.5t30.5 85.5t8 74q0 32 -10 61t-30 50.5t-50.5 34t-71.5 12.5q-58 0 -102 -15t-78 -33t-56.5 -33t-34.5 -15q-9 0 -15.5 6t-10.5 19.5t-6.5 36.5t-2.5 56q0 22 1.5 37.5t4.5 26.5t8 19.5 t17 20t45 30t80.5 35.5t105.5 28.5t120 11.5q99 0 172.5 -25t122.5 -69.5t73 -105.5t24 -131q0 -62 -12 -121.5t-49 -128t-104.5 -152t-178.5 -194.5l-147 -151h498q10 0 18 -6t14 -18t9 -32.5t3 -47.5q0 -28 -2.5 -48t-7.5 -32.5t-13 -18t-17 -5.5h-727q-21 0 -37 4 t-25.5 15t-14 32.5t-4.5 55.5z" />
<glyph unicode="3" d="M83 183q0 47 8 65t23 18q10 0 34 -13.5t61 -28.5t87 -28t113 -13q54 0 95 12.5t70 35.5t43 55.5t14 72.5q0 44 -17 79.5t-51 60t-85 38.5t-121 14h-109q-13 0 -21.5 3.5t-14.5 14t-8.5 29.5t-2.5 49q0 28 2.5 46.5t8 28t13.5 13.5t20 4h110q57 0 101 13.5t74 37.5 t45.5 59t15.5 77q0 32 -11 61t-32 50t-54 33t-78 12q-51 0 -96 -15t-80.5 -33t-60.5 -34t-36 -16q-8 0 -14 3.5t-10 13.5t-6 28.5t-2 47.5q0 24 1 40.5t4 27t7.5 18.5t14 17t40 28t76.5 36.5t106 29.5t130 12q92 0 163 -21.5t119 -62t73 -99.5t25 -133q0 -58 -14.5 -108 t-43 -89t-71 -66t-97.5 -41v-3q66 -8 118.5 -33.5t89.5 -65t56.5 -88.5t19.5 -106q0 -95 -36.5 -168t-100.5 -123t-154 -75.5t-197 -25.5q-64 0 -120.5 9t-100 22.5t-72 28.5t-37 22.5t-13 17.5t-8 23t-5 33t-1.5 49z" />
<glyph unicode="4" d="M35 377q0 31 1.5 54t5 41.5t10 35t15.5 35.5l393 692q5 9 16.5 15.5t32.5 11t53.5 6.5t78.5 2q50 0 85 -2.5t56 -8t30.5 -13.5t9.5 -18v-761h113q16 0 27 -24t11 -80q0 -50 -10.5 -75.5t-27.5 -25.5h-113v-229q0 -10 -5.5 -17t-20.5 -12t-38.5 -7.5t-60.5 -2.5 q-35 0 -59 2.5t-38 7.5t-19.5 12t-5.5 17v229h-483q-14 0 -24.5 3.5t-18 15.5t-11 35t-3.5 61zM240 467h335v581h-2z" />
<glyph unicode="5" d="M94 156q0 27 2 46.5t6 31t10 16.5t14 5q10 0 30 -11.5t52.5 -25t79.5 -24.5t112 -11q57 0 103.5 11.5t78.5 37.5t49.5 65t17.5 94q0 47 -14.5 83.5t-45.5 62t-81 38t-121 12.5q-57 0 -103.5 -6t-87.5 -6q-28 0 -40 14.5t-12 52.5v548q0 39 15 56.5t48 17.5h599 q9 0 16.5 -6t13 -18.5t8 -33.5t2.5 -51q0 -59 -10.5 -85t-29.5 -26h-450v-271q34 4 68 5t71 1q103 0 182.5 -24t133.5 -70t82.5 -115t28.5 -160q0 -103 -35.5 -183.5t-100.5 -135.5t-156.5 -84t-202.5 -29q-59 0 -111.5 7t-94.5 18.5t-69 22.5t-35.5 18.5t-12 16t-6 21 t-3.5 31t-1 43.5z" />
<glyph unicode="6" d="M82 582q0 74 7.5 155t28.5 159.5t59 149t98 124t145.5 84.5t202.5 31q37 0 74.5 -4.5t70 -11t55 -15.5t29.5 -15.5t11 -14t6.5 -17t3.5 -23t1 -33.5q0 -30 -1.5 -50t-5.5 -31t-10.5 -16t-16.5 -5q-12 0 -30.5 6.5t-45 14t-62 13.5t-82.5 6q-79 0 -133.5 -29.5t-89 -79.5 t-50 -116.5t-16.5 -140.5q21 14 49 27.5t61 23t71 16t81 6.5q96 0 164 -26.5t111.5 -75t64 -118t20.5 -154.5q0 -96 -29 -177.5t-86 -140.5t-140 -92.5t-191 -33.5q-88 0 -153.5 20t-113.5 57.5t-78 91t-48 121t-25 146.5t-7 168zM336 535q0 -104 11.5 -174t34.5 -111 t58 -58t81 -17q45 0 78.5 16.5t56 47t34 70.5t11.5 88q0 50 -8.5 87.5t-28 63.5t-52 39.5t-78.5 13.5q-27 0 -53.5 -5t-52 -14t-49 -21t-43.5 -26z" />
<glyph unicode="7" d="M79 1153q0 29 3 50.5t8.5 35t12.5 19.5t17 6h751q18 0 29.5 -3.5t18.5 -15.5t10.5 -33.5t3.5 -56.5q0 -28 -2 -49t-5.5 -39t-9.5 -34t-14 -35l-416 -964q-6 -13 -15 -20.5t-25.5 -12t-42.5 -6t-64 -1.5q-52 0 -82 3.5t-44.5 11t-15.5 18.5t7 28l447 986h-531 q-21 0 -31 27t-10 85z" />
<glyph unicode="8" d="M60 305q0 54 16 101t47.5 87.5t79 76t109.5 68.5q-50 27 -90 59t-68.5 69.5t-43 82.5t-14.5 97q0 76 26.5 138t80 107.5t133.5 70t185 24.5q104 0 179 -22.5t123 -63.5t71 -98t23 -126q0 -46 -15 -89.5t-42.5 -82.5t-67.5 -74t-91 -63q60 -31 106.5 -66.5t79 -76 t49.5 -86t17 -99.5q0 -86 -29.5 -153.5t-88 -114t-144.5 -70t-198 -23.5q-107 0 -188 21.5t-136 63t-82 102.5t-27 140zM312 323q0 -76 49.5 -116t147.5 -40q96 0 143 41t47 113q0 36 -12 66t-38 56.5t-65 51t-91 49.5q-45 -24 -79 -48.5t-56.5 -51.5t-34 -57t-11.5 -64z M343 957q0 -31 10 -57.5t31.5 -50t56 -46t80.5 -47.5q71 42 110 89.5t39 106.5q0 34 -10 61.5t-31 46.5t-51.5 29t-72.5 10q-82 0 -122 -38t-40 -104z" />
<glyph unicode="9" d="M64 852q0 95 28.5 174t84 137.5t138.5 90.5t193 32q88 0 154 -20.5t113 -58.5t79 -92t50 -120.5t25.5 -144t7.5 -161.5q0 -77 -8 -159.5t-30 -161.5t-60.5 -150.5t-99.5 -124.5t-148.5 -84t-206.5 -31q-42 0 -83.5 5.5t-76 14.5t-58 18.5t-34.5 20t-16 30t-5 54.5 q0 32 1.5 51.5t6 30.5t11 14.5t15.5 3.5q12 0 33 -7t52 -16t70 -15.5t87 -6.5q82 0 138.5 29t91.5 79t52 115.5t19 137.5q-45 -28 -108.5 -49t-145.5 -21q-101 0 -171.5 26.5t-114.5 76t-64 121t-20 161.5zM316 870q0 -52 9.5 -91.5t29.5 -65t52 -38.5t78 -13 q57 0 107.5 17.5t89.5 45.5q0 104 -12 174.5t-35.5 112.5t-58.5 59.5t-82 17.5q-46 0 -79 -16t-55 -45.5t-33 -69.5t-11 -88z" />
<glyph unicode=":" horiz-adv-x="551" d="M156 134q0 41 6 69.5t22 46.5t42.5 25t66.5 7t66.5 -7t42.5 -25t23 -46.5t7 -69.5t-7 -69t-23 -45.5t-42.5 -25t-66.5 -7.5t-66.5 7.5t-42.5 25t-22 45.5t-6 69zM156 771q0 42 6 70.5t22 46t42.5 25.5t66.5 8t66.5 -8t42.5 -25.5t23 -46t7 -70.5q0 -41 -7 -68t-23 -44.5 t-42.5 -25t-66.5 -7.5t-66.5 7.5t-42.5 25t-22 44.5t-6 68z" />
<glyph unicode=";" horiz-adv-x="551" d="M53.5 -259q-0.5 8 4.5 19l114 265v155q0 33 8 53.5t24 31t41.5 14t59.5 3.5q33 0 57 -3.5t39.5 -14t23 -31t7.5 -53.5q0 -39 -4 -71t-12.5 -60t-22 -55t-33.5 -56l-127 -183q-7 -10 -15 -17t-19.5 -11t-28 -6t-40.5 -2q-27 0 -44 2t-24.5 7t-8 13zM156 771q0 42 6 70.5 t22 46t42.5 25.5t66.5 8t66.5 -8t42.5 -25.5t23 -46t7 -70.5q0 -41 -7 -68t-23 -44.5t-42.5 -25t-66.5 -7.5t-66.5 7.5t-42.5 25t-22 44.5t-6 68z" />
<glyph unicode="&#x3c;" horiz-adv-x="996" d="M66 564q0 25 2 44.5t5 31.5t8.5 19.5t12.5 11.5l748 371q28 14 40 -5t12 -78q0 -40 -1.5 -63.5t-5.5 -37t-11 -19.5t-19 -12l-562 -264l552 -255q15 -7 24 -14t14 -21t7 -38t2 -65q0 -36 -3 -56.5t-9.5 -29.5t-16 -8t-23.5 8l-749 373q-14 8 -20.5 33t-6.5 74z" />
<glyph unicode="=" horiz-adv-x="996" d="M81 366q0 50 10.5 72t32.5 22h745q22 0 32.5 -22t10.5 -72q0 -53 -11 -73.5t-32 -20.5h-745q-21 0 -32 20.5t-11 73.5zM81 761q0 50 10.5 71.5t32.5 21.5h745q22 0 32.5 -21.5t10.5 -71.5q0 -52 -11 -73.5t-32 -21.5h-745q-21 0 -32 21.5t-11 73.5z" />
<glyph unicode="&#x3e;" horiz-adv-x="996" d="M100 167q0 40 1.5 63.5t5 37t10.5 20t19 11.5l562 263l-552 256q-16 7 -25 14t-13.5 21t-6 38t-1.5 65q0 36 2 56.5t8.5 29.5t16.5 8t23 -8l750 -374q13 -6 20.5 -31t7.5 -75q0 -25 -2 -44t-5.5 -31.5t-9 -20t-12.5 -10.5l-749 -371q-14 -7 -23.5 -6t-16 11t-8.5 29 t-2 48z" />
<glyph unicode="?" horiz-adv-x="926" d="M112 1202q0 34 3 50t13 25.5t37 22.5t65.5 24.5t85 19.5t97.5 8q115 0 197 -32t134.5 -85.5t77 -123t24.5 -146.5q0 -80 -23 -144.5t-64.5 -111.5t-99.5 -75.5t-129 -35.5l-8 -191q-1 -18 -27.5 -26.5t-77.5 -8.5q-32 0 -54 1.5t-35 5.5t-18.5 10.5t-6.5 17.5l-9 231 q-1 31 3 50.5t14 31t26 16t37 4.5h14q52 0 89.5 16.5t61.5 44t35.5 64.5t11.5 79q0 47 -13 86t-40 67.5t-67.5 43.5t-95.5 15q-50 0 -88 -9.5t-65.5 -21.5t-45.5 -21.5t-27 -9.5q-7 0 -13 4.5t-10 16t-6.5 33t-2.5 54.5zM280 128q0 41 6.5 69t22.5 45t42.5 24t67.5 7 q39 0 66 -7t43 -24t22.5 -45t6.5 -69q0 -40 -6.5 -67.5t-22.5 -44t-43 -24t-66 -7.5q-41 0 -67.5 7.5t-42.5 24t-22.5 44t-6.5 67.5z" />
<glyph unicode="@" horiz-adv-x="1796" d="M0 1264zM117 370q0 80 11.5 163t35 164t61 158t89 145t119.5 125.5t152.5 98.5t186.5 63.5t224 22.5q179 0 306.5 -40.5t209.5 -113.5t120.5 -176t38.5 -229q0 -71 -10 -144t-32 -140t-56 -125.5t-82.5 -101.5t-112 -68t-143.5 -25q-48 0 -87 9.5t-68 27.5t-48 45t-29 62 q-38 -39 -74.5 -66t-72.5 -44.5t-71 -25.5t-71 -8q-46 0 -81 11.5t-61 31t-43 45.5t-28 57t-15.5 65.5t-4.5 69.5q0 46 7.5 102.5t24.5 115.5t45.5 114t70.5 98.5t98 70t129 26.5q33 0 61.5 -7t55 -21.5t51.5 -38t52 -57.5l17 75q4 18 24 27q21 8 71 8q25 0 42 -2t27 -6.5 t12.5 -11t1.5 -15.5l-83 -436q-14 -72 4 -106t71 -34q34 0 62.5 18.5t49.5 50.5t35.5 73.5t23.5 87t13.5 91.5t4.5 89q0 78 -21.5 148t-75.5 123t-146.5 84t-234.5 31q-96 0 -174.5 -19t-141 -52.5t-111.5 -79.5t-85 -100.5t-61 -115.5t-39.5 -123.5t-21.5 -125t-7 -120.5 q0 -106 23.5 -190.5t81 -143t154 -89t240.5 -30.5q75 0 137 8.5t108.5 18.5t76 18.5t39.5 8.5q7 0 12 -3.5t8 -13t4.5 -26t1.5 -42.5q0 -21 -1 -36t-3.5 -25t-6.5 -17.5t-10 -12.5t-36.5 -16t-82 -21t-120 -18t-150.5 -8q-186 0 -317 42.5t-214.5 123t-122 195.5t-38.5 258z M698 456q0 -59 21.5 -93t72.5 -34q19 0 39 6.5t42 20.5t46.5 37t55.5 55l40 216q-29 54 -61 81t-72 27q-34 0 -61 -16t-47.5 -42.5t-34.5 -60.5t-23.5 -69t-13.5 -69t-4 -59z" />
<glyph unicode="A" horiz-adv-x="1211" d="M25 42q3 20 15 56l390 1121q6 17 13.5 27t24.5 15.5t47.5 7t80.5 1.5q58 0 92 -1.5t53 -7t27 -16.5t14 -29l391 -1120q13 -36 15 -56v-7q0 -15 -8 -23q-10 -10 -38 -13t-76 -3q-50 0 -77.5 1.5t-42 6t-20.5 12t-10 20.5l-85 254h-475l-80 -247q-4 -14 -10 -23 t-20.5 -14.5t-40 -7.5t-67.5 -2q-45 0 -70.5 3t-35.5 14q-8 8 -8 23q0 3 1 8zM413 485h358l-178 537h-1z" />
<glyph unicode="B" horiz-adv-x="1121" d="M138 81v1102q0 43 22 62t54 19h317q116 0 197 -19.5t136 -59t84.5 -100.5t29.5 -143q0 -46 -12 -86.5t-34.5 -73.5t-55 -58.5t-74.5 -40.5q54 -10 99 -34.5t79 -63t53.5 -90.5t19.5 -116q0 -67 -18.5 -122t-51.5 -97t-78.5 -72t-100 -49.5t-116.5 -29t-138 -9.5h-336 q-32 0 -54 19t-22 62zM390 196h185q54 0 90.5 11.5t63.5 33.5t42 54.5t15 74.5q0 44 -14.5 78.5t-43 58t-72.5 36.5t-114 13h-152v-360zM390 743h143q56 0 89 13.5t55 36t33 53.5t11 65q0 38 -12 68.5t-35.5 50.5t-59 30.5t-94.5 10.5h-130v-328z" />
<glyph unicode="C" horiz-adv-x="1058" d="M77 615q0 161 43 286t120 210t185 129t238 44q53 0 101.5 -8.5t90 -23t75 -33t46.5 -31.5t18 -22t8 -22.5t4.5 -32t1.5 -46.5q0 -29 -2 -49.5t-7 -33t-12 -18.5t-15 -6q-15 0 -37.5 17t-58 38t-85 38t-117.5 17q-75 0 -134.5 -30.5t-101 -87.5t-63 -138.5t-21.5 -182.5 q0 -111 23 -193t65.5 -134.5t102.5 -78.5t136 -26q68 0 118 16t85.5 36t58.5 35.5t36 15.5q10 0 15.5 -4t9.5 -15.5t6 -33t2 -56.5q0 -24 -1.5 -41t-4.5 -29.5t-8 -21t-15.5 -20t-41.5 -29t-75.5 -33.5t-101.5 -27t-123 -11q-130 0 -234.5 40.5t-178 120t-112.5 198.5 t-39 277z" />
<glyph unicode="D" horiz-adv-x="1260" d="M138 81v1102q0 43 22 62t54 19h324q169 0 286.5 -39.5t198.5 -117.5t123 -192.5t42 -264.5q0 -174 -45.5 -297.5t-130.5 -201.5t-206.5 -114.5t-289.5 -36.5h-302q-32 0 -54 19t-22 62zM394 203h133q105 0 177.5 27.5t121 82.5t72.5 137.5t24 191.5q0 90 -21 167 t-67.5 133.5t-119 88t-191.5 31.5h-129v-859z" />
<glyph unicode="E" horiz-adv-x="975" d="M138 81v1102q0 43 22 62t54 19h631q9 0 15.5 -5t11.5 -17.5t7.5 -31.5t2.5 -48q0 -27 -2.5 -46t-7.5 -31t-11.5 -17.5t-15.5 -5.5h-451v-308h381q9 0 16.5 -5.5t12.5 -16.5t7 -30t2 -47t-2 -46.5t-7 -30t-12.5 -16t-16.5 -4.5h-381v-357h455q9 0 16 -5.5t12 -17 t7.5 -30.5t2.5 -47t-2.5 -47.5t-7.5 -31t-12.5 -17t-15.5 -5.5h-635q-32 0 -54 19t-22 62z" />
<glyph unicode="F" horiz-adv-x="917" d="M138 37v1146q0 43 22 62t54 19h595q9 0 15.5 -5.5t12 -17.5t8 -33t2.5 -50t-2.5 -49t-8 -32t-12.5 -17.5t-15 -5.5h-413v-340h387q9 0 16 -5t12 -16.5t7.5 -31t2.5 -49.5q0 -29 -2.5 -48.5t-7.5 -32t-12 -18t-16 -5.5h-387v-471q0 -11 -6 -18.5t-21 -13t-39.5 -8.5 t-62.5 -3q-37 0 -62 3t-40 8.5t-21 13t-6 18.5z" />
<glyph unicode="G" horiz-adv-x="1274" d="M71 618q0 155 47 279t133 210t207.5 132t270.5 46q82 0 149.5 -11t118 -27.5t83.5 -35t46.5 -32t19 -38.5t5.5 -74q0 -28 -2.5 -48.5t-6.5 -32.5t-10.5 -17t-15.5 -5q-13 0 -41 17.5t-75 38t-112 38t-151 17.5q-92 0 -166 -31.5t-126.5 -89.5t-81 -140t-28.5 -180 q0 -108 29 -191t80.5 -138.5t124.5 -84t160 -28.5q43 0 85 10t79 29v293h-240q-18 0 -27.5 22t-9.5 75q0 27 2.5 46t7.5 30t12 16.5t15 5.5h427q16 0 28 -5.5t21.5 -16t14 -26t4.5 -34.5v-503q0 -29 -10 -51t-42 -35t-78.5 -26.5t-97 -23.5t-101.5 -14.5t-103 -4.5 q-151 0 -271 43t-203 125.5t-127 201.5t-44 269z" />
<glyph unicode="H" horiz-adv-x="1261" d="M138 35v1194q0 10 6 17.5t21 12.5t39.5 8t62.5 3t62.5 -3t39 -8t20.5 -13t6 -17v-464h472v464q0 10 6.5 17.5t20.5 12.5t39 8t63 3q37 0 61.5 -3t39 -8t21 -13t6.5 -17v-1194q0 -10 -6.5 -17.5t-21 -12.5t-39 -8t-61.5 -3q-38 0 -63 3t-39 8t-20.5 12.5t-6.5 17.5v511 h-472v-511q0 -10 -6 -17.5t-20.5 -12.5t-39 -8t-62.5 -3q-37 0 -62 3t-40 8t-21 12.5t-6 17.5z" />
<glyph unicode="I" horiz-adv-x="533" d="M138 35v1194q0 10 6 17.5t21.5 12.5t39.5 8t62 3t62.5 -3t39 -8t21 -13t6.5 -17v-1194q0 -10 -6.5 -17.5t-21 -12.5t-39 -8t-62.5 -3q-37 0 -62 3t-40 8t-21 12.5t-6 17.5z" />
<glyph unicode="J" horiz-adv-x="662" d="M3 126q0 33 1.5 56t5 36t9.5 18.5t16 5.5q9 0 20.5 -6.5t26.5 -13t34.5 -13t45.5 -6.5t46.5 7.5t33.5 25.5t20 48t7 78v868q0 10 6 17.5t20.5 12.5t39.5 7.5t62 2.5t61.5 -2.5t40 -7.5t21.5 -12.5t6 -17.5v-878q0 -86 -16 -155t-54.5 -117.5t-101 -74t-154.5 -25.5 q-29 0 -58 4.5t-53 11.5t-41.5 15t-23 14t-9.5 13t-7 18t-4 28t-1 42z" />
<glyph unicode="K" horiz-adv-x="1093" d="M138 37v1191q0 11 6 18.5t21 12.5t39.5 8t62.5 3t62.5 -3t39 -8t20.5 -13t6 -18v-539l370 538q7 13 16.5 21t25 13t40 7t62.5 2q39 0 64.5 -3t40.5 -8.5t21 -13.5t6 -17q0 -17 -9 -34.5t-33 -55.5l-347 -454l378 -572q21 -40 26 -53t5 -21q0 -11 -5.5 -19t-20.5 -13.5 t-41.5 -8.5t-66.5 -3q-63 0 -91 5t-40.5 14.5t-19.5 23.5l-381 600v-600q0 -11 -6 -18.5t-20.5 -13t-39 -8.5t-62.5 -3q-37 0 -62 3t-40 8.5t-21 13t-6 18.5z" />
<glyph unicode="L" horiz-adv-x="845" d="M138 81v1148q0 10 6 17.5t21 12.5t39.5 8t62.5 3t62.5 -3t39 -8t21 -13t6.5 -17v-1017h397q10 0 17 -5.5t12 -17.5t7.5 -32.5t2.5 -49.5t-2.5 -49t-7.5 -33t-12 -19t-17 -6h-579q-32 0 -54 19t-22 62z" />
<glyph unicode="M" horiz-adv-x="1748" d="M138 35v1126q0 50 26 76.5t70 26.5h168q45 0 77.5 -7.5t56 -24.5t39 -45t27.5 -69l273 -753h4l283 751q13 41 28 69.5t35 46t47.5 25t63.5 7.5h173q26 0 45 -7t31.5 -20t18.5 -32t6 -44v-1126q0 -10 -5 -17.5t-19.5 -12.5t-38 -8t-59.5 -3q-35 0 -58.5 3t-37 8 t-19.5 12.5t-6 17.5v1028h-2l-366 -1027q-4 -13 -12.5 -21t-24 -13t-39 -6.5t-56.5 -1.5t-56.5 2.5t-38.5 8t-24 13t-12 18.5l-353 1027h-2v-1028q0 -10 -5.5 -17.5t-20 -12.5t-37.5 -8t-59 -3q-35 0 -58.5 3t-38 8t-19.5 12.5t-5 17.5z" />
<glyph unicode="N" horiz-adv-x="1317" d="M138 36v1136q0 46 26.5 69t65.5 23h138q37 0 62.5 -6.5t45.5 -21t37.5 -40.5t36.5 -64l246 -462q21 -42 42 -82.5t40.5 -81t38.5 -79.5t36 -78h1q-3 68 -4.5 142t-1.5 142v593q0 10 6 17.5t19.5 13.5t36 8.5t57.5 2.5q33 0 56 -2.5t35 -8.5t17 -14t5 -17v-1136 q0 -22 -8 -40t-21 -29.5t-31 -17t-37 -5.5h-109q-34 0 -59 7t-46 25t-40.5 48.5t-44.5 79.5l-314 591q-27 53 -55.5 114t-51.5 118h-2q4 -70 6 -140t2 -144v-661q0 -10 -5.5 -17.5t-18.5 -13t-35.5 -8.5t-57.5 -3q-34 0 -56.5 3t-35.5 8.5t-17.5 13t-4.5 17.5z" />
<glyph unicode="O" horiz-adv-x="1352" d="M78 624q0 153 39 275.5t116.5 208.5t191 132t263.5 46q144 0 254 -38t183.5 -117t111 -200t37.5 -285q0 -157 -39 -281t-116 -210.5t-191 -131.5t-263 -45q-147 0 -257 38.5t-183.5 117.5t-110 201t-36.5 289zM348 637q0 -104 15.5 -186.5t52.5 -141t99.5 -89.5 t157.5 -31t158.5 35.5t102.5 96t55 141t16 171.5q0 100 -15.5 181.5t-53.5 139.5t-100.5 89.5t-155.5 31.5q-95 0 -158.5 -35.5t-102.5 -95t-55 -139t-16 -168.5z" />
<glyph unicode="P" horiz-adv-x="1064" d="M138 35v1137q0 46 24 69t63 23h297q45 0 85.5 -3.5t97.5 -15t115 -41.5t99 -76.5t62.5 -108.5t21.5 -139q0 -106 -33 -188.5t-96.5 -138.5t-156 -85.5t-217.5 -29.5h-105v-403q0 -10 -6.5 -17.5t-21 -12.5t-39 -8t-62.5 -3q-37 0 -62 3t-40 8t-20.5 12.5t-5.5 17.5z M395 637h115q62 0 103 16.5t67.5 46t40 71t13.5 90.5q0 66 -23 109.5t-57.5 64t-72 25.5t-77.5 5h-109v-428z" />
<glyph unicode="Q" horiz-adv-x="1372" d="M78 625q0 153 39 275.5t116.5 208t191 131.5t263.5 46q142 0 251 -38t183.5 -116.5t113 -199t38.5 -284.5q0 -85 -11 -159.5t-32.5 -138t-53 -116t-71.5 -92.5q61 -53 108 -80.5t78.5 -41t50.5 -20t30 -16.5t16 -35t5 -69q0 -35 -3.5 -56.5t-9.5 -33.5t-13 -15.5 t-14 -3.5q-32 0 -84.5 18t-113 50.5t-123.5 80t-117 108.5q-45 -21 -109 -35.5t-142 -14.5q-147 0 -257 37.5t-183.5 116.5t-110 201.5t-36.5 291.5zM348 639q0 -104 15.5 -187.5t52.5 -142t99.5 -89.5t157.5 -31t158.5 35.5t102.5 96t55 141.5t16 173q0 99 -15.5 180 t-53.5 139t-100.5 89.5t-155.5 31.5q-95 0 -158.5 -35t-102.5 -94.5t-55 -139t-16 -167.5z" />
<glyph unicode="R" horiz-adv-x="1125" d="M138 35v1148q0 43 22 62t54 19h327q50 0 82 -2t59 -5q76 -11 137 -37.5t103.5 -69t65 -100.5t22.5 -133q0 -63 -16 -115.5t-47.5 -93.5t-77.5 -71.5t-104 -48.5q28 -14 53 -33.5t47 -47.5t41.5 -63.5t37.5 -80.5l107 -249q15 -37 19.5 -54t4.5 -27q0 -11 -4 -18 t-18.5 -12t-43 -7t-76.5 -2q-41 0 -65.5 2t-39 7.5t-20 13.5t-9.5 20l-113 282q-21 48 -40.5 85t-43.5 62t-55 38t-72 13h-80v-482q0 -10 -6.5 -17.5t-21 -12.5t-39 -8t-62.5 -3q-37 0 -62 3t-40 8t-20.5 12.5t-5.5 17.5zM395 709h130q55 0 96 13t68.5 37t41 57.5t13.5 74.5 q0 62 -28 105t-93 61q-20 5 -44.5 7.5t-68.5 2.5h-115v-358z" />
<glyph unicode="S" horiz-adv-x="945" d="M62 181q0 30 1.5 50.5t6 33t12 18t17.5 5.5q14 0 38.5 -16t63.5 -35.5t93.5 -35.5t125.5 -16q47 0 84 11t63 31.5t39.5 51t13.5 67.5q0 43 -23.5 73.5t-61 54.5t-85.5 45t-98.5 44.5t-98.5 53t-85.5 71t-61 98.5t-23.5 136q0 91 33.5 159.5t91 114t135 68t164.5 22.5 q45 0 90 -7t84 -18.5t69 -26t40 -24.5t13.5 -16.5t6 -18t3 -28.5t0.5 -43q0 -28 -1 -47.5t-4.5 -32t-10 -18.5t-17.5 -6t-34 13.5t-57.5 30t-79.5 29.5t-98 13q-42 0 -73.5 -10.5t-52.5 -28.5t-31 -43t-10 -54q0 -42 23 -72.5t61.5 -54.5t87 -45t99.5 -44.5t100 -53.5 t87 -71.5t61.5 -97.5t23.5 -132q0 -100 -37.5 -175t-100.5 -125.5t-148 -75.5t-182 -25q-65 0 -121.5 10.5t-99.5 25.5t-71.5 31.5t-41.5 29.5t-18 37t-5 69z" />
<glyph unicode="T" horiz-adv-x="990" d="M12 1158q0 29 2.5 50t7 33t11.5 17.5t17 5.5h890q9 0 16.5 -5.5t12.5 -17.5t7.5 -33t2.5 -50q0 -28 -2.5 -48t-7.5 -32.5t-12.5 -18t-16.5 -5.5h-316v-1019q0 -10 -6.5 -17.5t-21 -12.5t-39.5 -8t-62 -3t-62 3t-39.5 8t-21 12.5t-6.5 17.5v1019h-316q-10 0 -17 5.5 t-11.5 18t-7 32.5t-2.5 48z" />
<glyph unicode="U" horiz-adv-x="1305" d="M137 460v769q0 10 5.5 17.5t21 12.5t40 8t62.5 3q37 0 61.5 -3t39 -8t21 -13t6.5 -17v-747q0 -75 18.5 -130t53 -91t83 -54.5t107.5 -18.5q61 0 108.5 19t81 54.5t51.5 87.5t18 119v761q0 10 6 17.5t20.5 12.5t39.5 8t62 3t61 -3t38.5 -8t20.5 -13t6 -17v-758 q0 -116 -34 -208t-100.5 -155.5t-164.5 -96.5t-224 -33q-119 0 -214 29.5t-160.5 90t-100 151t-34.5 211.5z" />
<glyph unicode="V" horiz-adv-x="1182" d="M24 1224q0 3 -1 6q1 16 11 24q12 10 41 13t82 3q45 0 70.5 -2t39 -7t19 -15t10.5 -24l308 -975l302 970q4 17 10 27t20 16t40.5 8t72.5 2q45 0 70 -3t34 -15q6 -8 6 -21q-1 -5 -1 -11q-4 -20 -14 -54l-377 -1121q-5 -17 -13 -27t-25.5 -15.5t-48 -7t-78.5 -1.5 q-39 0 -67 0.5t-47.5 2.5t-32 6t-20.5 10t-12.5 14t-8.5 21l-376 1120q-12 36 -14 56z" />
<glyph unicode="W" horiz-adv-x="1812" d="M43 1226q0 18 11 28q12 11 40 13.5t78 2.5q46 0 72.5 -1.5t40.5 -7t19 -16t8 -28.5l221 -968h1l231 961q4 19 10 30.5t21.5 18t41.5 9t70 2.5q47 0 75 -2t43 -8.5t22 -18.5t11 -31l238 -961h2l222 965q3 16 7.5 27t18.5 17.5t39 9t71 2.5q43 0 67 -2.5t35 -13.5 q10 -10 10 -27q-1 -2 -1 -5q-2 -21 -10 -57l-290 -1100q-6 -23 -16.5 -37t-31 -21.5t-52.5 -10t-82 -2.5q-56 0 -89.5 2.5t-53 10t-28.5 21.5t-13 37l-203 801h-2l-191 -801q-5 -22 -13.5 -36t-27.5 -22t-52 -10.5t-87 -2.5q-57 0 -90.5 2.5t-53 10t-28 21.5t-14.5 37 l-287 1103q-10 39 -10 58z" />
<glyph unicode="X" horiz-adv-x="1101" d="M38 42q6 20 24 55l303 551l-281 519q-18 35 -24 56t5 31.5t41.5 13t85.5 2.5q46 0 73 -2t42.5 -6.5t22 -12.5t12.5 -20l221 -417l216 417q6 12 12.5 20t20.5 12.5t39 6.5t69 2q49 0 77 -2.5t39 -13.5t5.5 -31.5t-21.5 -55.5l-282 -516l300 -554q18 -34 23 -55q2 -6 2 -12 q-1 -12 -9 -20q-12 -10 -42.5 -13t-84.5 -3q-46 0 -72.5 2t-41.5 6.5t-22 12t-12 19.5l-237 456l-236 -456q-6 -12 -13 -19.5t-22 -12t-42 -6.5t-71 -2q-51 0 -78.5 3t-37.5 13q-6 7 -6 18q0 6 2 14z" />
<glyph unicode="Y" horiz-adv-x="1039" d="M21 1224q-2 6 -2 12q0 11 8 18q11 11 41.5 13.5t83.5 2.5q45 0 72 -2t42.5 -7.5t23 -14.5t14.5 -22l140 -311q21 -45 41 -94.5t40 -104.5h2q19 53 38.5 102.5t38.5 94.5l138 309q5 16 12.5 25t22 15t40 8t67.5 2q56 0 86.5 -2.5t41.5 -13.5q7 -6 7 -18q0 -6 -1 -12 q-6 -21 -24 -56l-346 -689v-444q0 -10 -6 -17.5t-21 -12.5t-39.5 -8t-61.5 -3q-38 0 -62.5 3t-40 8t-21 12.5t-5.5 17.5v444l-346 689q-19 36 -24 56z" />
<glyph unicode="Z" horiz-adv-x="956" d="M50 88v43q0 20 2.5 36t8 32.5t17 36t27.5 46.5l491 778h-487q-12 0 -20 5t-13.5 17t-8 31.5t-2.5 46.5q0 29 2.5 49t8 32.5t14 17.5t19.5 5h699q40 0 59 -20.5t19 -57.5v-48q0 -26 -2.5 -45.5t-9 -37.5t-17 -37t-27.5 -45l-482 -767h528q19 0 28.5 -23t9.5 -81 q0 -28 -2.5 -48t-7.5 -32t-12 -17t-16 -5h-745q-39 0 -60 22.5t-21 65.5z" />
<glyph unicode="[" horiz-adv-x="649" d="M153 -248v1549q0 21 6 36.5t16 25.5t23.5 14.5t30.5 4.5h301q8 0 15 -4.5t11.5 -14.5t6 -27t1.5 -42q0 -50 -8.5 -69t-25.5 -19h-147v-1360h147q8 0 15 -4t11.5 -15t6 -27.5t1.5 -41.5q0 -49 -8.5 -68.5t-25.5 -19.5h-301q-17 0 -30.5 5t-23.5 14.5t-16 25t-6 37.5z" />
<glyph unicode="\" horiz-adv-x="859" d="M28 1403q-1 15 10.5 22t36 9.5t67.5 2.5q39 0 63 -2t37.5 -6t19.5 -11.5t9 -18.5l575 -1612q8 -24 8.5 -39.5t-10.5 -22t-35.5 -9t-67.5 -2.5q-39 0 -63 2t-37.5 6t-19.5 11t-11 18l-572 1612q-9 25 -10 40z" />
<glyph unicode="]" horiz-adv-x="649" d="M85 -242q0 25 2.5 41.5t7 27.5t10.5 15t14 4h149v1360h-149q-17 0 -25.5 19t-8.5 69q0 25 2.5 42t7 27t10.5 14.5t14 4.5h303q17 0 30.5 -4.5t23 -14.5t16 -26t6.5 -36v-1549q0 -21 -6.5 -37t-16 -25.5t-23.5 -14.5t-30 -5h-303q-17 0 -25.5 19.5t-8.5 68.5z" />
<glyph unicode="^" horiz-adv-x="996" d="M32 538q3 17 16 44l281 641q6 13 17.5 22t31.5 15.5t48.5 9.5t67.5 3t68 -3t48.5 -9.5t31 -16t17.5 -21.5l286 -641q13 -27 16 -44t-7.5 -25.5t-35 -11t-67.5 -2.5q-38 0 -63 2.5t-41.5 8t-24.5 13.5t-13 20l-216 528l-5 -1l-207 -527q-5 -12 -13 -20t-23.5 -13.5 t-40.5 -8t-63 -2.5q-43 0 -67 2.5t-34.5 11t-7.5 25.5z" />
<glyph unicode="_" horiz-adv-x="996" d="M-7 -267q0 49 9.5 70.5t31.5 21.5h928q21 0 30.5 -20.5t9.5 -70.5q0 -49 -9.5 -69.5t-30.5 -20.5h-928q-22 0 -31.5 20.5t-9.5 68.5z" />
<glyph unicode="`" horiz-adv-x="600" d="M0 938zM99.5 1339q-0.5 10 10.5 17t37.5 11t71.5 4q32 0 54 -2t36.5 -6.5t24 -12t17.5 -18.5l139 -224q9 -13 11 -22.5t-6.5 -16t-27.5 -9t-53 -2.5q-28 0 -46.5 2t-31.5 5.5t-21 10t-16 16.5l-189 226q-10 11 -10.5 21z" />
<glyph unicode="a" horiz-adv-x="987" d="M69 261q0 76 30 132t89 92.5t147 54.5t204 18h85v52q0 41 -8.5 72t-27.5 51.5t-50.5 30t-78.5 9.5q-62 0 -110 -13.5t-85 -30t-62 -30t-41 -13.5q-11 0 -19 6.5t-13.5 19.5t-8.5 31.5t-3 40.5q0 30 5 48t18.5 32t48 31t80 31.5t100 24t111.5 9.5q103 0 176 -20 t119.5 -61.5t68 -107t21.5 -155.5v-586q0 -14 -9.5 -21.5t-30.5 -11t-62 -3.5q-44 0 -64 3.5t-28.5 11.5t-8.5 21v70q-54 -58 -122.5 -90t-152.5 -32q-69 0 -127.5 18t-101 53.5t-66 88t-23.5 123.5zM310 269q0 -55 34.5 -86.5t95.5 -31.5q52 0 95.5 26.5t88.5 77.5v148h-94 q-60 0 -101.5 -8.5t-68 -26t-38.5 -42.5t-12 -57z" />
<glyph unicode="b" horiz-adv-x="1073" d="M123 33v1284q0 10 6 18t20 13.5t37.5 8t59.5 2.5t59.5 -2.5t37.5 -8t20 -13.5t6 -18v-481q33 33 66.5 56.5t66.5 38.5t68 22t75 7q97 0 164 -38.5t109.5 -104t62 -153t19.5 -184.5q0 -116 -25.5 -208.5t-73 -158t-117.5 -100.5t-159 -35q-44 0 -82 8t-72.5 26.5t-68.5 47 t-69 68.5v-95q0 -11 -5.5 -18t-17.5 -12t-32.5 -7t-49.5 -2q-30 0 -50.5 2t-32.5 7t-17 12t-5 18zM369 322q52 -66 99.5 -100.5t98.5 -34.5q48 0 81.5 24t55.5 63t31.5 89t9.5 100q0 56 -8 107.5t-28.5 91.5t-53.5 64t-83 24q-24 0 -47.5 -7t-48.5 -23.5t-51.5 -43 t-55.5 -65.5v-289z" />
<glyph unicode="c" horiz-adv-x="836" d="M70 452q0 131 33 226t91.5 157.5t138.5 93t176 30.5q39 0 76.5 -7t70 -18.5t58.5 -26t37 -25.5t15.5 -18.5t6.5 -19t3.5 -28.5t1.5 -42q0 -57 -9.5 -79.5t-25.5 -22.5q-17 0 -35.5 13.5t-43.5 30t-60.5 30.5t-83.5 14q-96 0 -147 -74t-51 -216q0 -70 13 -124t37.5 -90 t62.5 -54t87 -18q51 0 87.5 15t64 33.5t46 33.5t31.5 15q9 0 14.5 -5t9 -18t5.5 -33.5t2 -52.5q0 -25 -1.5 -42.5t-4 -29t-5.5 -19t-15 -18.5t-40 -27t-64.5 -29t-79 -20.5t-87.5 -7.5q-101 0 -178.5 31t-130 92t-79.5 149t-27 201z" />
<glyph unicode="d" horiz-adv-x="1073" d="M73 457q0 116 25 209t73 158.5t119 100.5t164 35q73 0 132.5 -30t118.5 -87v471q0 10 5.5 18t19.5 13.5t37.5 8t59.5 2.5t59.5 -2.5t37.5 -8t19.5 -13.5t5.5 -18v-1281q0 -11 -5 -18t-16.5 -12t-31.5 -7t-49 -2q-31 0 -51 2t-32 7t-17.5 12t-5.5 18v97q-67 -72 -141 -112 t-163 -40q-100 0 -169 38.5t-112.5 104t-63 152.5t-19.5 184zM323 474q0 -55 9 -107t29 -92.5t53 -64.5t84 -24q25 0 49 7t49 23.5t51.5 43.5t57.5 66v289q-53 66 -101 101.5t-101 35.5q-48 0 -82.5 -24t-55.5 -64t-31.5 -89.5t-10.5 -100.5z" />
<glyph unicode="e" horiz-adv-x="1006" d="M72 459q0 116 30.5 209.5t88 158.5t140 99t186.5 34q109 0 186.5 -32t127.5 -89.5t73.5 -135.5t23.5 -170v-39q0 -45 -20 -66.5t-55 -21.5h-531q0 -56 13.5 -101t42 -77t74 -48.5t109.5 -16.5t113 9.5t84.5 20.5t59 20.5t37.5 9.5q9 0 15 -3.5t10 -12.5t5.5 -25t1.5 -40 q0 -21 -1 -36.5t-3 -26.5t-6 -18t-10.5 -14t-34.5 -18.5t-72 -23t-100.5 -19.5t-121.5 -8q-116 0 -203.5 29t-146 88.5t-87.5 150.5t-29 213zM322 564h367v13q0 95 -41 150q-44 59 -137 59q-47 0 -81.5 -17.5t-57.5 -47.5t-35.5 -70.5t-14.5 -86.5z" />
<glyph unicode="f" horiz-adv-x="632" d="M24 838q0 28 2.5 47.5t7 31t12.5 16.5q6 5 16 5h109v73q0 89 17.5 155.5t55 111t95.5 67t138 22.5q38 0 72 -6.5t53.5 -13.5t26.5 -13.5t11.5 -18.5t6 -31.5t1.5 -47.5t-1.5 -45t-5.5 -26.5t-9 -13t-11 -3.5q-7 0 -15 3.5t-20.5 7.5t-29 7.5t-38.5 3.5q-26 0 -45.5 -8.5 t-32 -26.5t-18.5 -46.5t-6 -70.5v-80h159q9 0 16.5 -5t12 -16.5t7 -31t2.5 -47.5q0 -54 -9.5 -77t-28.5 -23h-159v-705q0 -10 -6 -17t-19.5 -12t-38 -7.5t-59.5 -2.5t-59 2.5t-38 7.5t-19.5 12t-5.5 17v705h-109q-19 0 -28.5 23t-9.5 77z" />
<glyph unicode="g" horiz-adv-x="948" d="M26 -120q0 32 8.5 61.5t24.5 56t39.5 51t53.5 47.5q-42 22 -65 60.5t-23 84.5q0 58 26.5 105.5t68.5 85.5q-34 34 -54.5 82t-20.5 119q0 76 27 136t74.5 101.5t114 63.5t146.5 22q41 0 78.5 -5t70.5 -13h276q17 0 27 -21.5t10 -72.5q0 -47 -10.5 -69.5t-26.5 -22.5h-102 q21 -23 30.5 -53t9.5 -62q0 -76 -25.5 -135.5t-73 -100t-114.5 -61.5t-149 -21q-42 0 -80 10.5t-58 24.5q-12 -13 -21.5 -30.5t-9.5 -39.5q0 -28 25 -46t70 -20l212 -8q74 -3 132 -21t97.5 -51t60.5 -78.5t21 -104.5q0 -64 -28 -121.5t-84.5 -99.5t-142 -66t-200.5 -24 q-111 0 -189.5 17.5t-129 48.5t-73.5 74.5t-23 95.5zM264 -89q0 -49 49 -74t139 -25q56 0 94 11t61.5 29.5t33 41.5t9.5 48q0 44 -35 67.5t-96 25.5l-175 5q-25 -19 -40.5 -36t-24.5 -32.5t-12 -30t-3 -30.5zM299 634q0 -66 39 -105t108 -39q37 0 64.5 12t45.5 32.5 t27.5 47.5t9.5 56q0 70 -39 109t-111 39q-36 0 -63 -12t-45.5 -33t-27 -49t-8.5 -58z" />
<glyph unicode="h" horiz-adv-x="1073" d="M123 33v1284q0 10 6 18t20 13.5t37.5 8t59.5 2.5t59.5 -2.5t37.5 -8t20 -13.5t6 -18v-481q63 62 129 93t138 31q89 0 150 -29.5t98.5 -80t54 -118.5t16.5 -165v-534q0 -10 -6 -17t-19.5 -12t-37.5 -7.5t-59 -2.5q-36 0 -60 2.5t-37.5 7.5t-19.5 12t-6 17v497 q0 63 -9.5 99.5t-27 62.5t-45 40t-65.5 14q-47 0 -94.5 -34t-99.5 -100v-579q0 -10 -6 -17t-20 -12t-37.5 -7.5t-59.5 -2.5t-59.5 2.5t-37.5 7.5t-20 12t-6 17z" />
<glyph unicode="i" horiz-adv-x="491" d="M104 1194q0 74 30 103t113 29q82 0 111.5 -28t29.5 -99q0 -74 -30.5 -102.5t-112.5 -28.5q-83 0 -112 27.5t-29 98.5zM123 33v869q0 10 6 17.5t20 13t37.5 8t59.5 2.5t59.5 -2.5t37.5 -8t20 -13t6 -17.5v-869q0 -10 -6 -17t-20 -12t-37.5 -7.5t-59.5 -2.5t-59.5 2.5 t-37.5 7.5t-20 12t-6 17z" />
<glyph unicode="j" horiz-adv-x="510" d="M-36 -243q0 27 1.5 45t5.5 29t8.5 16t12.5 5q5 0 20 -2.5t33 -2.5q25 0 43.5 7.5t30.5 24.5t18 44t6 86v893q0 10 5.5 17.5t19.5 13t37.5 8t59.5 2.5t59.5 -2.5t37.5 -8t20 -13t6 -17.5v-898q0 -103 -17.5 -166.5t-53.5 -106.5t-89.5 -65t-125.5 -22q-40 0 -68.5 5 t-41.5 11t-17.5 15t-6.5 20t-3 25t-1 37zM123 1194q0 74 30.5 103t112.5 29q83 0 111.5 -28t28.5 -99q0 -74 -29.5 -102.5t-112.5 -28.5q-82 0 -111.5 27.5t-29.5 98.5z" />
<glyph unicode="k" horiz-adv-x="959" d="M123 33v1284q0 10 6 18t20 13.5t37.5 8t59.5 2.5t59.5 -2.5t37.5 -8t20 -13.5t6 -18v-764l258 346q8 12 17.5 21t26 13.5t40 7t60.5 2.5q36 0 61 -2.5t40.5 -7t21 -12t5.5 -18.5q0 -15 -7 -31.5t-22 -34.5l-255 -289l295 -456q12 -20 17.5 -34t5.5 -26q0 -10 -5.5 -17 t-19.5 -11.5t-38.5 -7t-63.5 -2.5q-40 0 -65 2t-41 6.5t-25 12t-16 20.5l-290 459v-461q0 -10 -6 -17t-20 -12t-37.5 -7.5t-59.5 -2.5t-59.5 2.5t-37.5 7.5t-20 12t-6 17z" />
<glyph unicode="l" horiz-adv-x="491" d="M123 33v1284q0 10 6 18t20 13.5t37.5 8t59.5 2.5t59.5 -2.5t37.5 -8t20 -13.5t6 -18v-1284q0 -10 -6 -17t-20 -12t-37.5 -7.5t-59.5 -2.5t-59.5 2.5t-37.5 7.5t-20 12t-6 17z" />
<glyph unicode="m" horiz-adv-x="1626" d="M123 33v871q0 10 5 17.5t17.5 12t32.5 7t51 2.5t51.5 -2.5t31.5 -7t16 -12t5 -17.5v-100q72 78 144 117t150 39q54 0 97 -11t76.5 -32t58 -50.5t40.5 -65.5q39 42 77 72t74.5 49t73 28.5t74.5 9.5q87 0 146.5 -29.5t96.5 -79.5t52.5 -117.5t15.5 -142.5v-558 q0 -10 -6 -17t-19.5 -12t-37 -7.5t-59.5 -2.5q-37 0 -60.5 2.5t-38 7.5t-19.5 12t-5 17v517q0 44 -8.5 80t-25.5 62t-43 40t-62 14q-44 0 -89 -34t-98 -100v-579q0 -10 -5.5 -17t-20 -12t-37.5 -7.5t-59 -2.5t-59.5 2.5t-37.5 7.5t-20 12t-6 17v517q0 44 -8 80t-24.5 62 t-43 40t-61.5 14q-45 0 -90 -34t-97 -100v-579q0 -10 -6 -17t-20 -12t-37.5 -7.5t-59.5 -2.5t-59.5 2.5t-37.5 7.5t-20 12t-6 17z" />
<glyph unicode="n" horiz-adv-x="1073" d="M123 33v871q0 10 5 17.5t17.5 12t32.5 7t51 2.5t51.5 -2.5t31.5 -7t16 -12t5 -17.5v-100q72 78 147 117t156 39q89 0 150 -29.5t98.5 -79.5t54 -117.5t16.5 -162.5v-538q0 -10 -6 -17t-19.5 -12t-37.5 -7.5t-59 -2.5q-36 0 -60 2.5t-37.5 7.5t-19.5 12t-6 17v497 q0 63 -9.5 99.5t-27 62.5t-45 40t-65.5 14q-47 0 -94.5 -34t-99.5 -100v-579q0 -10 -6 -17t-20 -12t-37.5 -7.5t-59.5 -2.5t-59.5 2.5t-37.5 7.5t-20 12t-6 17z" />
<glyph unicode="o" horiz-adv-x="1075" d="M70 460q0 111 30 203.5t89.5 158.5t149 102t209.5 36q117 0 203 -32t142 -93.5t83.5 -151t27.5 -205.5q0 -111 -29.5 -203t-89 -158.5t-149.5 -102.5t-210 -36q-116 0 -202 32t-142.5 93.5t-84 151.5t-27.5 205zM323 471q0 -64 11 -118.5t35 -94.5t65 -62t101 -22 q56 0 97 20t67.5 58t39 92.5t12.5 123.5q0 64 -10.5 118.5t-34.5 94.5t-64.5 62.5t-102.5 22.5q-55 0 -96 -20t-67 -59t-39.5 -93t-13.5 -123z" />
<glyph unicode="p" horiz-adv-x="1073" d="M123 -312v1216q0 10 5 17.5t17 12t32 7t51 2.5q29 0 49 -2.5t32 -7t17 -12t5 -17.5v-102q38 39 74.5 68.5t75 49.5t79 30t86.5 10q96 0 163 -37.5t109.5 -103t62 -152.5t19.5 -186q0 -116 -25 -209t-73 -158.5t-119 -100.5t-163 -35q-38 0 -69.5 7t-61.5 22t-59.5 37.5 t-60.5 53.5v-410q0 -10 -6 -18t-20 -13.5t-37.5 -8t-59.5 -2.5t-59.5 2.5t-37.5 8t-20 13.5t-6 18zM369 323q52 -65 99 -100.5t97 -35.5q48 0 82 24t55.5 63.5t31.5 89.5t10 100q0 56 -8 107t-28 91t-53 64t-82 24q-24 0 -48 -7.5t-49 -24t-51.5 -43t-55.5 -65.5v-287z" />
<glyph unicode="q" horiz-adv-x="1073" d="M73 457q0 116 25.5 209t74.5 158.5t120 100.5t165 35q36 0 69.5 -7.5t66.5 -25.5t68.5 -46.5t78.5 -70.5v94q0 10 5.5 17.5t17.5 12t31.5 7t51.5 2.5q29 0 49 -2.5t31.5 -7t16.5 -12t5 -17.5v-1216q0 -10 -5.5 -18t-19.5 -13.5t-37.5 -8t-59.5 -2.5t-59.5 2.5t-37.5 8 t-19.5 13.5t-5.5 18v414q-35 -32 -68 -56.5t-66.5 -39.5t-68.5 -21.5t-74 -6.5q-96 0 -163.5 38.5t-110 104t-62 152.5t-19.5 184zM323 474q0 -55 9 -107.5t29 -92.5t53 -64t84 -24q25 0 49 7t49 23.5t51.5 43.5t57.5 66v289q-53 66 -101 101.5t-101 35.5q-48 0 -82.5 -24 t-55.5 -64t-31.5 -89.5t-10.5 -100.5z" />
<glyph unicode="r" horiz-adv-x="710" d="M123 33v871q0 10 5 17.5t17.5 12t32.5 7t51 2.5t51.5 -2.5t31.5 -7t16 -12t5 -17.5v-108q34 49 64.5 80.5t57.5 50t54.5 26t54.5 7.5q13 0 27.5 -1.5t30.5 -5t27.5 -8t17 -9t8 -10.5t4.5 -16.5t3 -31t1 -55.5t-2 -57.5t-6 -35t-10.5 -17.5t-16.5 -5q-8 0 -17.5 3.5 t-21.5 7.5t-27 7t-32 3q-21 0 -41.5 -8t-42.5 -25.5t-46 -47t-51 -72.5v-543q0 -10 -6 -17t-20 -12t-37.5 -7.5t-59.5 -2.5t-59.5 2.5t-37.5 7.5t-20 12t-6 17z" />
<glyph unicode="s" horiz-adv-x="797" d="M71 146q0 28 2 45t6 27.5t10 13.5t15 3q11 0 31.5 -12t52 -26.5t73 -27.5t93.5 -13q33 0 59 7t45.5 19.5t29 32t9.5 45.5q0 29 -18 50t-48 36.5t-67.5 29.5t-77 30.5t-77 38t-67.5 52.5t-48 75t-18 106t24.5 114.5t70.5 89.5t112 57.5t148 20.5q41 0 79.5 -6t69.5 -14.5 t52.5 -19t31 -17.5t13.5 -14.5t6 -18t3.5 -25.5t1.5 -37q0 -26 -1.5 -43t-5 -26.5t-9.5 -13t-14 -3.5q-9 0 -27.5 10t-46 22t-64.5 22t-83 10q-33 0 -58 -7t-40.5 -19.5t-23 -29.5t-7.5 -37q0 -30 18.5 -50.5t48.5 -36t68.5 -29.5t78.5 -30t78.5 -37.5t68.5 -52.5 t48.5 -74.5t18.5 -103.5q0 -74 -27.5 -130.5t-78.5 -94.5t-120.5 -57t-150.5 -19q-49 0 -93 7t-79.5 18.5t-59 23t-34 22t-16.5 32.5t-6 65z" />
<glyph unicode="t" horiz-adv-x="693" d="M22 838q0 28 2.5 47.5t7.5 31t12.5 16.5t17.5 5h103v194q0 10 5.5 17.5t19.5 13t38 8t59 2.5q36 0 60 -2.5t37.5 -8t19.5 -13t6 -17.5v-194h190q10 0 17 -5t12 -16.5t7.5 -31t2.5 -47.5q0 -54 -10 -77t-28 -23h-191v-409q0 -71 22.5 -106.5t80.5 -35.5q20 0 35 3 t27.5 7.5t20.5 8t15 3.5q6 0 11.5 -3.5t8.5 -13.5t5.5 -28t2.5 -45q0 -43 -5.5 -66t-14.5 -32t-26 -16.5t-40 -13t-49.5 -8.5t-54.5 -3q-73 0 -126.5 19t-89 57.5t-52 97t-16.5 138.5v446h-104q-19 0 -29 23t-10 77z" />
<glyph unicode="u" horiz-adv-x="1073" d="M118 371v533q0 10 5.5 17.5t19.5 12t38 7t59 2.5q36 0 59.5 -2.5t38 -7t20 -12t5.5 -17.5v-492q0 -68 9 -104.5t27 -62t46 -40t65 -14.5q47 0 94 34.5t101 99.5v579q0 10 5.5 17.5t19.5 12t37.5 7t59.5 2.5t59.5 -2.5t37.5 -7t19.5 -12t5.5 -17.5v-871q0 -10 -5 -17 t-17 -12t-32 -7.5t-50 -2.5q-32 0 -52.5 2.5t-32 7.5t-16.5 12t-5 17v101q-72 -78 -146.5 -117t-154.5 -39q-90 0 -151 29t-99 80t-54 117.5t-16 166.5z" />
<glyph unicode="v" horiz-adv-x="946" d="M21 905q0 10 5.5 17.5t19.5 12t37.5 6.5t60.5 2q40 0 64 -2.5t38.5 -6.5t20 -12.5t9.5 -20.5l199 -639l5 -25l6 25l196 639q3 12 9 20.5t20 12.5t37 6.5t60 2.5q36 0 59 -2t35.5 -6.5t17.5 -12t5 -17.5q0 -5 -0.5 -11.5t-2 -15t-4 -19t-6.5 -24.5l-262 -788 q-5 -17 -13 -27t-27 -16t-52 -8t-85 -2t-85 2.5t-51.5 8.5t-26.5 16t-13 26l-262 788q-6 20 -9.5 35.5t-4 22t-0.5 12.5z" />
<glyph unicode="w" horiz-adv-x="1490" d="M34 906q0 10 5.5 17.5t19.5 11.5t38 6t60 2q39 0 63.5 -2t38 -6.5t19 -13t8.5 -20.5l173 -639l2 -12l2 12l162 639q3 12 9.5 20.5t19 13t35.5 6.5t59 2t58.5 -2.5t35.5 -6.5t18.5 -11.5t8.5 -17.5l174 -644l3 -11l2 12l166 639q2 12 8 20.5t19.5 13t37 6.5t59.5 2t59 -2 t36 -6t18 -11.5t5 -17.5q0 -11 -3 -26.5t-11 -44.5l-232 -788q-5 -17 -13 -27t-24 -16t-45.5 -8t-77.5 -2t-78.5 2.5t-47.5 8.5t-24.5 16t-11.5 26l-147 529l-2 9l-2 -9l-134 -529q-4 -17 -11.5 -27t-25 -16t-48 -8t-78.5 -2q-49 0 -78.5 2.5t-46.5 8.5t-25 16t-12 26 l-230 788q-9 28 -11.5 44.5t-2.5 26.5z" />
<glyph unicode="x" horiz-adv-x="918" d="M31 25q0 10 9 26l241 428l-222 403q-9 18 -9.5 30t12 19t40.5 9.5t76 2.5q43 0 68.5 -1.5t40.5 -4t21.5 -9t11.5 -16.5l156 -291l154 291q3 8 9 14t18.5 9.5t34.5 5.5t60 2q43 0 69 -2t37 -8.5t10.5 -19t-11.5 -31.5l-216 -396l239 -435q8 -16 8 -26v-1 q0 -10 -14.5 -17.5t-42.5 -10t-75 -2.5q-44 0 -71 1.5t-42 6t-22.5 11t-11.5 15.5l-161 310l-161 -310q-4 -10 -10.5 -16t-21 -10.5t-40 -6t-66.5 -1.5q-43 0 -68 2.5t-37 9.5q-13 8 -13 19z" />
<glyph unicode="y" horiz-adv-x="947" d="M21 897q0 18 12 28.5t40 14t73 3.5q42 0 66.5 -1.5t38.5 -7t20.5 -18t13.5 -34.5l205 -583h3l188 595q6 25 15 33.5t30.5 12t75.5 3.5q42 0 69.5 -3.5t41 -14.5t13.5 -29t-8 -42l-290 -854l-106 -309q-9 -24 -47.5 -34.5t-114.5 -10.5q-39 0 -62.5 3t-35 11t-12.5 19.5 t6 28.5l116 292q-13 6 -23 18t-15 26l-300 801q-13 34 -13 52z" />
<glyph unicode="z" horiz-adv-x="794" d="M67 75v45q0 18 1.5 32t6 27t12 27t18.5 30l327 504h-309q-19 0 -30 23.5t-11 75.5q0 28 2.5 47t7.5 30.5t12.5 16.5t18.5 5h532q14 0 23.5 -3t16 -11t10 -21.5t3.5 -34.5v-48q0 -20 -2 -34.5t-6 -28.5t-11 -27.5t-17 -29.5l-324 -503h343q9 0 17 -4t13.5 -14.5t8 -29.5 t2.5 -48q0 -28 -3 -48.5t-7.5 -32t-12.5 -16t-18 -4.5h-569q-26 0 -40.5 17.5t-14.5 57.5z" />
<glyph unicode="{" horiz-adv-x="687" d="M53 557q0 26 2 44t6 29t10.5 15t16.5 6q68 10 104.5 66.5t36.5 167.5v126q0 111 12 181t42.5 117t81.5 71t127 24q25 0 46 -2.5t42 -6.5q9 -1 16 -6t11.5 -15t7 -27t2.5 -41q0 -25 -3 -42t-7.5 -27.5t-12.5 -15t-16 -4.5l-36 -1q-24 -1 -40.5 -9.5t-26.5 -29.5 t-14.5 -56.5t-4.5 -110.5v-121q0 -75 -10.5 -126t-34.5 -92t-62 -71t-94 -42q56 -13 94 -42.5t62 -71t34.5 -92t10.5 -124.5v-165q0 -74 4.5 -109.5t13.5 -56.5t23.5 -30t35.5 -10h36q14 -1 24 -5t15 -14.5t7 -27t2 -42.5q0 -25 -2.5 -41.5t-7 -26.5t-11.5 -14.5t-15 -6.5 q-22 -6 -42.5 -8t-46.5 -2q-77 0 -128 24.5t-81 71t-42 116.5q-12 69 -12 181v168q0 62 -8 98t-24.5 64t-42.5 46.5t-63 24.5q-10 2 -17 7.5t-11.5 15.5t-7 27.5t-2.5 43.5z" />
<glyph unicode="|" horiz-adv-x="950" d="M359 -315v1685q0 10 5.5 18t19 13t35.5 8t56 3t56 -3t35.5 -8t19 -13t5.5 -18v-1685q0 -10 -5.5 -18t-19 -13.5t-35.5 -7.5t-56 -2q-33 0 -55.5 2t-36 7.5t-19 13.5t-5.5 18z" />
<glyph unicode="}" horiz-adv-x="687" d="M103 -232q0 25 2.5 41.5t8 27.5t13 15t15.5 5h37q24 1 40 9.5t26.5 29.5t15 57t4.5 110v123q0 74 10.5 131.5t34 107t62 86t94.5 49.5q-56 13 -94.5 35t-62 55.5t-34 77t-10.5 119.5v163q0 74 -4.5 109.5t-13.5 57t-23 29.5q-14 9 -36 10l-36 1q-15 0 -24.5 4.5t-15.5 14 t-7.5 26.5t-1.5 44q0 24 2 41t7.5 27t12.5 15t16 6q22 6 42.5 7.5t45.5 1.5q77 0 127.5 -24t81 -70.5t42.5 -116.5t12 -182v-168q0 -61 8 -90.5t24 -49t42.5 -31.5t63.5 -19q9 -1 16 -6t11.5 -16t7.5 -28t3 -42q0 -27 -2.5 -45t-6.5 -28.5t-10.5 -15.5t-15.5 -6 q-37 -5 -63.5 -29t-43.5 -59.5t-25.5 -79.5t-8.5 -110v-126q0 -111 -12 -180.5t-43 -116.5t-81.5 -71.5t-126.5 -24.5q-24 0 -45 2.5t-45 7.5q-8 2 -14.5 6.5t-11.5 14.5t-7.5 26t-2.5 42z" />
<glyph unicode="~" horiz-adv-x="996" d="M56 803v26q0 78 20 136.5t55.5 97.5t84 57.5t104.5 18.5q42 0 74.5 -7.5t58.5 -20.5t46 -30.5t39.5 -38t35 -39t30 -32t30.5 -21.5t38 -8q23 0 40.5 10.5t29 29t17 45t5.5 60.5q0 17 23.5 24t65.5 7q27 0 44.5 -2.5t28 -7.5t14.5 -13t3 -19v-31q-1 -77 -23.5 -134.5 t-58.5 -95.5t-83.5 -56.5t-98.5 -18.5q-42 0 -74.5 8t-58 21t-45.5 30.5t-40 38t-35.5 39.5t-30.5 32.5t-30.5 21t-37.5 7.5q-24 0 -41.5 -10.5t-28.5 -29.5t-16.5 -45t-5.5 -57q0 -19 -22 -26.5t-67 -7.5q-26 0 -44 2.5t-28.5 7.5t-14 13t-3.5 18z" />
<glyph unicode="&#xa2;" horiz-adv-x="996" d="M165 612q0 109 23.5 193.5t66 145.5t102 98.5t131.5 53.5v133q0 10 4.5 18t16.5 13t31.5 7.5t48.5 2.5t49 -2.5t31.5 -7.5t16 -13t4.5 -18v-129q21 -3 45.5 -9.5t46.5 -16.5t40.5 -21.5t29.5 -22.5t15.5 -19t7.5 -19.5t4 -27.5t1 -37q0 -19 -2 -37.5t-7 -33t-13.5 -24.5 t-21.5 -10q-16 0 -33 13.5t-42 30.5t-59.5 31t-85.5 14q-43 0 -78.5 -16t-62.5 -51.5t-42 -90t-15 -132.5q0 -75 13.5 -129.5t40.5 -89t65.5 -51t88.5 -16.5t85 15t60.5 33.5t44 33.5t31.5 15q9 0 14.5 -8.5t8.5 -23.5t4 -37t1 -47q0 -42 -4.5 -63t-14.5 -32.5t-27.5 -23.5 t-38.5 -22.5t-46 -19t-54 -13.5v-134q0 -10 -4 -17.5t-16 -12.5t-31.5 -7t-48.5 -2t-49 2t-31.5 7t-16 12.5t-4.5 17.5v131q-159 25 -241.5 144t-82.5 322z" />
<glyph unicode="&#xa3;" d="M74 99q0 28 2.5 47t8 30.5t13 16.5t15.5 5h104v348h-104q-9 0 -15.5 4.5t-12 15.5t-8.5 29.5t-3 47.5q0 27 2.5 45.5t8 29.5t13 16t15.5 5h104v90q0 119 26.5 205.5t77 142t126 81.5t172.5 26q43 0 82.5 -6.5t73 -17.5t60.5 -26t39 -28t17.5 -21t8.5 -20.5t4 -30t1 -42.5 q0 -27 -2 -46t-7 -30t-12 -16t-15 -5q-14 0 -31 13.5t-42.5 30t-61 30t-83.5 13.5q-49 0 -83.5 -16t-56 -47t-31 -76.5t-9.5 -103.5v-100h263q9 0 16 -5t12 -16t8 -29.5t3 -45.5q0 -28 -3 -47t-8.5 -30t-12.5 -15.5t-15 -4.5h-263v-348h426q9 0 16 -5t12 -16.5t8 -30.5 t3 -47q0 -27 -3 -46.5t-8.5 -31t-12.5 -16.5t-15 -5h-784q-9 0 -15.5 5t-12 16.5t-8.5 30.5t-3 47z" />
<glyph unicode="&#xa5;" d="M35 1222.5q-7 20.5 3 31.5t39 13.5t82 2.5q42 0 68.5 -1.5t42 -5.5t24 -12t14.5 -22l107 -203q28 -55 53 -109t48 -106q23 53 47.5 106.5t53.5 108.5l108 203q7 14 13.5 22.5t20.5 12t39.5 5t68.5 1.5q47 0 74 -2.5t35.5 -12.5t1 -31t-28.5 -56l-313 -541v-35h244 q14 0 22.5 -18.5t8.5 -63.5q0 -48 -9 -67.5t-22 -19.5h-244v-122h244q14 0 22.5 -19t8.5 -65q0 -47 -9 -66.5t-22 -19.5h-244v-100q0 -10 -6.5 -17t-21 -11.5t-39.5 -6.5t-62 -2t-62 2t-39.5 6.5t-21 11.5t-6.5 17v100h-243q-14 0 -23 19.5t-9 66.5q0 46 9 65t23 19h243v122 h-243q-14 0 -23 19.5t-9 67.5q0 45 9 63.5t23 18.5h243v35l-315 541q-21 34 -28 54.5z" />
<glyph unicode="&#xa8;" horiz-adv-x="829" d="M0 938zM100 1193q0 70 26 96.5t98 26.5q74 0 99 -26t25 -92q0 -68 -26 -95t-98 -27q-73 0 -98.5 26t-25.5 91zM481 1193q0 70 26 96.5t98 26.5q73 0 98.5 -26t25.5 -92q0 -68 -25.5 -95t-99.5 -27q-72 0 -97.5 26t-25.5 91z" />
<glyph unicode="&#xa9;" horiz-adv-x="1668" d="M154 649q0 183 46 318t134 223.5t215.5 132.5t290.5 44q167 0 293 -43.5t211.5 -128t128.5 -210.5t43 -291q0 -182 -46 -316.5t-134 -223.5t-215.5 -132.5t-292.5 -43.5q-167 0 -293 42t-211 126.5t-127.5 210.5t-42.5 292zM331 662q0 -135 28.5 -235t89.5 -165.5 t157 -97.5t232 -32q144 0 240 42t153.5 115.5t82 174t24.5 217.5q0 128 -26 227t-85.5 167t-156.5 103t-239 35q-131 0 -225 -36t-155 -106t-90.5 -172.5t-29.5 -236.5zM483 658q0 112 28.5 194.5t79 135.5t119.5 79t151 26q36 0 69.5 -6t62 -15.5t50.5 -23t32.5 -23.5 t14.5 -16.5t6.5 -16.5t3.5 -23.5t1 -31.5q0 -16 -2 -31.5t-6 -28.5t-11.5 -20.5t-19.5 -7.5q-14 0 -28.5 12t-35.5 26t-51 26t-75 12q-84 0 -129.5 -64t-45.5 -188q0 -63 10.5 -110.5t33 -79.5t56.5 -47.5t82 -15.5q42 0 72.5 13t53.5 29.5t39.5 29.5t28.5 13q6 0 10.5 -4 t7.5 -14t4.5 -27.5t1.5 -44.5q0 -21 -1 -36.5t-3 -25.5t-5.5 -16.5t-12.5 -15.5t-31 -22.5t-52 -25t-67.5 -19t-79.5 -7.5q-88 0 -155.5 27t-113.5 79.5t-69.5 129.5t-23.5 175z" />
<glyph unicode="&#xab;" horiz-adv-x="1077" d="M87.5 515.5q0.5 21.5 16.5 46.5l208 338q6 9 12 15.5t18 10t30 5.5t47 2q35 0 57 -3.5t32.5 -11t11.5 -17t-6 -22.5l-191 -366l196 -374q7 -13 6 -23.5t-11 -17t-31.5 -10.5t-57.5 -4q-28 0 -46.5 2t-30 5.5t-18.5 9.5t-12 15l-218 357q-13 21 -12.5 42.5zM490.5 514.5 q0.5 20.5 16.5 46.5l201 320q5 8 12 14t18 9.5t28.5 5t45.5 1.5q35 0 57.5 -3.5t33 -9.5t11 -15.5t-5.5 -22.5l-185 -346l198 -361q6 -12 5 -20t-11.5 -14t-32.5 -9t-57 -3q-28 0 -46 1t-30 4.5t-18 8.5t-11 14l-217 338q-13 21 -12.5 41.5z" />
<glyph unicode="&#xad;" horiz-adv-x="612" d="M58 491q0 55 10.5 77.5t35.5 22.5h406q12 0 20 -5t14 -16.5t8.5 -31.5t2.5 -47q0 -57 -11 -79t-34 -22h-406q-24 0 -35 23t-11 78z" />
<glyph unicode="&#xae;" d="M103 990q0 84 31.5 156.5t86 126t129 84.5t159.5 31q88 0 161.5 -30t127.5 -82t83.5 -125t29.5 -159q0 -84 -31.5 -156.5t-86.5 -126.5t-129 -84.5t-159 -30.5q-87 0 -160.5 29.5t-127.5 82t-84 125t-30 159.5zM218 994q0 -65 21.5 -120.5t60 -95.5t90.5 -62t116 -22 q65 0 119 23t91.5 63t58.5 93t21 115q0 65 -21.5 120t-59.5 95t-91.5 62t-115.5 22q-65 0 -118.5 -23t-91.5 -63t-59 -93t-21 -114zM339 819v334q0 26 12.5 41t40.5 15h125q34 0 64.5 -6t53.5 -19.5t37 -36.5t14 -56q0 -44 -25 -71.5t-67 -38.5q25 -7 44.5 -24.5t32.5 -51.5 l19 -57q7 -25 7 -34q0 -5 -2.5 -8t-10 -5t-21 -3t-34.5 -1t-34 1.5t-20.5 4.5t-10.5 7.5t-5 12.5l-17 65q-10 33 -22 44t-36 11h-23v-124q0 -13 -11.5 -17.5t-47.5 -4.5q-38 0 -50.5 5t-12.5 17zM461 1028h35q33 0 46 13.5t13 34.5q0 9 -3 17.5t-9.5 14t-17.5 9t-28 3.5h-36 v-92z" />
<glyph unicode="&#xb4;" horiz-adv-x="601" d="M0 938zM100.5 1086q1.5 10 9.5 22l140 224q7 11 16.5 18.5t24.5 12t37.5 6.5t54.5 2q45 0 70.5 -4t37 -11t10.5 -17t-10 -21l-189 -226q-8 -10 -16 -16.5t-20 -10t-30.5 -5.5t-47.5 -2q-34 0 -54 2.5t-27.5 9t-6 16.5z" />
<glyph unicode="&#xb8;" horiz-adv-x="606" d="M100 -260q0 39 7 54.5t27 15.5h113q28 0 42.5 12t14.5 33q0 12 -5 26.5t-12 30.5l-40 88h197l30 -64q17 -38 25 -66.5t8 -55.5q0 -45 -16.5 -77t-45 -52.5t-66.5 -30.5t-82 -10q-42 0 -79 5.5t-61 12.5t-34.5 12t-14.5 12.5t-6 20t-2 33.5z" />
<glyph unicode="&#xbb;" horiz-adv-x="1077" d="M148 883.5q1 8.5 11.5 14t32.5 8.5t58 3q28 0 46 -1t29.5 -4.5t18 -8.5t11.5 -13l216 -339q13 -20 12.5 -41t-16.5 -46l-200 -320q-6 -9 -12 -15t-18 -9.5t-29.5 -5t-45.5 -1.5q-36 0 -57.5 3t-32.5 9.5t-11.5 16.5t6.5 22l186 347l-199 360q-7 12 -6 20.5zM549.5 901 q0.5 10 10.5 17t31.5 11t58.5 4q28 0 46.5 -2t29.5 -5.5t18 -10t12 -15.5l219 -357q13 -21 12 -42.5t-16 -46.5l-208 -338q-6 -9 -12.5 -15t-18 -9.5t-29.5 -5.5t-47 -2q-36 0 -57.5 3.5t-32 10.5t-11 17t5.5 23l190 366l-195 374q-7 13 -6.5 23z" />
<glyph unicode="&#x2c6;" horiz-adv-x="802" d="M0 938zM101 1091.5q5 12.5 19 30.5l154 218q6 10 15.5 15t24.5 9t36.5 5.5t51.5 1.5q31 0 52.5 -2t35.5 -6t22.5 -9.5t15.5 -13.5l154 -218q14 -19 18.5 -31t-2.5 -19.5t-28 -10.5t-59 -3q-31 0 -49 1.5t-29.5 5t-17 10t-12.5 17.5l-102 146l-101 -146q-7 -11 -14 -18 t-18.5 -10t-29.5 -4.5t-48 -1.5q-39 0 -60 3t-27.5 10.5t-1.5 20z" />
<glyph unicode="&#x2da;" horiz-adv-x="655" d="M0 938zM100 1229q0 46 15 82.5t44.5 61t72.5 37.5t99 13q110 0 167.5 -48t57.5 -139q0 -46 -16 -82t-45.5 -61t-72.5 -38t-99 -13q-57 0 -98.5 12.5t-69.5 36.5t-41.5 59t-13.5 79zM246 1234q0 -40 19 -62.5t64 -22.5q40 0 60 22t20 60t-20 61t-64 23q-39 0 -59 -21.5 t-20 -59.5z" />
<glyph unicode="&#x2dc;" horiz-adv-x="888" d="M0 938zM99 1101q0 113 54.5 178t156.5 65q56 0 94 -17t68 -38t55.5 -38.5t52.5 -17.5q29 0 45 21t16 62q0 17 14.5 22.5t59.5 5.5q44 0 60 -7.5t16 -31.5q0 -118 -56 -181t-156 -63q-38 0 -67.5 7.5t-52.5 20.5t-42.5 27t-37 26t-34.5 20.5t-36 8.5q-32 0 -46 -23 t-14 -60q0 -9 -3.5 -14.5t-11.5 -8.5t-23.5 -3.5t-38.5 -0.5q-21 0 -35 1t-22.5 5.5t-12 12.5t-3.5 21z" />
<glyph unicode="&#x400;" horiz-adv-x="975" d="M62 1264zM138 81v1102q0 43 22 62t54 19h631q9 0 15.5 -5t11.5 -17.5t7.5 -31.5t2.5 -48q0 -27 -2.5 -46t-7.5 -31t-11.5 -17.5t-15.5 -5.5h-451v-308h381q9 0 16.5 -5.5t12.5 -16.5t7 -30t2 -47t-2 -46.5t-7 -30t-12.5 -16t-16.5 -4.5h-381v-357h455q9 0 16 -5.5t12 -17 t7.5 -30.5t2.5 -47t-2.5 -47.5t-7.5 -31t-12.5 -17t-15.5 -5.5h-635q-32 0 -54 19t-22 62zM163 1607.5q-4 11.5 5 21t34 15t70 5.5q36 0 60 -1.5t41 -6t30 -13.5t25 -24l176 -199q11 -14 13.5 -23.5t-6.5 -16t-28.5 -9t-52.5 -2.5q-30 0 -51 1.5t-35.5 6t-24.5 11t-20 15.5 l-217 195q-15 13 -19 24.5z" />
<glyph unicode="&#x401;" horiz-adv-x="975" d="M74 1264zM138 81v1102q0 43 22 62t54 19h631q9 0 15.5 -5t11.5 -17.5t7.5 -31.5t2.5 -48q0 -27 -2.5 -46t-7.5 -31t-11.5 -17.5t-15.5 -5.5h-451v-308h381q9 0 16.5 -5.5t12.5 -16.5t7 -30t2 -47t-2 -46.5t-7 -30t-12.5 -16t-16.5 -4.5h-381v-357h455q9 0 16 -5.5t12 -17 t7.5 -30.5t2.5 -47t-2.5 -47.5t-7.5 -31t-12.5 -17t-15.5 -5.5h-635q-32 0 -54 19t-22 62zM174 1494q0 69 27 96t102 27q76 0 101.5 -26t25.5 -93q0 -68 -26.5 -95.5t-101.5 -27.5t-101.5 26.5t-26.5 92.5zM600 1494q0 69 27 96t102 27t101.5 -26t26.5 -93q0 -68 -27 -95.5 t-103 -27.5q-75 0 -101 26.5t-26 92.5z" />
<glyph unicode="&#x402;" horiz-adv-x="1271" d="M12 1157q0 29 2.5 50t7 33.5t11.5 18t17 5.5h782q10 0 17 -5.5t12 -18t7.5 -33t2.5 -50.5q0 -28 -2.5 -48.5t-7.5 -33t-12 -17.5t-17 -5h-283v-306h209q122 0 201 -26t134.5 -72.5t86 -113.5t30.5 -149q0 -96 -32 -168.5t-89 -122t-137 -75t-186 -25.5h-24q-13 0 -21.5 4 t-14.5 14t-8 28.5t-2 46.5q0 35 1.5 56.5t6 33t11 15t14.5 3.5h25q53 0 86 12t56.5 34.5t36 55t12.5 74.5q0 46 -16.5 79.5t-44.5 55t-66.5 32t-105.5 10.5h-163v-516q0 -10 -6.5 -17t-21 -12t-39 -7.5t-61.5 -2.5t-62 2.5t-39.5 7.5t-21 12t-6.5 17v1020h-242q-10 0 -17 5 t-11.5 17.5t-7 32.5t-2.5 49z" />
<glyph unicode="&#x403;" horiz-adv-x="864" d="M138 33v1150q0 41 21 61t55 20h600q20 0 30 -24.5t10 -82.5q0 -29 -2.5 -49t-7.5 -32.5t-12.5 -17.5t-17.5 -5h-418v-1020q0 -10 -6.5 -17t-21 -12t-39 -7.5t-62.5 -2.5q-37 0 -62 2.5t-40 7.5t-21 12t-6 17zM275 1264zM376 1382q2 10 13 23l176 199q13 15 25 24t29 13.5 t41.5 6t60.5 1.5q45 0 70 -5.5t34.5 -15t4.5 -21t-19 -24.5l-217 -195q-10 -9 -20 -15.5t-24.5 -11t-35 -6t-51.5 -1.5q-33 0 -53 2.5t-28 9t-6 16.5z" />
<glyph unicode="&#x404;" horiz-adv-x="1077" d="M77 630q0 150 38.5 271t112.5 206.5t181.5 131.5t246.5 46q56 0 107 -9t93.5 -23t74 -30.5t42 -27.5t15 -20.5t7.5 -23t4.5 -32.5t1.5 -45q0 -54 -7 -74.5t-21 -20.5q-12 0 -34 15t-56.5 33t-86 33t-122.5 15q-75 0 -131.5 -25.5t-96 -70t-62 -105.5t-30.5 -128h519 q9 0 16 -5t12 -16.5t7.5 -30.5t2.5 -47q0 -27 -2.5 -46t-7.5 -30.5t-12 -17t-16 -5.5h-521q6 -82 27.5 -148t62.5 -113t102.5 -72.5t146.5 -25.5q66 0 114.5 15t83 33t55.5 32.5t33 14.5q6 0 11 -3.5t9.5 -13.5t7 -28t2.5 -46t-1.5 -48t-4 -33.5t-7.5 -24t-17.5 -22.5 t-46 -28t-78 -29.5t-96.5 -21t-105 -7.5q-139 0 -246 39.5t-180 120t-110.5 203t-37.5 288.5z" />
<glyph unicode="&#x405;" horiz-adv-x="945" d="M62 181q0 30 1.5 50.5t6 33t12 18t17.5 5.5q14 0 38.5 -16t63.5 -35.5t93.5 -35.5t125.5 -16q47 0 84 11t63 31.5t39.5 51t13.5 67.5q0 43 -23.5 73.5t-61 54.5t-85.5 45t-98.5 44.5t-98.5 53t-85.5 71t-61 98.5t-23.5 136q0 91 33.5 159.5t91 114t135 68t164.5 22.5 q45 0 90 -7t84 -18.5t69 -26t40 -24.5t13.5 -16.5t6 -18t3 -28.5t0.5 -43q0 -28 -1 -47.5t-4.5 -32t-10 -18.5t-17.5 -6t-34 13.5t-57.5 30t-79.5 29.5t-98 13q-42 0 -73.5 -10.5t-52.5 -28.5t-31 -43t-10 -54q0 -42 23 -72.5t61.5 -54.5t87 -45t99.5 -44.5t100 -53.5 t87 -71.5t61.5 -97.5t23.5 -132q0 -100 -37.5 -175t-100.5 -125.5t-148 -75.5t-182 -25q-65 0 -121.5 10.5t-99.5 25.5t-71.5 31.5t-41.5 29.5t-18 37t-5 69z" />
<glyph unicode="&#x406;" horiz-adv-x="533" d="M138 35v1194q0 10 6 17.5t21.5 12.5t39.5 8t62 3t62.5 -3t39 -8t21 -13t6.5 -17v-1194q0 -10 -6.5 -17.5t-21 -12.5t-39 -8t-62.5 -3q-37 0 -62 3t-40 8t-21 12.5t-6 17.5z" />
<glyph unicode="&#x407;" horiz-adv-x="533" d="M-174 1264zM-74 1494q0 69 27 96t102 27q76 0 101.5 -26t25.5 -93q0 -68 -26.5 -95.5t-101.5 -27.5t-101.5 26.5t-26.5 92.5zM138 35v1194q0 10 6 17.5t21.5 12.5t39.5 8t62 3t62.5 -3t39 -8t21 -13t6.5 -17v-1194q0 -10 -6.5 -17.5t-21 -12.5t-39 -8t-62.5 -3 q-37 0 -62 3t-40 8t-21 12.5t-6 17.5zM352 1494q0 69 27 96t102 27t101.5 -26t26.5 -93q0 -68 -27 -95.5t-103 -27.5q-75 0 -101 26.5t-26 92.5z" />
<glyph unicode="&#x408;" horiz-adv-x="662" d="M3 126q0 33 1.5 56t5 36t9.5 18.5t16 5.5q9 0 20.5 -6.5t26.5 -13t34.5 -13t45.5 -6.5t46.5 7.5t33.5 25.5t20 48t7 78v868q0 10 6 17.5t20.5 12.5t39.5 7.5t62 2.5t61.5 -2.5t40 -7.5t21.5 -12.5t6 -17.5v-878q0 -86 -16 -155t-54.5 -117.5t-101 -74t-154.5 -25.5 q-29 0 -58 4.5t-53 11.5t-41.5 15t-23 14t-9.5 13t-7 18t-4 28t-1 42z" />
<glyph unicode="&#x409;" horiz-adv-x="1791" d="M10 81q0 42 2 68t6.5 40t12.5 19t19 5q30 0 58 12t54 49t49.5 102t46.5 172t46 261t47 367q4 41 21.5 64.5t53.5 23.5h590q35 0 54.5 -20t19.5 -61v-383h166q149 0 235.5 -27t144 -77.5t87 -122t29.5 -158.5q0 -82 -27.5 -156.5t-86.5 -132.5t-154 -92t-261 -34h-312 q-16 0 -30 4.5t-24.5 14.5t-17 25.5t-6.5 36.5v972h-241q-27 -224 -55.5 -391t-61 -286t-71 -195.5t-87.5 -120.5t-111 -61t-142 -17q-16 0 -26.5 4.5t-16.5 16t-8.5 30.5t-2.5 48zM1090 199h139q95 0 139 17t70.5 45t38 64t11.5 75q0 51 -15 89t-44.5 62.5t-73 37 t-131.5 12.5h-134v-402z" />
<glyph unicode="&#x40a;" horiz-adv-x="1792" d="M138 33v1197q0 10 6 17.5t21 12.5t39.5 7.5t62.5 2.5t62.5 -2.5t39 -7.5t20.5 -12.5t6 -17.5v-467h441v467q0 10 6 17.5t20.5 12.5t39.5 7.5t62 2.5t62 -2.5t39.5 -7.5t20.5 -12.5t6 -17.5v-430h157q158 0 244.5 -27t144 -77.5t87 -122t29.5 -154.5q0 -86 -27.5 -160.5 t-86.5 -132.5t-154 -92t-268 -34h-304q-17 0 -31 4.5t-24 14.5t-16.5 25.5t-6.5 36.5v468h-441v-516q0 -10 -6 -17t-20.5 -12t-39 -7.5t-62.5 -2.5q-37 0 -62 2.5t-40 7.5t-21 12t-6 17zM1092 199h137q98 0 141.5 17t70.5 45t38 64t11 72q0 54 -14.5 92t-44.5 62.5t-74 37 t-131 12.5h-134v-402z" />
<glyph unicode="&#x40b;" horiz-adv-x="1264" d="M12 1158q0 29 2.5 50t7 33t11.5 17.5t17 5.5h769q9 0 16 -5.5t12.5 -17.5t7.5 -32.5t2 -50.5q0 -28 -2 -48.5t-7.5 -33t-12.5 -17.5t-16 -5h-270v-301h174q125 0 211 -25t144 -76.5t86.5 -131t28.5 -187.5v-301q0 -10 -5.5 -17t-20 -11.5t-39 -7t-61.5 -2.5 q-36 0 -60.5 2.5t-38.5 7t-20 11.5t-6 17v278q0 62 -14 106t-44 73t-76.5 42t-123.5 13h-135v-511q0 -10 -6.5 -17t-21 -12t-39 -7.5t-61.5 -2.5t-62 2.5t-39.5 7.5t-21 12t-6.5 17v1021h-242q-10 0 -17 5.5t-11.5 18.5t-7 33t-2.5 47z" />
<glyph unicode="&#x40c;" horiz-adv-x="1125" d="M138 35v1194q0 11 6 18.5t21 12.5t39.5 7.5t62.5 2.5t62.5 -2.5t39 -7.5t20.5 -12.5t6 -18.5v-474h57q44 0 77 11.5t60 37t49 66t43 100.5l85 252q5 14 11.5 23t21.5 14.5t40 8t67 2.5q38 0 63 -2.5t39 -7t19 -12t5 -18.5q0 -13 -4.5 -31t-14.5 -49l-85 -224 q-23 -62 -47 -106.5t-49.5 -75t-54.5 -50t-64 -32.5v-1q39 -17 70.5 -37.5t59.5 -53t53.5 -79.5t51.5 -115l104 -262q16 -40 18.5 -55t2.5 -25q0 -11 -5.5 -18t-21 -12t-41 -7.5t-65.5 -2.5q-42 0 -67.5 2.5t-41.5 8t-23.5 14.5t-11.5 23l-102 281q-21 62 -44.5 103.5 t-52 67.5t-64.5 36.5t-81 10.5h-57v-506q0 -11 -6 -18t-20.5 -12.5t-39 -8t-62.5 -2.5q-37 0 -62 2.5t-40 8t-21 12.5t-6 18zM355 1264zM456 1382q2 10 13 23l176 199q13 15 25 24t29 13.5t41.5 6t60.5 1.5q45 0 70 -5.5t34.5 -15t4.5 -21t-19 -24.5l-217 -195 q-10 -9 -20 -15.5t-24.5 -11t-35 -6t-51.5 -1.5q-33 0 -53 2.5t-28 9t-6 16.5z" />
<glyph unicode="&#x40d;" horiz-adv-x="1303" d="M138 35v1195q0 10 6 17.5t21.5 12.5t39.5 7.5t62 2.5t62.5 -2.5t39 -7.5t20.5 -12.5t6 -17.5v-669q0 -31 -1 -66.5t-3 -68.5h2q17 29 42 70t52 80l440 655q7 10 14.5 17.5t21 12.5t33 7t49.5 2q37 0 60 -2.5t36.5 -7.5t19 -12.5t5.5 -18.5v-1196q0 -10 -6.5 -17t-21 -12 t-39.5 -7.5t-62 -2.5t-62 2.5t-39 7.5t-20 12t-6 17v666q0 38 1 75t3 65h-2q-8 -14 -18.5 -32t-23 -38t-26.5 -41q-13 -20 -27 -40l-439 -656q-8 -11 -16 -18.5t-21.5 -12t-32.5 -6t-49 -1.5q-38 0 -61.5 2.5t-37 7.5t-18 12.5t-4.5 18.5zM215 1264zM316 1607.5 q-4 11.5 5 21t34 15t70 5.5q36 0 60 -1.5t41 -6t30 -13.5t25 -24l176 -199q11 -14 13.5 -23.5t-6.5 -16t-28.5 -9t-52.5 -2.5q-30 0 -51 1.5t-35.5 6t-24.5 11t-20 15.5l-217 195q-15 13 -19 24.5z" />
<glyph unicode="&#x40e;" horiz-adv-x="1094" d="M10 1222q-2 19 9.5 30t39.5 14.5t75 3.5q46 0 73 -2t44 -8.5t25.5 -18.5t17.5 -32l178 -383q29 -62 55.5 -122.5t50.5 -123.5h3q20 65 42 127.5t48 130.5l145 389q5 14 13 22t23.5 13t43 6.5t71.5 1.5q45 0 71 -3t38 -11.5t11 -23t-10 -38.5l-339 -845 q-43 -109 -84.5 -180.5t-88.5 -113t-103.5 -58t-128.5 -16.5q-26 0 -51.5 3.5t-48 9.5t-39 14t-24.5 14.5t-12.5 15t-7.5 22t-4 34.5t-1 52q0 57 8 81t26 24q9 0 19.5 -7t25.5 -14.5t35 -14t48 -6.5q21 0 38 4.5t33 17t31.5 35.5t32.5 60l-416 847q-14 30 -16 49zM99 1264z M199 1603q0 15 5 24t18 14.5t35 8t55 2.5q31 0 51.5 -3t31.5 -8.5t15 -15t4 -21.5q0 -23 9.5 -44t27.5 -36t44.5 -25t58.5 -10q31 0 56.5 9.5t43.5 24.5t27.5 36t9.5 46q0 12 4 21t15 14.5t30 8.5t48 3q35 0 58.5 -2.5t37 -8t19 -14.5t5.5 -24q0 -54 -19 -103.5t-60.5 -87 t-109 -60t-166.5 -22.5q-96 0 -163 20.5t-109.5 56t-62 86t-19.5 110.5z" />
<glyph unicode="&#x40f;" horiz-adv-x="1256" d="M138 81v1149q0 10 6 17.5t21 12.5t39.5 7.5t62.5 2.5t62.5 -2.5t39 -7.5t20.5 -12.5t6 -17.5v-1017h467v1017q0 10 6.5 17.5t21 12.5t39.5 7.5t62 2.5t62 -2.5t39.5 -7.5t20.5 -12.5t6 -17.5v-1149q0 -41 -20.5 -61t-54.5 -20h-303v-298q0 -10 -5.5 -16.5t-18.5 -11.5 t-34.5 -7t-55.5 -2q-32 0 -53.5 2t-35 7t-18 11.5t-4.5 16.5v298h-304q-34 0 -54 20t-20 61z" />
<glyph unicode="&#x410;" horiz-adv-x="1211" d="M25 42.5q3 20.5 15 55.5l390 1121q6 17 13.5 27t24.5 15.5t47.5 7t80.5 1.5q58 0 92 -1.5t53 -7t27 -16.5t14 -29l391 -1120q12 -35 14.5 -55.5t-8 -31t-38 -13t-75.5 -2.5q-50 0 -77.5 1.5t-42 6t-20.5 12t-10 20.5l-85 254h-475l-80 -247q-4 -14 -10 -23t-20.5 -14.5 t-40 -7.5t-67.5 -2q-45 0 -70.5 3t-35.5 14t-7 31.5zM413 485h358l-178 537h-1z" />
<glyph unicode="&#x411;" horiz-adv-x="1111" d="M139 84v1099q0 43 22 62t54 19h715q10 0 17 -5t12.5 -17.5t8 -31.5t2.5 -48q0 -27 -2.5 -46t-8 -31.5t-13 -17.5t-15.5 -5h-535v-315h209q122 0 201.5 -23.5t134 -69.5t84 -112t29.5 -150q0 -86 -29.5 -157.5t-88.5 -123.5t-150 -81.5t-235 -29.5h-333q-35 0 -57 19 t-22 65zM396 193h167q62 0 103 12t68.5 35.5t43 57.5t15.5 77q0 42 -13.5 75.5t-40 57.5t-68 37t-110.5 13h-165v-365z" />
<glyph unicode="&#x412;" horiz-adv-x="1121" d="M138 81v1102q0 43 22 62t54 19h317q116 0 197 -19.5t136 -59t84.5 -100.5t29.5 -143q0 -46 -12 -86.5t-34.5 -73.5t-55 -58.5t-74.5 -40.5q54 -10 99 -34.5t79 -63t53.5 -90.5t19.5 -116q0 -67 -18.5 -122t-51.5 -97t-78.5 -72t-100 -49.5t-116.5 -29t-138 -9.5h-336 q-32 0 -54 19t-22 62zM390 196h185q54 0 90.5 11.5t63.5 33.5t42 54.5t15 74.5q0 44 -14.5 78.5t-43 58t-72.5 36.5t-114 13h-152v-360zM390 743h143q56 0 89 13.5t55 36t33 53.5t11 65q0 38 -12 68.5t-35.5 50.5t-59 30.5t-94.5 10.5h-130v-328z" />
<glyph unicode="&#x413;" horiz-adv-x="864" d="M138 33v1150q0 41 21 61t55 20h600q20 0 30 -24.5t10 -82.5q0 -29 -2.5 -49t-7.5 -32.5t-12.5 -17.5t-17.5 -5h-418v-1020q0 -10 -6.5 -17t-21 -12t-39 -7.5t-62.5 -2.5q-37 0 -62 2.5t-40 7.5t-21 12t-6 17z" />
<glyph unicode="&#x414;" horiz-adv-x="1345" d="M12 156q-2 28 10 40.5t37 12.5h58q23 33 44.5 68t41 83.5t38.5 115.5t37.5 163.5t37.5 229t39 311.5q6 44 23 64t51 20h645q34 0 53.5 -20t19.5 -61v-974h108q26 0 37 -14t11 -40v-453q0 -10 -5 -16.5t-17.5 -11t-34 -7t-56.5 -2.5q-33 0 -54 2.5t-34 7t-18.5 11 t-5.5 16.5v298h-841v-298q0 -10 -5 -16.5t-18.5 -11t-35 -7t-54.5 -2.5t-54.5 2.5t-35 7t-18 11t-4.5 16.5v454zM380 209h512v848h-295q-18 -148 -35 -261t-34 -198t-34.5 -146.5t-36 -106.5t-38 -77.5t-39.5 -58.5z" />
<glyph unicode="&#x415;" horiz-adv-x="975" d="M138 81v1102q0 43 22 62t54 19h631q9 0 15.5 -5t11.5 -17.5t7.5 -31.5t2.5 -48q0 -27 -2.5 -46t-7.5 -31t-11.5 -17.5t-15.5 -5.5h-451v-308h381q9 0 16.5 -5.5t12.5 -16.5t7 -30t2 -47t-2 -46.5t-7 -30t-12.5 -16t-16.5 -4.5h-381v-357h455q9 0 16 -5.5t12 -17 t7.5 -30.5t2.5 -47t-2.5 -47.5t-7.5 -31t-12.5 -17t-15.5 -5.5h-635q-32 0 -54 19t-22 62z" />
<glyph unicode="&#x416;" horiz-adv-x="1665" d="M57 34q0 5 0.5 12t2.5 16t6 22t11 30l88 252q24 70 48.5 118.5t52 81.5t59.5 54t72 36v1q-34 11 -62.5 29.5t-53.5 49.5t-48 76.5t-45 111.5l-76 226q-11 31 -14.5 49.5t-3.5 30.5q0 11 5 18.5t19.5 12t39.5 7t64 2.5q41 0 66 -2.5t40 -8t21 -15t10 -22.5l80 -268 q17 -56 36 -94t44.5 -61.5t58.5 -33.5t79 -10h50v474q0 11 5.5 18.5t19.5 12.5t38.5 7.5t61.5 2.5t61.5 -2.5t38.5 -7.5t20 -12.5t6 -18.5v-474h50q44 0 77.5 11t59.5 35.5t45.5 62t35.5 91.5l80 267q4 14 10 23t21 14.5t40 8t66 2.5q39 0 63.5 -2.5t39.5 -7t20 -12t5 -18.5 q0 -13 -4.5 -31t-13.5 -49l-75 -222q-21 -62 -43.5 -107t-47.5 -75t-54 -50t-65 -34v-1q41 -18 73 -39.5t59.5 -55t51 -81.5t48.5 -119l87 -252q7 -18 11 -30.5t6 -21.5t3 -16t1 -12q0 -11 -5.5 -18t-21 -12t-41 -7.5t-65.5 -2.5q-41 0 -67.5 2.5t-41.5 8t-22.5 14.5 t-12.5 23l-91 286q-19 61 -40.5 101.5t-49.5 66t-62.5 35.5t-79.5 10h-50v-506q0 -11 -6 -18t-20 -12.5t-38.5 -8t-61.5 -2.5t-61.5 2.5t-38.5 8t-19.5 12.5t-5.5 18v506h-50q-48 0 -84 -12t-63.5 -38t-48 -66t-37.5 -97l-90 -286q-5 -14 -12.5 -23t-23 -14.5t-41.5 -8 t-67 -2.5t-66 2.5t-40.5 7.5t-21 12t-5.5 18z" />
<glyph unicode="&#x417;" horiz-adv-x="963" d="M61 198q0 41 7 55.5t22 14.5q12 0 33.5 -12.5t54.5 -28t80 -28t110 -12.5q53 0 96 12.5t72.5 36t46.5 56t17 72.5q0 44 -15.5 79.5t-47.5 59.5t-81.5 37.5t-118.5 13.5h-134q-15 0 -23.5 4t-14 14.5t-7 29.5t-1.5 50q0 28 2 46.5t7.5 29t13.5 15t20 4.5h136 q60 0 105.5 12t76.5 34.5t47 55.5t16 75q0 35 -11 64.5t-34.5 49.5t-60 31t-85.5 11q-59 0 -106 -12.5t-81.5 -27.5t-58.5 -28t-36 -13q-7 0 -11.5 4t-8.5 14t-5.5 27.5t-1.5 46.5q0 20 1 36.5t4 30t8 23.5t15 20t42 25.5t77.5 29t103.5 22t122 8.5q102 0 177.5 -21.5 t126.5 -62t76 -99.5t25 -135q0 -61 -16.5 -110.5t-47 -88t-73 -64t-94.5 -37.5v-2q60 -7 109 -33t84 -66t55 -91t20 -110q0 -96 -36.5 -168.5t-103.5 -122t-160 -73.5t-206 -24q-62 0 -114.5 8.5t-91 21.5t-62 26t-33.5 21t-15 17t-8 25t-4 40.5t-1 60.5z" />
<glyph unicode="&#x418;" horiz-adv-x="1303" d="M138 35v1195q0 10 6 17.5t21.5 12.5t39.5 7.5t62 2.5t62.5 -2.5t39 -7.5t20.5 -12.5t6 -17.5v-669q0 -31 -1 -66.5t-3 -68.5h2q17 29 42 70t52 80l440 655q7 10 14.5 17.5t21 12.5t33 7t49.5 2q37 0 60 -2.5t36.5 -7.5t19 -12.5t5.5 -18.5v-1196q0 -10 -6.5 -17t-21 -12 t-39.5 -7.5t-62 -2.5t-62 2.5t-39 7.5t-20 12t-6 17v666q0 38 1 75t3 65h-2q-8 -14 -18.5 -32t-23 -38t-26.5 -41q-13 -20 -27 -40l-439 -656q-8 -11 -16 -18.5t-21.5 -12t-32.5 -6t-49 -1.5q-38 0 -61.5 2.5t-37 7.5t-18 12.5t-4.5 18.5z" />
<glyph unicode="&#x419;" horiz-adv-x="1303" d="M138 35v1195q0 10 6 17.5t21.5 12.5t39.5 7.5t62 2.5t62.5 -2.5t39 -7.5t20.5 -12.5t6 -17.5v-669q0 -31 -1 -66.5t-3 -68.5h2q17 29 42 70t52 80l440 655q7 10 14.5 17.5t21 12.5t33 7t49.5 2q37 0 60 -2.5t36.5 -7.5t19 -12.5t5.5 -18.5v-1196q0 -10 -6.5 -17t-21 -12 t-39.5 -7.5t-62 -2.5t-62 2.5t-39 7.5t-20 12t-6 17v666q0 38 1 75t3 65h-2q-8 -14 -18.5 -32t-23 -38t-26.5 -41q-13 -20 -27 -40l-439 -656q-8 -11 -16 -18.5t-21.5 -12t-32.5 -6t-49 -1.5q-38 0 -61.5 2.5t-37 7.5t-18 12.5t-4.5 18.5zM208 1264zM308 1603q0 15 5 24 t18 14.5t35 8t55 2.5q31 0 51.5 -3t31.5 -8.5t15 -15t4 -21.5q0 -23 9.5 -44t27.5 -36t44.5 -25t58.5 -10q31 0 56.5 9.5t43.5 24.5t27.5 36t9.5 46q0 12 4 21t15 14.5t30 8.5t48 3q35 0 58.5 -2.5t37 -8t19 -14.5t5.5 -24q0 -54 -19 -103.5t-60.5 -87t-109 -60 t-166.5 -22.5q-96 0 -163 20.5t-109.5 56t-62 86t-19.5 110.5z" />
<glyph unicode="&#x41a;" horiz-adv-x="1125" d="M138 35v1194q0 11 6 18.5t21 12.5t39.5 7.5t62.5 2.5t62.5 -2.5t39 -7.5t20.5 -12.5t6 -18.5v-474h57q44 0 77 11.5t60 37t49 66t43 100.5l85 252q5 14 11.5 23t21.5 14.5t40 8t67 2.5q38 0 63 -2.5t39 -7t19 -12t5 -18.5q0 -13 -4.5 -31t-14.5 -49l-85 -224 q-23 -62 -47 -106.5t-49.5 -75t-54.5 -50t-64 -32.5v-1q39 -17 70.5 -37.5t59.5 -53t53.5 -79.5t51.5 -115l104 -262q16 -40 18.5 -55t2.5 -25q0 -11 -5.5 -18t-21 -12t-41 -7.5t-65.5 -2.5q-42 0 -67.5 2.5t-41.5 8t-23.5 14.5t-11.5 23l-102 281q-21 62 -44.5 103.5 t-52 67.5t-64.5 36.5t-81 10.5h-57v-506q0 -11 -6 -18t-20.5 -12.5t-39 -8t-62.5 -2.5q-37 0 -62 2.5t-40 8t-21 12.5t-6 18z" />
<glyph unicode="&#x41b;" horiz-adv-x="1257" d="M10 81q0 42 2 68t6.5 40t12.5 19t19 5q30 0 58 12t54 48.5t49.5 101.5t46.5 172t46 261t47 366q6 50 23.5 70t51.5 20h620q35 0 54 -20t19 -61v-1150q0 -10 -6 -17t-20.5 -12t-39.5 -7.5t-62 -2.5q-38 0 -62.5 2.5t-39 7.5t-20.5 12t-6 17v1020h-271q-27 -224 -55.5 -391 t-61 -286t-71 -195.5t-87.5 -120.5t-111 -61t-142 -17q-15 0 -25.5 4t-16.5 15t-9 30.5t-3 49.5z" />
<glyph unicode="&#x41c;" horiz-adv-x="1748" d="M138 35v1126q0 50 26 76.5t70 26.5h168q45 0 77.5 -7.5t56 -24.5t39 -45t27.5 -69l273 -753h4l283 751q13 41 28 69.5t35 46t47.5 25t63.5 7.5h173q26 0 45 -7t31.5 -20t18.5 -32t6 -44v-1126q0 -10 -5 -17.5t-19.5 -12.5t-38 -8t-59.5 -3q-35 0 -58.5 3t-37 8 t-19.5 12.5t-6 17.5v1028h-2l-366 -1027q-4 -13 -12.5 -21t-24 -13t-39 -6.5t-56.5 -1.5t-56.5 2.5t-38.5 8t-24 13t-12 18.5l-353 1027h-2v-1028q0 -10 -5.5 -17.5t-20 -12.5t-37.5 -8t-59 -3q-35 0 -58.5 3t-38 8t-19.5 12.5t-5 17.5z" />
<glyph unicode="&#x41d;" horiz-adv-x="1261" d="M138 35v1194q0 10 6 17.5t21 12.5t39.5 8t62.5 3t62.5 -3t39 -8t20.5 -13t6 -17v-464h472v464q0 10 6.5 17.5t20.5 12.5t39 8t63 3q37 0 61.5 -3t39 -8t21 -13t6.5 -17v-1194q0 -10 -6.5 -17.5t-21 -12.5t-39 -8t-61.5 -3q-38 0 -63 3t-39 8t-20.5 12.5t-6.5 17.5v511 h-472v-511q0 -10 -6 -17.5t-20.5 -12.5t-39 -8t-62.5 -3q-37 0 -62 3t-40 8t-21 12.5t-6 17.5z" />
<glyph unicode="&#x41e;" horiz-adv-x="1352" d="M78 624q0 153 39 275.5t116.5 208.5t191 132t263.5 46q144 0 254 -38t183.5 -117t111 -200t37.5 -285q0 -157 -39 -281t-116 -210.5t-191 -131.5t-263 -45q-147 0 -257 38.5t-183.5 117.5t-110 201t-36.5 289zM348 637q0 -104 15.5 -186.5t52.5 -141t99.5 -89.5 t157.5 -31t158.5 35.5t102.5 96t55 141t16 171.5q0 100 -15.5 181.5t-53.5 139.5t-100.5 89.5t-155.5 31.5q-95 0 -158.5 -35.5t-102.5 -95t-55 -139t-16 -168.5z" />
<glyph unicode="&#x41f;" horiz-adv-x="1259" d="M138 33v1150q0 41 20.5 61t54.5 20h835q35 0 54.5 -20t19.5 -61v-1150q0 -10 -6 -17t-20.5 -12t-39.5 -7.5t-62 -2.5t-62 2.5t-39.5 7.5t-21 12t-6.5 17v1017h-470v-1017q0 -10 -6.5 -17t-21 -12t-39 -7.5t-62.5 -2.5q-37 0 -62 2.5t-40 7.5t-20.5 12t-5.5 17z" />
<glyph unicode="&#x420;" horiz-adv-x="1064" d="M138 35v1137q0 46 24 69t63 23h297q45 0 85.5 -3.5t97.5 -15t115 -41.5t99 -76.5t62.5 -108.5t21.5 -139q0 -106 -33 -188.5t-96.5 -138.5t-156 -85.5t-217.5 -29.5h-105v-403q0 -10 -6.5 -17.5t-21 -12.5t-39 -8t-62.5 -3q-37 0 -62 3t-40 8t-20.5 12.5t-5.5 17.5z M395 637h115q62 0 103 16.5t67.5 46t40 71t13.5 90.5q0 66 -23 109.5t-57.5 64t-72 25.5t-77.5 5h-109v-428z" />
<glyph unicode="&#x421;" horiz-adv-x="1058" d="M77 615q0 161 43 286t120 210t185 129t238 44q53 0 101.5 -8.5t90 -23t75 -33t46.5 -31.5t18 -22t8 -22.5t4.5 -32t1.5 -46.5q0 -29 -2 -49.5t-7 -33t-12 -18.5t-15 -6q-15 0 -37.5 17t-58 38t-85 38t-117.5 17q-75 0 -134.5 -30.5t-101 -87.5t-63 -138.5t-21.5 -182.5 q0 -111 23 -193t65.5 -134.5t102.5 -78.5t136 -26q68 0 118 16t85.5 36t58.5 35.5t36 15.5q10 0 15.5 -4t9.5 -15.5t6 -33t2 -56.5q0 -24 -1.5 -41t-4.5 -29.5t-8 -21t-15.5 -20t-41.5 -29t-75.5 -33.5t-101.5 -27t-123 -11q-130 0 -234.5 40.5t-178 120t-112.5 198.5 t-39 277z" />
<glyph unicode="&#x422;" horiz-adv-x="990" d="M12 1158q0 29 2.5 50t7 33t11.5 17.5t17 5.5h890q9 0 16.5 -5.5t12.5 -17.5t7.5 -33t2.5 -50q0 -28 -2.5 -48t-7.5 -32.5t-12.5 -18t-16.5 -5.5h-316v-1019q0 -10 -6.5 -17.5t-21 -12.5t-39.5 -8t-62 -3t-62 3t-39.5 8t-21 12.5t-6.5 17.5v1019h-316q-10 0 -17 5.5 t-11.5 18t-7 32.5t-2.5 48z" />
<glyph unicode="&#x423;" horiz-adv-x="1094" d="M10 1222q-2 19 9.5 30t39.5 14.5t75 3.5q46 0 73 -2t44 -8.5t25.5 -18.5t17.5 -32l178 -383q29 -62 55.5 -122.5t50.5 -123.5h3q20 65 42 127.5t48 130.5l145 389q5 14 13 22t23.5 13t43 6.5t71.5 1.5q45 0 71 -3t38 -11.5t11 -23t-10 -38.5l-339 -845 q-43 -109 -84.5 -180.5t-88.5 -113t-103.5 -58t-128.5 -16.5q-26 0 -51.5 3.5t-48 9.5t-39 14t-24.5 14.5t-12.5 15t-7.5 22t-4 34.5t-1 52q0 57 8 81t26 24q9 0 19.5 -7t25.5 -14.5t35 -14t48 -6.5q21 0 38 4.5t33 17t31.5 35.5t32.5 60l-416 847q-14 30 -16 49z" />
<glyph unicode="&#x424;" horiz-adv-x="1447" d="M0 1264zM73 660q0 101 34 185.5t99.5 147.5t163.5 102.5t227 50.5v138q0 10 6 17t21 10.5t39.5 6t60.5 2.5t61 -2.5t39 -6t20.5 -10.5t6.5 -17v-138q129 -7 226.5 -40t163.5 -91.5t99.5 -145t33.5 -199.5q0 -106 -33.5 -192.5t-99.5 -149.5t-164 -101.5t-226 -48.5v-147 q0 -10 -6.5 -17t-20.5 -11.5t-39 -6.5t-61 -2q-37 0 -61 2t-39 6.5t-21 11.5t-6 17v147q-129 6 -227.5 37.5t-163.5 91t-99 147.5t-34 206zM332 671q0 -64 14 -115.5t45.5 -89t82.5 -61.5t127 -33v579q-75 -8 -126.5 -33t-83 -62.5t-45.5 -84.5t-14 -100zM847 372 q74 9 125 34t83 63t46 86.5t14 103.5q0 62 -13.5 112t-45 87.5t-82.5 60.5t-127 32v-579z" />
<glyph unicode="&#x425;" horiz-adv-x="1101" d="M38 41.5q6 20.5 24 55.5l303 551l-281 519q-18 35 -24 56t5 31.5t41.5 13t85.5 2.5q46 0 73 -2t42.5 -6.5t22 -12.5t12.5 -20l221 -417l216 417q6 12 12.5 20t20.5 12.5t39 6.5t69 2q49 0 77 -2.5t39 -13.5t5.5 -31.5t-21.5 -55.5l-282 -516l300 -554q18 -34 23 -55 t-6.5 -31.5t-42.5 -13.5t-85 -3q-46 0 -72.5 2t-41.5 6.5t-22 12t-12 19.5l-237 456l-236 -456q-6 -12 -13 -19.5t-22 -12t-42 -6.5t-71 -2q-51 0 -78.5 3t-37.5 13.5t-4 31z" />
<glyph unicode="&#x426;" horiz-adv-x="1315" d="M138 81v1149q0 10 6 17.5t21 12.5t39.5 7.5t62.5 2.5t62.5 -2.5t39 -7.5t20.5 -12.5t6 -17.5v-1017h466v1017q0 10 6.5 17.5t21 12.5t39.5 7.5t62 2.5q38 0 62.5 -2.5t39 -7.5t20.5 -12.5t6 -17.5v-1017h111q24 0 33.5 -11.5t9.5 -41.5v-458q0 -10 -4.5 -16.5t-17 -11 t-34.5 -7t-55 -2.5t-54.5 2.5t-34.5 7t-18.5 11t-5.5 16.5v298h-836q-34 0 -54 20t-20 61z" />
<glyph unicode="&#x427;" horiz-adv-x="1138" d="M75 868v361q0 10 6 17.5t20 12.5t38 8t60 3q37 0 62 -3t40.5 -8t22.5 -12.5t7 -17.5v-335q0 -59 12 -102t40.5 -71.5t75 -43t115.5 -14.5q44 0 86 3.5t84 8.5v554q0 10 7 17.5t22.5 12.5t40.5 8t61 3q37 0 61 -3t38 -8t20.5 -12.5t6.5 -17.5v-1195q0 -10 -6.5 -17 t-20.5 -12t-38 -8t-61 -3q-36 0 -61 3t-40.5 8t-22.5 12t-7 17v432q-52 -5 -101.5 -8.5t-100.5 -3.5q-104 0 -189.5 18.5t-147.5 65t-96 127t-34 203.5z" />
<glyph unicode="&#x428;" horiz-adv-x="1793" d="M138 81v1151q0 10 6 17t21 11.5t39.5 7t59.5 2.5q36 0 60 -2.5t38.5 -7t21 -11.5t6.5 -17v-1023h381v1023q0 10 6.5 17t20.5 11.5t38.5 7t59.5 2.5t59 -2.5t39 -7t21 -11.5t6 -17v-1023h383v1023q0 10 6.5 17t21 11.5t38.5 7t60 2.5q35 0 59 -2.5t39 -7t21.5 -11.5 t6.5 -17v-1151q0 -41 -19.5 -61t-54.5 -20h-1368q-34 0 -55 20t-21 61z" />
<glyph unicode="&#x429;" horiz-adv-x="1853" d="M138 81v1151q0 10 6 17t21 11.5t39.5 7t59.5 2.5q36 0 60 -2.5t38.5 -7t21 -11.5t6.5 -17v-1023h381v1023q0 10 6.5 17t20.5 11.5t38.5 7t59.5 2.5t59 -2.5t39 -7t21 -11.5t6 -17v-1023h383v1023q0 10 6.5 17t21 11.5t38.5 7t60 2.5q35 0 59 -2.5t39 -7t21.5 -11.5 t6.5 -17v-1023h107q25 0 36.5 -11.5t11.5 -41.5v-454q0 -10 -5.5 -16.5t-18.5 -11.5t-35.5 -7t-56.5 -2q-32 0 -53.5 2.5t-33.5 7t-17.5 11t-5.5 16.5v298h-1372q-34 0 -54.5 20t-20.5 61z" />
<glyph unicode="&#x42a;" horiz-adv-x="1278" d="M12 1158q0 60 10 83t29 23h437q39 0 62.5 -23t23.5 -69v-372h168q144 0 229 -25t144 -74t91 -120t32 -162q0 -90 -26.5 -165t-87 -131.5t-157 -89.5t-264.5 -33h-307q-16 0 -29.5 4.5t-24.5 14.5t-17.5 25.5t-6.5 36.5v973h-267q-10 0 -17 5t-12 17.5t-7.5 32t-2.5 49.5z M574 199h145q92 0 137 18t70.5 47t37 64t11.5 69q0 48 -13.5 85.5t-41.5 63.5t-72.5 40.5t-133.5 14.5h-140v-402z" />
<glyph unicode="&#x42b;" horiz-adv-x="1596" d="M138 81v1149q0 10 6 17.5t21.5 12.5t40 7.5t61.5 2.5q38 0 62.5 -2.5t39 -7.5t20.5 -12.5t6 -17.5v-436h159q142 0 226 -24.5t143 -72.5t92 -119t33 -161t-28 -164.5t-87.5 -130.5t-155.5 -89t-262 -33h-298q-17 0 -31 4.5t-25 14.5t-17 25.5t-6 36.5zM395 197h135 q90 0 135.5 18t71 47t36.5 64.5t11 69.5q0 47 -13.5 84t-42 63t-72.5 41t-130 15h-131v-402zM1201 33v1197q0 10 6.5 17.5t21.5 12.5t40 7.5t61 2.5q37 0 62 -2.5t39.5 -7.5t21 -12.5t6.5 -17.5v-1197q0 -10 -6.5 -17t-21 -12t-39.5 -7.5t-62 -2.5t-61.5 2.5t-39.5 7.5 t-21.5 12t-6.5 17z" />
<glyph unicode="&#x42c;" horiz-adv-x="1106" d="M138 81v1149q0 10 6 17.5t21.5 12.5t40 7.5t61.5 2.5q38 0 62.5 -2.5t39 -7.5t20.5 -12.5t6 -17.5v-430h176q144 0 229 -25t144 -74t91 -120t32 -162q0 -90 -26.5 -165t-86.5 -131.5t-157 -89.5t-265 -33h-315q-17 0 -31 4.5t-25 14.5t-17 25.5t-6 36.5zM395 199h153 q92 0 137 18t70.5 47t37 64t11.5 69q0 48 -14 85.5t-42 63.5t-72.5 40.5t-132.5 14.5h-148v-402z" />
<glyph unicode="&#x42d;" horiz-adv-x="1077" d="M70 193q0 48 9 69.5t25 21.5q12 0 32.5 -15t56 -32.5t88.5 -32.5t130 -15q69 0 125 22t96.5 67t64 112.5t27.5 157.5h-525q-10 0 -16.5 5.5t-11.5 17t-7.5 30.5t-2.5 46t2.5 47t7.5 31t11.5 16.5t16.5 5.5h522q-7 80 -32.5 141t-66.5 103t-98.5 63t-127.5 21 q-63 0 -112 -14.5t-84.5 -32t-58 -33t-33.5 -15.5q-6 0 -11 4.5t-9 15t-6.5 28t-2.5 43.5q0 29 1.5 50t4.5 34t7.5 22.5t13.5 18t37.5 24.5t72 30.5t98.5 24.5t121 10q130 0 234.5 -40.5t178 -121.5t113 -201.5t39.5 -279.5q0 -169 -38.5 -293.5t-112.5 -206.5 t-180.5 -122.5t-246.5 -40.5q-48 0 -98.5 7t-94.5 19.5t-79 29t-48.5 29.5t-18 22t-7.5 23t-4.5 34t-1.5 50z" />
<glyph unicode="&#x42e;" horiz-adv-x="1827" d="M138 33v1197q0 10 6 17.5t21.5 12.5t39.5 7.5t62 2.5t62.5 -2.5t39 -7.5t21 -12.5t6.5 -17.5v-473h199q14 122 56 220t114 166.5t173.5 105.5t233.5 37q138 0 245 -39t181 -118.5t112.5 -200.5t38.5 -285q0 -158 -37 -282.5t-112 -209.5t-185.5 -129t-258.5 -44 q-135 0 -237.5 36t-173 107.5t-109 178.5t-46.5 248h-194v-515q0 -10 -6.5 -17t-21 -12t-39 -7.5t-62.5 -2.5q-37 0 -62 2.5t-40 7.5t-21 12t-6 17zM849 640q0 -64 5.5 -122.5t20.5 -108.5t38.5 -91t58.5 -69t83 -44t110 -16q91 0 151 34.5t96 94t51.5 139.5t15.5 172 q0 99 -16 181t-52.5 141t-97 91.5t-150.5 32.5q-94 0 -154.5 -35.5t-96 -95t-49.5 -138t-14 -166.5z" />
<glyph unicode="&#x42f;" horiz-adv-x="1148" d="M62 32q0 10 3.5 24t14.5 43l95 248q19 49 38 85t43 64.5t51 48t59 31.5q-61 17 -107 43.5t-78 65.5t-48 89t-16 113q0 86 30 155.5t88.5 118.5t146 76t243.5 27h310q31 0 53 -19t22 -62v-1150q0 -10 -6 -17t-20 -12t-39 -7.5t-62 -2.5q-38 0 -62.5 2.5t-39.5 7.5t-21 12 t-6 17v473h-95q-59 0 -89.5 -12t-54.5 -36t-42.5 -61t-35.5 -86l-96 -274q-5 -12 -13 -20t-24 -13.5t-42.5 -7.5t-67.5 -2q-45 0 -70.5 3t-39.5 8.5t-18 12t-4 14.5zM382 884q0 -40 12.5 -74t39 -58.5t67.5 -38.5t117 -14h136v366h-132q-83 0 -124 -12.5t-67 -36.5 t-37.5 -57.5t-11.5 -74.5z" />
<glyph unicode="&#x430;" horiz-adv-x="987" d="M69 261q0 76 30 132t89 92.5t147 54.5t204 18h85v52q0 41 -8.5 72t-27.5 51.5t-50.5 30t-78.5 9.5q-62 0 -110 -13.5t-85 -30t-62 -30t-41 -13.5q-11 0 -19 6.5t-13.5 19.5t-8.5 31.5t-3 40.5q0 30 5 48t18.5 32t48 31t80 31.5t100 24t111.5 9.5q103 0 176 -20 t119.5 -61.5t68 -107t21.5 -155.5v-586q0 -14 -9.5 -21.5t-30.5 -11t-62 -3.5q-44 0 -64 3.5t-28.5 11.5t-8.5 21v70q-54 -58 -122.5 -90t-152.5 -32q-69 0 -127.5 18t-101 53.5t-66 88t-23.5 123.5zM310 269q0 -55 34.5 -86.5t95.5 -31.5q52 0 95.5 26.5t88.5 77.5v148h-94 q-60 0 -101.5 -8.5t-68 -26t-38.5 -42.5t-12 -57z" />
<glyph unicode="&#x431;" horiz-adv-x="1064" d="M0 938zM81 566q0 108 11.5 204t33 175.5t54 140t66.5 96.5t66.5 58t71.5 39t87 29.5t104 21.5l311 45q18 2 29 1t17 -11.5t7.5 -32t1.5 -61.5q0 -27 -1.5 -47t-7.5 -34.5t-16.5 -23t-25.5 -10.5l-287 -43q-40 -6 -70.5 -13t-53.5 -16.5t-40 -21t-33.5 -28t-30.5 -42 t-23.5 -56t-16.5 -66.5t-13 -75q26 27 59 50t70 39t78.5 25.5t87.5 9.5q96 0 166.5 -30.5t117 -87.5t69.5 -138t23 -185q0 -112 -33.5 -205t-95.5 -158.5t-148.5 -101t-192.5 -35.5q-117 0 -200.5 36t-137.5 108.5t-79 183.5t-25 260zM334 539q0 -92 10.5 -159.5 t34.5 -112.5t62.5 -66.5t94.5 -21.5q50 0 89 19t65.5 55.5t40 90t13.5 120.5q0 55 -9.5 101.5t-31 81t-57.5 54.5t-85 20q-33 0 -61.5 -8.5t-55.5 -25t-53.5 -40t-55.5 -54.5q-1 -12 -1 -25.5v-28.5z" />
<glyph unicode="&#x432;" horiz-adv-x="989" d="M123 95v751q0 45 18.5 68t56.5 27q24 2 56 4t69 3.5t77 2.5t81 1q104 0 180 -14.5t125.5 -44.5t73.5 -73.5t24 -101.5q0 -79 -42.5 -132t-121.5 -71q99 -18 151.5 -76t52.5 -150q0 -75 -28 -131.5t-84.5 -94.5t-141.5 -57.5t-200 -19.5q-38 0 -71 0.5t-63.5 1.5t-61.5 3 t-66 6q-46 4 -65.5 27.5t-19.5 70.5zM353 164q16 -2 32.5 -3.5t34.5 -2.5t35 -1.5t30 -0.5q52 0 89 9.5t60.5 27t34.5 42.5t11 55q0 31 -10.5 54.5t-34.5 39t-62.5 23t-92.5 7.5h-127v-250zM353 558h131q83 0 126.5 29.5t43.5 86.5q0 26 -9 46.5t-29.5 35t-54.5 21.5t-82 7 q-37 0 -69.5 -2t-56.5 -5v-219z" />
<glyph unicode="&#x433;" horiz-adv-x="708" d="M123 33v825q0 39 16.5 59.5t51.5 20.5h461q10 0 17 -5.5t12 -18.5t7.5 -34t2.5 -51t-2.5 -51t-7.5 -34t-12 -18t-17 -5h-283v-688q0 -10 -6 -17t-20 -12t-37.5 -7.5t-59.5 -2.5t-59.5 2.5t-37.5 7.5t-20 12t-6 17z" />
<glyph unicode="&#x434;" horiz-adv-x="1164" d="M24 151q0 29 10 39.5t38 10.5h48q31 41 58.5 93t51.5 128.5t44 183.5t38 256q2 18 6 32t12 24t20 15t30 5h538q35 0 51.5 -20.5t16.5 -59.5v-657h100q26 0 37.5 -10t11.5 -40v-436q0 -9 -5 -15.5t-17.5 -10.5t-33 -6.5t-52.5 -2.5q-30 0 -50.5 2.5t-32.5 6.5t-17.5 10.5 t-5.5 15.5v285h-684v-285q0 -9 -4.5 -15.5t-17.5 -10.5t-33 -6.5t-50 -2.5q-31 0 -51.5 2.5t-33.5 6.5t-18 10.5t-5 15.5v436zM361 201h378v540h-208q-17 -123 -36 -211.5t-40.5 -152t-45.5 -104.5t-48 -72z" />
<glyph unicode="&#x435;" horiz-adv-x="1006" d="M72 459q0 116 30.5 209.5t88 158.5t140 99t186.5 34q109 0 186.5 -32t127.5 -89.5t73.5 -135.5t23.5 -170v-39q0 -45 -20 -66.5t-55 -21.5h-531q0 -56 13.5 -101t42 -77t74 -48.5t109.5 -16.5t113 9.5t84.5 20.5t59 20.5t37.5 9.5q9 0 15 -3.5t10 -12.5t5.5 -25t1.5 -40 q0 -21 -1 -36.5t-3 -26.5t-6 -18t-10.5 -14t-34.5 -18.5t-72 -23t-100.5 -19.5t-121.5 -8q-116 0 -203.5 29t-146 88.5t-87.5 150.5t-29 213zM322 564h367q3 104 -41 163t-137 59q-47 0 -81.5 -17.5t-57.5 -47.5t-35.5 -70.5t-14.5 -86.5z" />
<glyph unicode="&#x436;" horiz-adv-x="1473" d="M47 23q0 8 4 21.5t14 38.5l84 191q21 50 43.5 84.5t47 58t50.5 39.5t57 28v2q-23 8 -47 21.5t-47 35.5t-45 56t-43 85l-69 169q-10 23 -14 36.5t-4 23.5q0 8 5 13.5t18 9t36 5.5t59 2q41 0 67 -2t40.5 -6t21 -11.5t10.5 -17.5l69 -190q16 -41 31.5 -69t34.5 -44.5 t42.5 -24t53.5 -7.5h49v343q0 8 6.5 13.5t21 8.5t38 5t56.5 2t56 -2t38 -5t21 -8.5t6 -13.5v-343h50q29 0 53 8t43.5 25t36 44.5t31.5 67.5l74 190q4 10 9.5 17.5t19.5 11.5t39 6t65 2q36 0 59 -2t36.5 -5.5t18.5 -9t5 -13.5q0 -10 -3.5 -23.5t-13.5 -36.5l-72 -169 q-21 -50 -43 -84.5t-44 -56.5t-44.5 -35t-45.5 -21v-2q30 -13 56.5 -28.5t49.5 -39t44.5 -58.5t42.5 -85l83 -191q6 -13 10 -22t6 -16.5t2.5 -12.5t0.5 -9q0 -8 -5.5 -13t-19.5 -8.5t-37.5 -5.5t-60.5 -2q-41 0 -67.5 2t-41 6t-21.5 11t-11 15l-81 206q-17 43 -33.5 72 t-36.5 46t-45 24.5t-59 7.5h-50v-360q0 -8 -6 -13.5t-21 -9t-37.5 -5.5t-56.5 -2q-33 0 -56.5 2t-38 5.5t-21 9.5t-6.5 13v360h-49q-35 0 -60 -7.5t-45.5 -24.5t-37.5 -46t-33 -72l-80 -206q-4 -9 -11 -15.5t-21.5 -10.5t-40.5 -6t-67 -2q-36 0 -59.5 2t-37.5 5.5t-20 9 t-6 12.5z" />
<glyph unicode="&#x437;" horiz-adv-x="853" d="M57 158q0 22 2 36t5 23t8 12t12 3q13 0 33 -12t50.5 -26t75 -27t107.5 -13q43 0 75.5 9t54.5 25t33 39.5t11 52.5q0 27 -10.5 49t-35.5 37t-65.5 22.5t-99.5 7.5h-93q-13 0 -21 4.5t-12.5 14.5t-6 26.5t-1.5 39.5q0 22 2 37.5t6 24.5t11.5 13t18.5 4h91q53 0 91 7.5 t62 22.5t35.5 37t11.5 52q0 25 -11 45t-30.5 33.5t-47 19.5t-61.5 6q-56 0 -99 -12t-75.5 -27t-53.5 -26.5t-31 -11.5q-6 0 -11 2.5t-9.5 11t-7 23t-2.5 38.5q0 38 5.5 61t17.5 35.5t43 27.5t72.5 27t91 20t100.5 8q80 0 146.5 -15.5t113 -47.5t71.5 -79t25 -108 q0 -37 -12 -71.5t-33.5 -62t-52 -49t-70.5 -33.5l-1 -2q42 -5 78.5 -23.5t64.5 -46.5t44 -66t16 -82q0 -72 -30 -127t-85 -93t-132.5 -57t-174.5 -19q-50 0 -95.5 7t-84.5 18.5t-64 23.5t-36.5 21.5t-17 18.5t-8 21t-3.5 29t-1 41z" />
<glyph unicode="&#x438;" horiz-adv-x="1113" d="M123 31v874q0 9 5.5 16.5t19.5 12t37 7t58 2.5q69 0 97.5 -9.5t28.5 -28.5v-386q0 -40 -3 -83t-8 -83q23 39 48 77.5t52 74.5l297 400q8 11 16.5 18.5t22 11.5t32.5 6t49 2q34 0 56.5 -2t35.5 -6.5t18 -12.5t5 -18v-874q0 -10 -5.5 -16.5t-19 -11t-36.5 -6.5t-58 -2 t-59 2t-39 6.5t-21.5 11.5t-6.5 16v389q0 41 2.5 85t7.5 86q-23 -41 -50.5 -80.5t-56.5 -78.5l-294 -400q-9 -11 -16.5 -18t-19.5 -11.5t-30.5 -6t-48.5 -1.5q-35 0 -57 2t-35 6.5t-18.5 11.5t-5.5 17z" />
<glyph unicode="&#x439;" horiz-adv-x="1113" d="M109 938zM123 31v874q0 9 5.5 16.5t19.5 12t37 7t58 2.5q69 0 97.5 -9.5t28.5 -28.5v-386q0 -40 -3 -83t-8 -83q23 39 48 77.5t52 74.5l297 400q8 11 16.5 18.5t22 11.5t32.5 6t49 2q34 0 56.5 -2t35.5 -6.5t18 -12.5t5 -18v-874q0 -10 -5.5 -16.5t-19 -11t-36.5 -6.5 t-58 -2t-59 2t-39 6.5t-21.5 11.5t-6.5 16v389q0 41 2.5 85t7.5 86q-23 -41 -50.5 -80.5t-56.5 -78.5l-294 -400q-9 -11 -16.5 -18t-19.5 -11.5t-30.5 -6t-48.5 -1.5q-35 0 -57 2t-35 6.5t-18.5 11.5t-5.5 17zM209 1320q0 15 5 24.5t18 15t35 8t55 2.5q31 0 51.5 -3t31.5 -9 t15 -15.5t4 -22.5q0 -26 9.5 -48.5t27.5 -38.5t44.5 -25.5t58.5 -9.5q31 0 56.5 9t43.5 25.5t27.5 39.5t9.5 50q0 12 4 21t15 15t30 9t48 3q35 0 58.5 -2.5t37 -8t19 -15t5.5 -24.5q0 -58 -19 -108.5t-60.5 -89t-109 -61t-166.5 -22.5q-96 0 -163 20.5t-109.5 57t-62 89 t-19.5 114.5z" />
<glyph unicode="&#x43a;" horiz-adv-x="989" d="M123 28v882q0 7 6.5 13.5t21 10.5t38 6.5t57.5 2.5q33 0 56.5 -2.5t38 -6.5t21.5 -10.5t7 -13.5v-339h50q30 0 54.5 7.5t44.5 24.5t37 45.5t33 70.5l73 187q3 10 10 17.5t21 11.5t39 6t66 2q36 0 59 -2t36 -5.5t18 -9t5 -13.5q0 -10 -4 -23.5t-14 -36.5l-69 -166 q-21 -50 -43.5 -85t-46.5 -57.5t-48.5 -36t-46.5 -21.5v-2q30 -13 56.5 -27.5t50 -38t45.5 -58t44 -83.5l85 -195q6 -13 9.5 -22t5 -16.5t2 -12.5t0.5 -9q0 -8 -5 -13t-19 -8.5t-38 -5.5t-60 -2q-41 0 -67 2t-42 5.5t-22.5 10.5t-10.5 16l-81 208q-15 42 -32 70.5 t-37.5 45.5t-47 24.5t-60.5 7.5h-50v-356q0 -7 -7 -13t-21.5 -11t-38 -7.5t-56.5 -2.5q-34 0 -57.5 2.5t-38 7.5t-21 11t-6.5 13z" />
<glyph unicode="&#x43b;" horiz-adv-x="1051" d="M20 91q0 36 1 58.5t5 34.5t11 16t17 4q27 0 52 11.5t47 40t41.5 76t36 119.5t31 172.5t28.5 232.5q2 40 17 60t49 20h505q34 0 51 -20t17 -60v-823q0 -10 -6 -17t-19.5 -12t-37.5 -7.5t-59 -2.5q-36 0 -60 2.5t-38.5 7.5t-19.5 12t-5 17v704h-177q-16 -153 -39 -268.5 t-53 -199.5t-66.5 -139.5t-80.5 -87.5t-95.5 -46t-108.5 -14q-14 0 -22.5 4t-13.5 15.5t-6.5 33t-1.5 56.5z" />
<glyph unicode="&#x43c;" horiz-adv-x="1426" d="M75 38l86 816q5 42 27.5 63t68.5 21h124q39 0 66.5 -6t48 -21t34 -40t24.5 -63l97 -299q9 -29 18 -61t17.5 -63.5t16 -61.5t13.5 -56h1q6 26 13.5 57t16 63.5t17.5 63.5t18 59l98 298q10 35 21.5 60t30 40t46 22.5t67.5 7.5h123q47 0 70 -21t27 -63l87 -816 q2 -24 -22.5 -34t-87.5 -10q-38 0 -61 1t-35 5t-16.5 11.5t-5.5 18.5l-52 468q-3 25 -5.5 56.5t-4.5 63.5l-4 64t-5 57l1 25q-7 -26 -15.5 -57.5t-18 -64t-18.5 -64t-17 -57.5l-153 -482q-4 -12 -12 -20.5t-22 -14t-36 -8t-55 -2.5q-30 0 -51 2.5t-35.5 8t-22 14t-10.5 21.5 l-150 481q-8 25 -17 56.5t-18 64t-17.5 64t-14.5 58.5l1 -25q-2 -25 -4 -57t-5 -64t-6 -63.5t-4 -56.5l-50 -462q-2 -13 -7 -21t-18.5 -13t-37 -6.5t-61.5 -1.5q-34 0 -54.5 2t-32 7.5t-15 13.5t-2.5 21z" />
<glyph unicode="&#x43d;" horiz-adv-x="1090" d="M123 33v871q0 10 6 17.5t20 12t37.5 7t59.5 2.5t59.5 -2.5t37.5 -7t20 -12t6 -17.5v-326h353v326q0 10 5.5 17.5t19.5 12t38 7t60 2.5q35 0 59 -2.5t37.5 -7t19.5 -12t6 -17.5v-871q0 -10 -6 -17t-19.5 -12t-37.5 -7.5t-59 -2.5q-36 0 -60 2.5t-38 7.5t-19.5 12t-5.5 17 v343h-353v-343q0 -10 -6 -17t-20 -12t-37.5 -7.5t-59.5 -2.5t-59.5 2.5t-37.5 7.5t-20 12t-6 17z" />
<glyph unicode="&#x43e;" horiz-adv-x="1075" d="M70 460q0 111 30 203.5t89.5 158.5t149 102t209.5 36q117 0 203 -32t142 -93.5t83.5 -151t27.5 -205.5q0 -111 -29.5 -203t-89 -158.5t-149.5 -102.5t-210 -36q-116 0 -202 32t-142.5 93.5t-84 151.5t-27.5 205zM323 471q0 -64 11 -118.5t35 -94.5t65 -62t101 -22 q56 0 97 20t67.5 58t39 92.5t12.5 123.5q0 64 -10.5 118.5t-34.5 94.5t-64.5 62.5t-102.5 22.5q-55 0 -96 -20t-67 -59t-39.5 -93t-13.5 -123z" />
<glyph unicode="&#x43f;" horiz-adv-x="1068" d="M123 33v825q0 39 16.5 59.5t51.5 20.5h686q34 0 50.5 -20.5t16.5 -59.5v-825q0 -10 -5.5 -17t-20 -12t-38 -7.5t-59.5 -2.5q-35 0 -59 2.5t-38.5 7.5t-20 12t-5.5 17v701h-329v-701q0 -10 -6.5 -17t-20.5 -12t-37.5 -7.5t-59.5 -2.5t-59.5 2.5t-37.5 7.5t-19.5 12 t-5.5 17z" />
<glyph unicode="&#x440;" horiz-adv-x="1073" d="M123 -312v1216q0 10 5 17.5t17 12t32 7t51 2.5q29 0 49 -2.5t32 -7t17 -12t5 -17.5v-102q38 39 74.5 68.5t75 49.5t79 30t86.5 10q96 0 163 -37.5t109.5 -103t62 -152.5t19.5 -186q0 -116 -25 -209t-73 -158.5t-119 -100.5t-163 -35q-38 0 -69.5 7t-61.5 22t-59.5 37.5 t-60.5 53.5v-410q0 -10 -6 -18t-20 -13.5t-37.5 -8t-59.5 -2.5t-59.5 2.5t-37.5 8t-20 13.5t-6 18zM369 323q52 -65 99 -100.5t97 -35.5q48 0 82 24t55.5 63.5t31.5 89.5t10 100q0 56 -8 107t-28 91t-53 64t-82 24q-24 0 -48 -7.5t-49 -24t-51.5 -43t-55.5 -65.5v-287z" />
<glyph unicode="&#x441;" horiz-adv-x="836" d="M70 452q0 131 33 226t91.5 157.5t138.5 93t176 30.5q39 0 76.5 -7t70 -18.5t58.5 -26t37 -25.5t15.5 -18.5t6.5 -19t3.5 -28.5t1.5 -42q0 -57 -9.5 -79.5t-25.5 -22.5q-17 0 -35.5 13.5t-43.5 30t-60.5 30.5t-83.5 14q-96 0 -147 -74t-51 -216q0 -70 13 -124t37.5 -90 t62.5 -54t87 -18q51 0 87.5 15t64 33.5t46 33.5t31.5 15q9 0 14.5 -5t9 -18t5.5 -33.5t2 -52.5q0 -25 -1.5 -42.5t-4 -29t-5.5 -19t-15 -18.5t-40 -27t-64.5 -29t-79 -20.5t-87.5 -7.5q-101 0 -178.5 31t-130 92t-79.5 149t-27 201z" />
<glyph unicode="&#x442;" horiz-adv-x="779" d="M9 832q0 29 3 49t7.5 33t11.5 18.5t17 5.5h683q9 0 16.5 -5.5t12.5 -18.5t7.5 -34t2.5 -51q0 -32 -2.5 -53.5t-7.5 -34t-12.5 -17.5t-16.5 -5h-219v-686q0 -10 -6 -17t-19.5 -12t-37.5 -7.5t-60 -2.5q-35 0 -58.5 2.5t-38 7.5t-19.5 12t-5 17v686h-220q-10 0 -17.5 5 t-12 18t-7 35.5t-2.5 54.5z" />
<glyph unicode="&#x443;" horiz-adv-x="947" d="M21 897q0 18 12 28.5t40 14t73 3.5q42 0 66.5 -1.5t38.5 -7t20.5 -18t13.5 -34.5l205 -583h3l188 595q6 25 15 33.5t30.5 12t75.5 3.5q42 0 69.5 -3.5t41 -14.5t13.5 -29t-8 -42l-290 -854l-106 -309q-9 -24 -47.5 -34.5t-114.5 -10.5q-39 0 -62.5 3t-35 11t-12.5 19.5 t6 28.5l116 292q-13 6 -23 18t-15 26l-300 801q-13 34 -13 52z" />
<glyph unicode="&#x444;" horiz-adv-x="1350" d="M64 461q0 107 33 196t95.5 154t153.5 103.5t207 45.5v314q0 10 5.5 18t20 13.5t38 8t59.5 2.5q35 0 59 -2.5t37.5 -8t19.5 -13.5t6 -18v-314q120 -5 211.5 -40t153 -96.5t92.5 -149.5t31 -198q0 -107 -32 -196t-94.5 -153.5t-154 -103.5t-207.5 -45v-290q0 -10 -6 -18 t-19.5 -13.5t-37.5 -8t-59 -2.5q-36 0 -59.5 2.5t-38 8t-20 13.5t-5.5 18v290q-119 5 -210.5 39.5t-153 96t-93.5 149.5t-32 198zM315 471q0 -64 13.5 -116.5t41.5 -90t73 -61t110 -30.5v591q-114 -9 -176 -81t-62 -212zM798 174q114 9 175.5 81.5t61.5 210.5 q0 132 -55 208.5t-182 90.5v-591z" />
<glyph unicode="&#x445;" horiz-adv-x="918" d="M31.5 23.5q-0.5 10.5 8.5 27.5l241 428l-222 403q-9 18 -9.5 30t12 19t40.5 9.5t76 2.5q43 0 68.5 -1.5t40.5 -4t21.5 -9t11.5 -16.5l156 -291l154 291q3 8 9 14t18.5 9.5t34.5 5.5t60 2q43 0 69 -2t37 -8.5t10.5 -19t-11.5 -31.5l-216 -396l239 -435q8 -17 7.5 -27.5 t-14.5 -17.5t-42 -9.5t-75 -2.5q-44 0 -71 1.5t-42 6t-22.5 11t-11.5 15.5l-161 310l-161 -310q-4 -10 -10.5 -16t-21 -10.5t-40 -6t-66.5 -1.5q-43 0 -68 2.5t-37 9.5t-12.5 17.5z" />
<glyph unicode="&#x446;" horiz-adv-x="1124" d="M123 79v825q0 10 6 17.5t20 12t37.5 7t59.5 2.5t59.5 -2.5t37.5 -7t20 -12t6 -17.5v-699h331v699q0 10 6 17.5t20 12t38 7t59 2.5q36 0 59.5 -2.5t38 -7t20 -12t5.5 -17.5v-699h101q27 0 37.5 -10t10.5 -39v-447q-1 -14 -26.5 -21.5t-79.5 -7.5q-57 0 -82 7.5t-25 21.5 v291h-691q-35 0 -51.5 20t-16.5 59z" />
<glyph unicode="&#x447;" horiz-adv-x="976" d="M47 624v280q0 10 5.5 17.5t19.5 12t37.5 7t59.5 2.5t59.5 -2.5t37.5 -7t19.5 -12t5.5 -17.5v-243q0 -64 10 -94t27.5 -48t42.5 -25.5t59 -7.5q47 0 91 11.5t87 32.5v374q0 10 5.5 17.5t19.5 12t38 7t60 2.5q35 0 59 -2.5t38 -7t20 -12t6 -17.5v-871q0 -10 -6 -17t-20 -12 t-37.5 -7.5t-59.5 -2.5t-60 2.5t-38 7.5t-19.5 12t-5.5 17v300q-48 -21 -102 -31t-119 -10q-99 0 -164 23.5t-104.5 65.5t-55.5 98.5t-16 144.5z" />
<glyph unicode="&#x448;" horiz-adv-x="1526" d="M123 79v825q0 10 6 17.5t20.5 12t38.5 7t60 2.5t59 -2.5t36 -7t18.5 -12t5.5 -17.5v-699h277v699q0 10 4.5 17.5t17 12t35.5 7t58 2.5t59 -2.5t37 -7t19 -12t6 -17.5v-699h276v699q0 10 5.5 17.5t19 12t36.5 7t58 2.5q36 0 60 -2.5t38.5 -7t20.5 -12t6 -17.5v-825 q0 -39 -16.5 -59t-51.5 -20h-1141q-35 0 -51.5 20t-16.5 59z" />
<glyph unicode="&#x449;" horiz-adv-x="1578" d="M123 79v825q0 10 6 17.5t20.5 12t38.5 7t60 2.5t59 -2.5t36 -7t18.5 -12t5.5 -17.5v-699h277v699q0 10 4.5 17.5t17 12t35.5 7t58 2.5q36 0 59.5 -2.5t36.5 -7t19 -12t6 -17.5v-699h276v699q0 10 5.5 17.5t19 12t36.5 7t58 2.5q36 0 60 -2.5t38.5 -7t20.5 -12t6 -17.5 v-699h99q27 0 39 -10t11 -39v-447q0 -7 -5.5 -12.5t-17.5 -9t-31.5 -5.5t-49.5 -2q-31 0 -52 2t-33.5 5t-18 8.5t-5.5 12.5v292h-1144q-36 0 -52.5 20t-16.5 59z" />
<glyph unicode="&#x44a;" horiz-adv-x="1116" d="M9 831q0 60 10 83.5t29 23.5h400q26 0 41 -14.5t15 -44.5v-243q34 3 70 5t78 2q110 0 190.5 -22t132.5 -63t77 -99.5t25 -132.5q0 -77 -28 -141t-86.5 -109.5t-147.5 -70.5t-213 -25q-32 0 -66 0.5t-66.5 2t-64 3.5t-58.5 5q-47 5 -67.5 28.5t-20.5 71.5v629h-211 q-10 0 -17 5t-11.5 19t-7.5 35t-3 52zM504 172q28 -3 58 -5t66 -2q100 0 145 39t45 108q0 34 -10 61t-33 46t-60.5 29t-91.5 10q-34 0 -64.5 -1.5t-54.5 -3.5v-281z" />
<glyph unicode="&#x44b;" horiz-adv-x="1423" d="M123 91v813q0 10 6 17.5t19.5 12t36 7t55.5 2.5q70 0 99.5 -9.5t29.5 -29.5v-268q33 3 67.5 5t76.5 2q107 0 185 -22t129 -63t76 -99.5t25 -132.5q0 -77 -28 -141t-84.5 -109.5t-144.5 -70.5t-209 -25q-32 0 -65.5 0.5t-65 2t-62 3.5t-57.5 5q-47 5 -68 28.5t-21 71.5z M369 172q28 -3 55.5 -5t63.5 -2q98 0 143.5 39t45.5 108q0 34 -10.5 61t-33.5 46t-60 29t-91 10q-33 0 -60.5 -1.5t-52.5 -3.5v-281zM1055 33v871q0 10 5.5 17.5t20 12t38 7t58.5 2.5q37 0 60.5 -2.5t37 -7t19.5 -12t6 -17.5v-871q0 -10 -6 -17t-19.5 -12t-37 -7.5 t-60.5 -2.5q-35 0 -58.5 2.5t-38 7.5t-20 12t-5.5 17z" />
<glyph unicode="&#x44c;" horiz-adv-x="989" d="M123 91v813q0 10 6 17.5t20 12t37.5 7t58.5 2.5q36 0 59.5 -2.5t37.5 -7t20.5 -12t6.5 -17.5v-268q33 3 72 5t80 2q110 0 191.5 -22t133.5 -63t78 -99.5t26 -132.5q0 -77 -28.5 -141t-88.5 -109.5t-150 -70.5t-213 -25q-32 0 -66.5 0.5t-67.5 2t-65 3.5t-59 5 q-47 5 -68 28.5t-21 71.5zM369 172q28 -3 60 -5t68 -2q100 0 147 39t47 108q0 34 -10.5 61t-34.5 46t-61.5 29t-92.5 10q-34 0 -66 -1.5t-57 -3.5v-281z" />
<glyph unicode="&#x44d;" horiz-adv-x="874" d="M62 161q0 50 7.5 67t22.5 17q12 0 28.5 -13t44.5 -28.5t70.5 -29t105.5 -13.5q99 0 154.5 58.5t63.5 176.5h-382q-14 0 -22 18t-8 63t8 64t22 19h380q-5 50 -21.5 90t-45 68.5t-68.5 44t-92 15.5t-90.5 -13.5t-66.5 -29.5t-46 -30t-26 -14q-7 0 -13 4.5t-10 15.5t-6 28.5 t-2 44.5q0 23 1.5 38.5t4 25t6 15.5t12 14.5t33 23t61.5 27.5t82.5 22.5t98.5 9.5q96 0 175.5 -29.5t137 -89t90 -149t32.5 -208.5q0 -121 -29 -215t-85.5 -159t-140.5 -98.5t-195 -33.5q-52 0 -96 7t-78.5 18.5t-58.5 25.5t-34 23t-14 15t-7 18t-3.5 29.5t-0.5 46.5z" />
<glyph unicode="&#x44e;" horiz-adv-x="1505" d="M123 33v871q0 10 6 17.5t20 12t37.5 7t59.5 2.5t59.5 -2.5t37.5 -7t20 -12t6 -17.5v-335h162q11 89 44.5 161.5t90 123t137 78.5t184.5 28q113 0 197.5 -32.5t140 -94.5t83.5 -152t28 -202q0 -110 -31.5 -202.5t-90.5 -159t-145 -103t-197 -36.5q-107 0 -187 26 t-134.5 78t-84.5 128t-38 174h-159v-351q0 -10 -6 -17t-20 -12t-37.5 -7.5t-59.5 -2.5t-59.5 2.5t-37.5 7.5t-20 12t-6 17zM771 472q0 -65 9 -120t32 -94.5t61.5 -61.5t99.5 -22q50 0 89 18t65.5 54.5t40.5 92.5t14 131q0 62 -9.5 116t-32.5 94t-62 63t-99 23 q-54 0 -93 -21.5t-65 -60t-38 -92.5t-12 -120z" />
<glyph unicode="&#x44f;" horiz-adv-x="996" d="M42 24q0 11 7.5 31t27.5 65l60 138q26 61 64 102t87 61q-92 21 -145 79.5t-53 151.5q0 69 28 124.5t83 93.5t137 58.5t190 20.5q30 0 67 -1t74.5 -3t74 -4.5t65.5 -4.5q32 -2 47.5 -22t15.5 -53v-828q0 -11 -4.5 -18t-17.5 -12t-37 -7t-63 -2q-35 0 -58.5 2t-37.5 7 t-19.5 12t-5.5 18v329h-65q-45 0 -71 -8t-48 -28t-40.5 -53t-37.5 -83l-57 -149q-6 -15 -14.5 -24t-24.5 -14t-41.5 -7t-64.5 -2q-34 0 -57.5 1t-38 4t-21 9t-6.5 16zM335 649q0 -30 10 -54t32 -40t56 -24.5t90 -8.5h106v250q-27 5 -56.5 7t-54.5 2q-52 0 -87 -9.5t-56 -27 t-30.5 -42t-9.5 -53.5z" />
<glyph unicode="&#x450;" horiz-adv-x="1006" d="M72 459q0 116 30.5 209.5t88 158.5t140 99t186.5 34q109 0 186.5 -32t127.5 -89.5t73.5 -135.5t23.5 -170v-39q0 -45 -20 -66.5t-55 -21.5h-531q0 -56 13.5 -101t42 -77t74 -48.5t109.5 -16.5t113 9.5t84.5 20.5t59 20.5t37.5 9.5q9 0 15 -3.5t10 -12.5t5.5 -25t1.5 -40 q0 -21 -1 -36.5t-3 -26.5t-6 -18t-10.5 -14t-34.5 -18.5t-72 -23t-100.5 -19.5t-121.5 -8q-116 0 -203.5 29t-146 88.5t-87.5 150.5t-29 213zM115 938zM214.5 1339q-0.5 10 10.5 17t37.5 11t71.5 4q32 0 54 -2t36.5 -6.5t24 -12t17.5 -18.5l139 -224q9 -13 11 -22.5 t-6.5 -16t-27.5 -9t-53 -2.5q-28 0 -46.5 2t-31.5 5.5t-21 10t-16 16.5l-189 226q-10 11 -10.5 21zM322 564h367q3 104 -41 163t-137 59q-47 0 -81.5 -17.5t-57.5 -47.5t-35.5 -70.5t-14.5 -86.5z" />
<glyph unicode="&#x451;" horiz-adv-x="1006" d="M72 459q0 116 30.5 209.5t88 158.5t140 99t186.5 34q109 0 186.5 -32t127.5 -89.5t73.5 -135.5t23.5 -170v-39q0 -45 -20 -66.5t-55 -21.5h-531q0 -56 13.5 -101t42 -77t74 -48.5t109.5 -16.5t113 9.5t84.5 20.5t59 20.5t37.5 9.5q9 0 15 -3.5t10 -12.5t5.5 -25t1.5 -40 q0 -21 -1 -36.5t-3 -26.5t-6 -18t-10.5 -14t-34.5 -18.5t-72 -23t-100.5 -19.5t-121.5 -8q-116 0 -203.5 29t-146 88.5t-87.5 150.5t-29 213zM98 938zM198 1193q0 70 26 96.5t98 26.5q74 0 99 -26t25 -92q0 -68 -26 -95t-98 -27q-73 0 -98.5 26t-25.5 91zM322 564h367 q3 104 -41 163t-137 59q-47 0 -81.5 -17.5t-57.5 -47.5t-35.5 -70.5t-14.5 -86.5zM579 1193q0 70 26 96.5t98 26.5q73 0 98.5 -26t25.5 -92q0 -68 -25.5 -95t-99.5 -27q-72 0 -97.5 26t-25.5 91z" />
<glyph unicode="&#x452;" horiz-adv-x="1106" d="M-7 1138q0 24 2.5 41.5t7.5 28.5t12 15.5t17 4.5h114v92q0 10 5 18t19.5 13t37.5 7.5t60 2.5q36 0 59.5 -2.5t37.5 -7.5t19.5 -13t5.5 -18v-92h194q9 0 16 -4.5t12 -15.5t7.5 -28.5t2.5 -41.5q0 -50 -10 -71t-28 -21h-195v-232q56 56 118.5 90t140.5 34q75 0 139 -31.5 t110.5 -100t73 -178.5t26.5 -267q0 -140 -13 -247t-39 -186.5t-63 -134.5t-85 -88t-106 -47t-126 -14q-13 0 -21.5 3.5t-14 14.5t-7 29.5t-1.5 47.5q0 36 1 58.5t4.5 34.5t10.5 16t19 4q29 0 55.5 6t47.5 25t37.5 53t27.5 89t17.5 133t6.5 187q0 104 -10.5 176t-31.5 117 t-51.5 65.5t-69.5 20.5q-51 0 -98.5 -35t-96.5 -97v-559q0 -10 -5.5 -17t-19.5 -12t-37.5 -7.5t-59.5 -2.5t-59.5 2.5t-38 7.5t-19.5 12t-5 17v1013h-116q-19 0 -28 21t-9 71z" />
<glyph unicode="&#x453;" horiz-adv-x="708" d="M123 33v825q0 39 16.5 59.5t51.5 20.5h461q10 0 17 -5.5t12 -18.5t7.5 -34t2.5 -51t-2.5 -51t-7.5 -34t-12 -18t-17 -5h-283v-688q0 -10 -6 -17t-20 -12t-37.5 -7.5t-59.5 -2.5t-59.5 2.5t-37.5 7.5t-20 12t-6 17zM168 938zM268.5 1086q1.5 10 9.5 22l140 224 q7 11 16.5 18.5t24.5 12t37.5 6.5t54.5 2q45 0 70.5 -4t37 -11t10.5 -17t-10 -21l-189 -226q-8 -10 -16 -16.5t-20 -10t-30.5 -5.5t-47.5 -2q-34 0 -54 2.5t-27.5 9t-6 16.5z" />
<glyph unicode="&#x454;" horiz-adv-x="875" d="M72 461q0 113 29 205.5t87 157.5t145 100.5t203 35.5q40 0 79.5 -7t73 -18.5t59 -25.5t35 -23.5t13.5 -17.5t6.5 -19t4 -28.5t1.5 -42.5q0 -26 -2.5 -43t-6.5 -27t-9.5 -14t-11.5 -4q-14 0 -31 14t-43.5 30.5t-65.5 30t-96 13.5q-55 0 -95 -16.5t-66.5 -45.5t-42 -69.5 t-19.5 -86.5h380q14 0 22 -19.5t8 -63.5q0 -45 -8 -63t-22 -18h-380q3 -58 18.5 -101.5t43.5 -73.5t68.5 -45t93.5 -15q58 0 99.5 13.5t70 29t46.5 28.5t30 13q14 0 20 -17.5t6 -62.5q0 -26 -1 -44t-3 -31t-5 -20.5t-12 -16t-34.5 -22t-61.5 -26t-82 -20t-97 -7.5 q-113 0 -197 31t-139.5 92t-83 151.5t-27.5 208.5z" />
<glyph unicode="&#x455;" horiz-adv-x="797" d="M71 146q0 28 2 45t6 27.5t10 13.5t15 3q11 0 31.5 -12t52 -26.5t73 -27.5t93.5 -13q33 0 59 7t45.5 19.5t29 32t9.5 45.5q0 29 -18 50t-48 36.5t-67.5 29.5t-77 30.5t-77 38t-67.5 52.5t-48 75t-18 106t24.5 114.5t70.5 89.5t112 57.5t148 20.5q41 0 79.5 -6t69.5 -14.5 t52.5 -19t31 -17.5t13.5 -14.5t6 -18t3.5 -25.5t1.5 -37q0 -26 -1.5 -43t-5 -26.5t-9.5 -13t-14 -3.5q-9 0 -27.5 10t-46 22t-64.5 22t-83 10q-33 0 -58 -7t-40.5 -19.5t-23 -29.5t-7.5 -37q0 -30 18.5 -50.5t48.5 -36t68.5 -29.5t78.5 -30t78.5 -37.5t68.5 -52.5 t48.5 -74.5t18.5 -103.5q0 -74 -27.5 -130.5t-78.5 -94.5t-120.5 -57t-150.5 -19q-49 0 -93 7t-79.5 18.5t-59 23t-34 22t-16.5 32.5t-6 65z" />
<glyph unicode="&#x456;" horiz-adv-x="491" d="M104 1194q0 74 30 103t113 29q82 0 111.5 -28t29.5 -99q0 -74 -30.5 -102.5t-112.5 -28.5q-83 0 -112 27.5t-29 98.5zM123 33v869q0 10 6 17.5t20 13t37.5 8t59.5 2.5t59.5 -2.5t37.5 -8t20 -13t6 -17.5v-869q0 -10 -6 -17t-20 -12t-37.5 -7.5t-59.5 -2.5t-59.5 2.5 t-37.5 7.5t-20 12t-6 17z" />
<glyph unicode="&#x457;" horiz-adv-x="491" d="M-135 938zM-35 1193q0 69 25 96t93 27q70 0 94.5 -26t24.5 -92q0 -68 -25.5 -95t-93.5 -27q-69 0 -93.5 26t-24.5 91zM123 33v871q0 10 6 17.5t20 12t37.5 7t59.5 2.5t59.5 -2.5t37.5 -7t20 -12t6 -17.5v-871q0 -10 -6 -17t-20 -12t-37.5 -7.5t-59.5 -2.5t-59.5 2.5 t-37.5 7.5t-20 12t-6 17zM294 1193q0 69 25 96t93 27q69 0 93.5 -26t24.5 -92q0 -68 -25.5 -95t-93.5 -27q-69 0 -93 26t-24 91z" />
<glyph unicode="&#x458;" horiz-adv-x="510" d="M-36 -243q0 27 1.5 45t5.5 29t8.5 16t12.5 5q5 0 20 -2.5t33 -2.5q25 0 43.5 7.5t30.5 24.5t18 44t6 86v893q0 10 5.5 17.5t19.5 13t37.5 8t59.5 2.5t59.5 -2.5t37.5 -8t20 -13t6 -17.5v-898q0 -103 -17.5 -166.5t-53.5 -106.5t-89.5 -65t-125.5 -22q-40 0 -68.5 5 t-41.5 11t-17.5 15t-6.5 20t-3 25t-1 37zM123 1194q0 74 30.5 103t112.5 29q83 0 111.5 -28t28.5 -99q0 -74 -29.5 -102.5t-112.5 -28.5q-82 0 -111.5 27.5t-29.5 98.5z" />
<glyph unicode="&#x459;" horiz-adv-x="1552" d="M18 90q0 36 1.5 58.5t5.5 34.5t10.5 16t16.5 4q22 0 45 8t45 31.5t42.5 67.5t38.5 116.5t34 178.5t28 253q3 39 18 59.5t51 20.5h494q35 0 51.5 -20.5t16.5 -59.5v-222q33 3 72 5t80 2q110 0 191.5 -22t133.5 -63t78 -99.5t26 -132.5q0 -77 -29 -141t-88.5 -109.5 t-149.5 -70.5t-213 -25q-32 0 -67 0.5t-68 2t-64.5 3.5t-58.5 5q-47 5 -68 28.5t-21 71.5v647h-166q-16 -162 -40 -281.5t-55 -203.5t-69 -137t-81.5 -82.5t-93.5 -40.5q-51 -11 -103 -11q-14 0 -22.5 3.5t-13.5 15t-6.5 33t-1.5 56.5zM916 172q28 -3 60 -5t68 -2 q100 0 147 39t47 108q0 34 -10.5 61t-34.5 46t-62 29t-93 10q-33 0 -65.5 -1.5t-56.5 -3.5v-281z" />
<glyph unicode="&#x45a;" horiz-adv-x="1587" d="M123 33v871q0 10 6 17.5t20 12t37.5 7t59.5 2.5t59.5 -2.5t37.5 -7t20 -12t6 -17.5v-328h331v328q0 10 6 17.5t20 12t37 7t58 2.5q36 0 60 -2.5t38.5 -7t20 -12t5.5 -17.5v-269q34 4 73 6t81 2q110 0 190.5 -22t133.5 -63t78 -99.5t25 -132.5q0 -77 -28.5 -141 t-87.5 -109.5t-150 -70.5t-214 -25q-32 0 -66.5 0.5t-67.5 2t-64.5 3.5t-58.5 5q-47 5 -68 28.5t-21 71.5v287h-331v-345q0 -10 -6 -17t-20 -12t-37.5 -7.5t-59.5 -2.5t-59.5 2.5t-37.5 7.5t-20 12t-6 17zM945 172q28 -3 60.5 -5t68.5 -2q100 0 147.5 39t47.5 108 q0 34 -11 61.5t-35 46.5t-62 29t-93 10q-33 0 -65 -1.5t-58 -3.5v-282z" />
<glyph unicode="&#x45b;" horiz-adv-x="1094" d="M-7 1139q0 27 2.5 44.5t7.5 27.5t12 13.5t17 3.5h114v92q0 10 5 18t19.5 13t37.5 7.5t60 2.5q36 0 59.5 -2.5t37.5 -7.5t19.5 -13t5.5 -18v-92h194q9 0 16 -3.5t12 -13.5t7.5 -27.5t2.5 -44.5t-2.5 -45t-7.5 -28.5t-12 -15t-16 -4.5h-195v-229q63 62 130 93.5t138 31.5 q90 0 151 -29t98.5 -80t54 -118t16.5 -162v-520q0 -10 -6 -17t-19.5 -12t-37 -7.5t-60.5 -2.5t-60 2.5t-37 7.5t-20 12t-6 17v479q0 63 -8.5 99.5t-26.5 62t-46 40.5t-65 15q-47 0 -94.5 -34.5t-100.5 -99.5v-562q0 -10 -5.5 -17t-19.5 -12t-37.5 -7.5t-59.5 -2.5t-59.5 2.5 t-38 7.5t-19.5 12t-5 17v1013h-116q-9 0 -16 4.5t-11.5 15t-7 28t-2.5 45.5z" />
<glyph unicode="&#x45c;" horiz-adv-x="989" d="M123 28v882q0 7 6.5 13.5t21 10.5t38 6.5t57.5 2.5q33 0 56.5 -2.5t38 -6.5t21.5 -10.5t7 -13.5v-339h50q30 0 54.5 7.5t44.5 24.5t37 45.5t33 70.5l73 187q3 10 10 17.5t21 11.5t39 6t66 2q36 0 59 -2t36 -5.5t18 -9t5 -13.5q0 -10 -4 -23.5t-14 -36.5l-69 -166 q-21 -50 -43.5 -85t-46.5 -57.5t-48.5 -36t-46.5 -21.5v-2q30 -13 56.5 -27.5t50 -38t45.5 -58t44 -83.5l85 -195q6 -13 9.5 -22t5 -16.5t2 -12.5t0.5 -9q0 -8 -5 -13t-19 -8.5t-38 -5.5t-60 -2q-41 0 -67 2t-42 5.5t-22.5 10.5t-10.5 16l-81 208q-15 42 -32 70.5 t-37.5 45.5t-47 24.5t-60.5 7.5h-50v-356q0 -7 -7 -13t-21.5 -11t-38 -7.5t-56.5 -2.5q-34 0 -57.5 2.5t-38 7.5t-21 11t-6.5 13zM297 938zM397.5 1086q1.5 10 9.5 22l140 224q7 11 16.5 18.5t24.5 12t37.5 6.5t54.5 2q45 0 70.5 -4t37 -11t10.5 -17t-10 -21l-189 -226 q-8 -10 -16 -16.5t-20 -10t-30.5 -5.5t-47.5 -2q-34 0 -54 2.5t-27.5 9t-6 16.5z" />
<glyph unicode="&#x45d;" horiz-adv-x="1113" d="M123 31v874q0 9 5.5 16.5t19.5 12t37 7t58 2.5q69 0 97.5 -9.5t28.5 -28.5v-386q0 -40 -3 -83t-8 -83q23 39 48 77.5t52 74.5l297 400q8 11 16.5 18.5t22 11.5t32.5 6t49 2q34 0 56.5 -2t35.5 -6.5t18 -12.5t5 -18v-874q0 -10 -5.5 -16.5t-19 -11t-36.5 -6.5t-58 -2 t-59 2t-39 6.5t-21.5 11.5t-6.5 16v389q0 41 2.5 85t7.5 86q-23 -41 -50.5 -80.5t-56.5 -78.5l-294 -400q-9 -11 -16.5 -18t-19.5 -11.5t-30.5 -6t-48.5 -1.5q-35 0 -57 2t-35 6.5t-18.5 11.5t-5.5 17zM137 938zM236.5 1339q-0.5 10 10.5 17t37.5 11t71.5 4q32 0 54 -2 t36.5 -6.5t24 -12t17.5 -18.5l139 -224q9 -13 11 -22.5t-6.5 -16t-27.5 -9t-53 -2.5q-28 0 -46.5 2t-31.5 5.5t-21 10t-16 16.5l-189 226q-10 11 -10.5 21z" />
<glyph unicode="&#x45e;" horiz-adv-x="947" d="M21 897q0 18 12 28.5t40 14t73 3.5q42 0 66.5 -1.5t38.5 -7t20.5 -18t13.5 -34.5l205 -583h3l188 595q6 25 15 33.5t30.5 12t75.5 3.5q42 0 69.5 -3.5t41 -14.5t13.5 -29t-8 -42l-290 -854l-106 -309q-9 -24 -47.5 -34.5t-114.5 -10.5q-39 0 -62.5 3t-35 11t-12.5 19.5 t6 28.5l116 292q-13 6 -23 18t-15 26l-300 801q-13 34 -13 52zM23 938zM123 1320q0 15 5 24.5t18 15t35 8t55 2.5q31 0 51.5 -3t31.5 -9t15 -15.5t4 -22.5q0 -26 9.5 -48.5t27.5 -38.5t44.5 -25.5t58.5 -9.5q31 0 56.5 9t43.5 25.5t27.5 39.5t9.5 50q0 12 4 21t15 15t30 9 t48 3q35 0 58.5 -2.5t37 -8t19 -15t5.5 -24.5q0 -58 -19 -108.5t-60.5 -89t-109 -61t-166.5 -22.5q-96 0 -163 20.5t-109.5 57t-62 89t-19.5 114.5z" />
<glyph unicode="&#x45f;" horiz-adv-x="1074" d="M123 79v825q0 10 5.5 17.5t19.5 12t37.5 7t59.5 2.5t59.5 -2.5t37.5 -7t20.5 -12t6.5 -17.5v-699h336v699q0 10 6 17.5t20 12t38 7t60 2.5t59 -2.5t37 -7t19.5 -12t5.5 -17.5v-825q0 -39 -16 -59t-51 -20h-239v-291q0 -7 -5.5 -12.5t-18.5 -9t-33 -5.5t-50 -2 q-29 0 -49.5 2t-33 5.5t-18 9t-5.5 12.5v291h-240q-35 0 -51.5 20t-16.5 59z" />
<glyph unicode="&#x460;" horiz-adv-x="1892" d="M84 645q0 149 31 267.5t91 201t147.5 126.5t203.5 44q54 0 99 -6.5t79.5 -18t56.5 -25t31 -28.5q3 -4 6 -10t5.5 -16t4 -27.5t1.5 -45.5q0 -59 -11.5 -80.5t-21.5 -21.5q-12 0 -29 10.5t-43.5 23.5t-64 23.5t-88.5 10.5q-52 0 -94.5 -24t-72 -75.5t-45.5 -133t-16 -196.5 q0 -139 20 -227.5t56.5 -139t87 -70t111.5 -19.5t107.5 21.5t80.5 57.5v366q0 20 28 30.5t101 10.5t101 -11t28 -30v-366q34 -35 81 -57t108 -22t111.5 19.5t87 70t56.5 139t20 227.5q0 115 -16 196.5t-46 133t-72.5 75.5t-93.5 24q-52 0 -89 -10.5t-63.5 -23.5t-43.5 -23.5 t-29 -10.5q-11 0 -22 22t-11 80q0 27 1.5 45t4 28t5 16t5.5 10q9 15 31.5 28.5t56.5 25t79 18t100 6.5q115 0 203 -44t148 -126.5t91 -201t31 -267.5q0 -336 -134.5 -501.5t-402.5 -165.5q-55 0 -103.5 11t-89.5 29.5t-74.5 42.5t-58.5 49q-25 -25 -58.5 -49t-74.5 -42.5 t-89.5 -29.5t-103.5 -11q-269 0 -402.5 165.5t-133.5 501.5z" />
<glyph unicode="&#x461;" horiz-adv-x="1438" d="M34 905q0 10 5.5 17.5t19.5 12t37.5 6.5t60.5 2q40 0 65 -2t38.5 -7t20 -13t10.5 -20l192 -598q2 -6 3.5 -13.5t3.5 -14.5q2 -8 4 -15q2 9 5 17q2 8 4.5 14.5t4.5 11.5l123 292l-84 250q-8 21 -10.5 35.5t-2.5 24.5t5.5 17.5t19.5 12t37.5 6.5t60.5 2q40 0 65 -2t38.5 -7 t20 -13t10.5 -20l188 -600q1 -4 2 -10.5t3 -13.5q2 -8 3 -15q3 8 6 15q2 7 4.5 13.5t4.5 11.5q34 80 61 162t45 160.5t28 149.5t10 127q0 9 4 17t18.5 13.5t39.5 8.5t67 3q41 0 66 -2.5t39.5 -8t19 -13.5t4.5 -18q0 -62 -15 -143.5t-43 -175t-68 -194t-90 -200.5 q-41 -79 -66 -122.5t-34 -51.5q-7 -7 -20 -11t-30 -6t-37 -2.5t-37 -0.5q-41 0 -68 2.5t-43 8.5t-24.5 16t-13.5 26l-88 263l-107 -263q-7 -17 -15 -27t-24.5 -16t-42.5 -8t-68 -2q-41 0 -67.5 2.5t-42.5 8.5t-24.5 16t-14.5 26l-274 798q-8 21 -10.5 35.5t-2.5 24.5z" />
<glyph unicode="&#x462;" horiz-adv-x="1275" d="M0 1264zM12 1049q0 29 2.5 49t7 32t11.5 16.5t17 4.5h242v142q0 10 6.5 17t21.5 12t40 7.5t61 2.5q37 0 61.5 -2.5t39 -7.5t21 -12t6.5 -17v-142h307q10 0 17.5 -4.5t12 -16.5t7 -32t2.5 -49q0 -27 -2.5 -47t-7 -32t-12 -17.5t-17.5 -5.5h-307v-200h167q149 0 233 -24.5 t141.5 -71t88 -113t30.5 -150.5q0 -98 -34.5 -170.5t-99 -121t-157.5 -72.5t-241 -24h-307q-16 0 -30 4.5t-24.5 14.5t-17 25.5t-6.5 36.5v866h-242q-10 0 -17 6t-11.5 18t-7 31.5t-2.5 46.5zM549 191h137q89 0 131.5 13t70.5 37t41 57.5t13 74.5q0 89 -56.5 137.5 t-201.5 48.5h-135v-368z" />
<glyph unicode="&#x463;" horiz-adv-x="1063" d="M17 844q0 28 2.5 46t7.5 29t12.5 15t16.5 4h136v194q0 10 6 17.5t19.5 13t37.5 8t59 2.5q36 0 59.5 -2.5t37.5 -8t19.5 -13t5.5 -17.5v-194h212q10 0 17.5 -4t12.5 -15t7 -29t2 -46q0 -27 -2.5 -44.5t-7.5 -27.5t-12 -14t-17 -4h-212v-167q43 2 84 3.5t72 1.5 q101 0 178.5 -18t129.5 -54.5t79.5 -90t27.5 -125.5q0 -77 -29 -137.5t-86.5 -102t-143.5 -63t-199 -21.5q-31 0 -70 1t-78 3t-75 5.5t-62 7.5q-20 2 -33 8t-22 17.5t-13 30t-4 47.5v651h-137q-10 0 -17 4.5t-12 15t-7 28t-2 45.5zM436 158q31 -3 63 -5t60 -2 q100 0 150 36.5t50 103.5q0 63 -49 96t-153 33q-31 0 -64.5 -1t-56.5 -3v-258z" />
<glyph unicode="&#x464;" horiz-adv-x="1561" d="M138 36v1193q0 20 27.5 31t101.5 11q37 0 62 -3t39.5 -8t21 -13t6.5 -18v-468h178q18 127 66 224.5t121 164t169 100.5t211 34q37 0 82.5 -6t89.5 -18t83.5 -29.5t65.5 -41.5q13 -12 19.5 -26.5t9.5 -30.5t3.5 -32.5t0.5 -32.5q0 -59 -8.5 -83t-27.5 -24q-15 0 -40 17 t-63 37t-88.5 37t-116.5 17q-124 0 -200 -82t-99 -225h503q19 0 29 -23t10 -83q0 -57 -10 -80.5t-29 -23.5h-510q8 -91 34 -157.5t67.5 -110.5t98 -65t123.5 -21t117.5 16t86 35.5t58 35.5t36.5 16q9 0 15 -5t10 -17t6 -34t2 -57q0 -25 -1 -42t-4 -29t-9 -22t-15 -20 q-12 -12 -42 -28.5t-74.5 -31t-102 -25t-123.5 -10.5q-124 0 -224 36.5t-173 107.5t-115.5 178t-50.5 250h-169v-515q0 -10 -6.5 -17.5t-21 -12.5t-39.5 -8t-62 -3q-74 0 -101.5 11t-27.5 30z" />
<glyph unicode="&#x465;" horiz-adv-x="1305" d="M123 33v869q0 10 6 17.5t20 13t37.5 8t59.5 2.5t59.5 -2.5t37.5 -8t20 -13t6 -17.5v-342h140q12 92 46.5 166t91.5 125.5t137 80t183 28.5q39 0 78.5 -8t73 -19.5t58.5 -24.5t36 -23q8 -8 12.5 -16.5t7.5 -20t4 -28.5t1 -42q0 -53 -8.5 -70.5t-20.5 -17.5q-14 0 -31 14 t-44 30.5t-66 30t-95 13.5q-55 0 -95 -16.5t-67 -45.5t-42 -69.5t-19 -86.5h380q14 0 21.5 -19.5t7.5 -63.5q0 -45 -7.5 -63t-21.5 -18h-380q6 -115 61.5 -175t162.5 -60q58 0 99 13.5t70 29t47 28.5t30 13q14 0 20 -17.5t6 -62.5q0 -52 -3 -75.5t-18 -36.5 q-10 -9 -34.5 -22t-61 -25t-82.5 -20t-98 -8q-210 0 -319.5 106t-124.5 312h-136v-363q0 -10 -6 -17t-20 -12t-37.5 -7.5t-59.5 -2.5t-59.5 2.5t-37.5 7.5t-20 12t-6 17z" />
<glyph unicode="&#x466;" horiz-adv-x="1301" d="M14 43.5q4 20.5 17 55.5l443 1120q6 15 14 24.5t26 15.5t48.5 8.5t80.5 2.5q54 0 87 -2.5t52.5 -9t29 -17t15.5 -25.5l441 -1119q14 -34 18 -55t-7 -31.5t-39.5 -13.5t-81.5 -3q-43 0 -67.5 2t-38 6.5t-19.5 12.5t-11 22l-182 485h-104v-492q0 -9 -3.5 -15.5t-15 -11 t-31 -7t-50.5 -2.5t-51 2.5t-30.5 7t-14.5 11t-4 15.5v492h-102l-181 -482q-5 -14 -10.5 -22.5t-18.5 -14t-36.5 -7.5t-65.5 -2q-44 0 -68.5 3.5t-34 14.5t-5.5 31.5zM503 708h268l-133 354h-2z" />
<glyph unicode="&#x467;" horiz-adv-x="1145" d="M14 32q0 21 22 71l360 788q7 16 15.5 26t26.5 15.5t50.5 8t84.5 2.5q53 0 84 -2.5t49.5 -8.5t27 -16.5t15.5 -24.5l359 -788q14 -31 19 -47.5t5 -23.5q0 -11 -4.5 -17.5t-16.5 -11.5t-33.5 -7t-56.5 -2q-41 0 -65 2.5t-37.5 7.5t-19 12.5t-10.5 19.5l-139 317h-95v-327 q0 -7 -2.5 -12.5t-11 -9.5t-26.5 -6t-50 -2q-31 0 -49 2t-27 6t-10.5 10t-1.5 12v327h-95l-137 -317q-5 -11 -10 -19t-16.5 -13t-33.5 -7.5t-60 -2.5q-34 0 -56 2t-34.5 7t-16.5 11.5t-4 17.5zM451 511h230l-104 236l-12 30l-11 -30z" />
<glyph unicode="&#x468;" horiz-adv-x="1789" d="M40 35v1194q0 10 5.5 17.5t19.5 12.5t38 8t61 3q38 0 62 -3t37.5 -8t18.5 -13t5 -17v-521h373l202 511q6 15 14.5 24.5t26.5 15.5t48 8.5t80 2.5q54 0 87 -2.5t52.5 -9t29.5 -17t16 -25.5l440 -1119q14 -34 18.5 -55t-7 -31.5t-39.5 -13.5t-81 -3q-43 0 -67.5 2t-38 6.5 t-19.5 12.5t-11 22l-182 485h-104v-492q0 -9 -4 -15.5t-15 -11t-30.5 -7t-51.5 -2.5q-31 0 -50.5 2.5t-30 7t-14.5 11t-4 15.5v492h-103l-180 -482q-5 -14 -10.5 -22.5t-18.5 -14t-36.5 -7.5t-65.5 -2q-44 0 -68 3.5t-33 14t-5.5 31t15.5 56.5l167 423h-300v-487 q0 -10 -5 -17.5t-18.5 -12.5t-37.5 -8t-62 -3q-37 0 -61 3t-38 8t-19.5 12.5t-5.5 17.5zM892 708h267l-133 354h-2z" />
<glyph unicode="&#x469;" horiz-adv-x="1577" d="M123 33v869q0 10 5 17.5t18 13t36 8t59 2.5t59 -2.5t36.5 -8t18 -13t4.5 -17.5v-370h305l163 359q7 16 16 26t27 15.5t50 8t85 2.5t84 -2.5t49 -8.5t27 -16.5t16 -24.5l359 -788q14 -31 18.5 -47.5t4.5 -23.5q0 -11 -4 -17.5t-16.5 -11.5t-34 -7t-56.5 -2q-41 0 -65 2.5 t-37 7.5t-19 12.5t-11 19.5l-138 317h-95v-327q0 -7 -2.5 -12.5t-11.5 -9.5t-27 -6t-49 -2t-49 2t-27 6t-11 10t-2 12v327h-95l-136 -317q-5 -11 -10 -19t-16.5 -13t-33.5 -7.5t-60 -2.5q-34 0 -56 2t-34.5 7t-17 11.5t-4.5 17.5q0 21 23 71l124 271h-233v-341 q0 -10 -4.5 -17t-18 -12t-36.5 -7.5t-59 -2.5t-59 2.5t-36 7.5t-18 12t-5 17zM883 511h229l-103 236l-12 30l-12 -30z" />
<glyph unicode="&#x46a;" horiz-adv-x="1455" d="M31 34q0 11 3.5 28t17.5 52l109 298q27 75 62.5 129.5t76.5 90.5t89 56t100 29l-333 452q-26 36 -26 56q0 22 19 30.5t70 8.5h1017q51 0 70 -8.5t19 -30.5q0 -20 -26 -56l-333 -452q53 -9 100.5 -29t88.5 -56t76 -90.5t63 -129.5l109 -298q14 -35 17.5 -52t3.5 -28 t-5 -18t-18 -12t-36.5 -7.5t-59.5 -2.5q-38 0 -63 2.5t-40 8t-23.5 14.5t-12.5 23l-79 265q-36 120 -88 173t-126 53h-25v-498q0 -11 -5 -18t-18 -12.5t-36.5 -8t-60.5 -2.5t-60.5 2.5t-37 8t-18.5 12.5t-5 18v498h-25q-74 0 -126 -53t-88 -173l-79 -265q-4 -14 -11 -23 t-22 -14.5t-39 -8t-62 -2.5q-37 0 -61 2.5t-37.5 7.5t-19.5 12t-6 18zM495 1082l147 -216q25 -36 47 -72t42 -80h2q21 44 43 80t47 72l147 216h-475z" />
<glyph unicode="&#x46b;" horiz-adv-x="1251" d="M27 23q0 8 4 21.5t15 38.5l94 231q42 104 103.5 157.5t143.5 71.5l-261 324q-22 27 -22 41q0 17 16 23.5t59 6.5h894q43 0 58.5 -6.5t15.5 -23.5q0 -16 -21 -41l-262 -324q83 -18 144 -71t104 -158l94 -231q11 -25 15 -38.5t4 -21.5t-4.5 -13t-17 -8.5t-34.5 -5.5t-58 -2 q-41 0 -65.5 2t-37.5 6t-18.5 10.5t-8.5 15.5l-73 216q-15 44 -31.5 73t-34 46t-36.5 24t-38 7h-24l-1 -2v-368q0 -16 -25 -23t-92 -7t-92 7.5t-25 22.5v368l-2 2h-23q-20 0 -38.5 -7t-36 -24t-34.5 -46t-31 -73l-73 -216q-3 -10 -8.5 -16t-19 -10t-37.5 -6t-65 -2 q-36 0 -58 2t-34.5 5.5t-17 9t-4.5 12.5zM474 769l99 -142q17 -20 30 -40t27 -45h1q13 25 27 45t30 40l98 142h-312z" />
<glyph unicode="&#x46c;" horiz-adv-x="1914" d="M138 35v1194q0 10 5 17.5t19.5 12.5t38.5 8t61 3q38 0 62 -3t37.5 -8t18.5 -13t5 -17v-505h558l-328 445q-26 36 -26 56q0 22 19 30.5t70 8.5h1017q51 0 70 -8.5t19 -30.5q0 -20 -26 -56l-333 -452q53 -9 100.5 -29t88.5 -56t76 -90.5t63 -129.5l109 -298 q14 -35 17.5 -52t3.5 -28t-5 -18t-18 -12t-36.5 -7.5t-59.5 -2.5q-38 0 -63 2.5t-40 8t-23.5 14.5t-12.5 23l-79 265q-36 120 -88 173t-126 53h-25v-498q0 -11 -5 -18t-18 -12.5t-36.5 -8t-60.5 -2.5t-60.5 2.5t-37 8t-18.5 12.5t-5 18v498h-25q-74 0 -126 -53t-88 -173 l-79 -265q-4 -14 -11.5 -23t-22 -14.5t-38.5 -8t-62 -2.5q-37 0 -61 2.5t-37.5 7.5t-19.5 12t-6 18t3.5 28t17.5 52l109 298q15 40 29.5 70.5t33.5 55.5h-298v-503q0 -10 -5 -17.5t-18.5 -12.5t-37.5 -8t-62 -3q-37 0 -61 3t-38.5 8t-19.5 12.5t-5 17.5zM954 1082l147 -216 q25 -36 47 -72t42 -80h2q21 44 43 80t47 72l147 216h-475z" />
<glyph unicode="&#x46d;" horiz-adv-x="1681" d="M123 33v869q0 10 5 17.5t18 13t36 8t59 2.5t59 -2.5t36.5 -8t18 -13t4.5 -17.5v-349h450l-253 314q-22 27 -23 41q0 17 16 23.5t59 6.5h895q43 0 58.5 -6.5t15.5 -23.5q0 -16 -21 -41l-262 -324q83 -18 144 -71t104 -158l94 -231q11 -25 14.5 -38.5t3.5 -21.5t-4 -13 t-16.5 -8.5t-34.5 -5.5t-58 -2q-41 0 -65.5 2t-37.5 6t-18.5 10.5t-8.5 15.5l-73 216q-15 44 -31.5 73t-34 46t-36.5 24t-39 7h-23l-1 -2v-368q0 -16 -25 -23t-92 -7t-92.5 7.5t-25.5 22.5v368l-1 2h-23q-20 0 -39 -7t-36.5 -24t-34 -46t-31.5 -73l-73 -216q-3 -10 -8 -16 t-18.5 -10t-38 -6t-65.5 -2q-36 0 -58 2t-34 5.5t-16.5 9t-4.5 12.5q0 8 4 21.5t15 38.5l83 204q14 34 27 60t29 48h-256v-362q0 -10 -4.5 -17t-18 -12t-36.5 -7.5t-59 -2.5t-59 2.5t-36 7.5t-18 12t-5 17zM903 769l100 -142q17 -20 30 -40t27 -45h1q13 25 26.5 45t29.5 40 l99 142h-313z" />
<glyph unicode="&#x46e;" horiz-adv-x="986" d="M10 -86q0 54 14 101t46 83q38 43 104 67t170 31q137 9 202.5 51t65.5 122q0 88 -62.5 136.5t-199.5 48.5h-134q-15 0 -23.5 4t-14 14.5t-7 29.5t-1.5 50q0 56 9 75.5t34 19.5h136q120 0 182.5 46t62.5 131q0 71 -46 113.5t-146 42.5q-59 0 -105.5 -12.5t-81.5 -28 t-58.5 -28t-35.5 -12.5q-14 0 -20.5 18t-6.5 74q0 41 4.5 66.5t22.5 43.5q17 16 74 38t139 35l-141 199q-14 19 -18.5 31t3 19t28.5 10.5t59 3.5q31 0 49 -1.5t29 -5.5t17 -10t13 -16l101 -148l76 114q27 38 55 56t75 18q30 0 55.5 -8.5t39.5 -20.5q14 -11 19 -25t5 -43 q0 -28 -3.5 -46t-11.5 -18q-7 0 -13 2.5t-13.5 6t-16.5 5.5t-20 2q-17 0 -31 -10t-30 -36l-48 -81q131 -27 195.5 -104.5t64.5 -199.5q0 -61 -16.5 -110.5t-47.5 -88t-73.5 -64t-93.5 -37.5v-2q60 -7 109 -33t84 -66t54.5 -91t19.5 -110q0 -96 -34.5 -165t-103.5 -116 t-171 -72.5t-238 -33.5q-62 -4 -88.5 -21t-26.5 -45q0 -30 27.5 -45.5t86.5 -15.5q41 0 91.5 1.5t102.5 4t101.5 4.5t88.5 2t67.5 -3t47.5 -7.5t30.5 -11.5t18.5 -16q15 -18 23 -42.5t8 -77.5q0 -31 -2.5 -51t-7.5 -31t-11.5 -15t-13.5 -4q-12 0 -20.5 8.5t-25 18.5t-46 18 t-83.5 8q-38 0 -83.5 -1t-93.5 -2t-95 -2t-86 -1q-95 0 -161.5 18t-110.5 51q-47 35 -68 84.5t-21 108.5z" />
<glyph unicode="&#x46f;" horiz-adv-x="849" d="M12 -91q0 83 42 140q33 45 102 73t188 38q86 7 130.5 35.5t44.5 86.5q0 27 -11 49t-36 36.5t-65.5 21.5t-98.5 7h-94q-25 0 -33 19t-8 66q0 45 8 62t30 17h91q106 0 153 30t47 89q0 53 -41 78.5t-108 25.5q-56 0 -99.5 -12t-75.5 -26.5t-53 -26.5t-32 -12q-6 0 -11 2.5 t-9.5 11t-7 23t-2.5 38.5q0 27 2 46t8.5 32t19.5 24t36 21q22 11 52.5 21.5t65.5 17.5l-143 178q-14 19 -18.5 31t3 19.5t28.5 11t59 3.5q31 0 49 -1.5t29 -5.5t17 -10.5t13 -16.5l101 -137l76 103q27 38 55 56t75 18q30 0 55.5 -8t40.5 -21q14 -11 18.5 -25t4.5 -42 t-3.5 -46.5t-11.5 -18.5q-7 0 -13 2.5t-13.5 6t-16 6t-20.5 2.5q-17 0 -34.5 -11t-35.5 -36l-37 -54q105 -22 164.5 -81t59.5 -156q0 -37 -11 -71.5t-33 -62.5t-53.5 -49t-70.5 -33l-1 -2q42 -5 78.5 -23t64.5 -46.5t44 -66.5t16 -82q0 -145 -100 -215t-291 -80 q-57 -3 -90 -9t-51 -15t-22.5 -20t-4.5 -26q0 -13 6.5 -22.5t23 -16.5t44 -10.5t69.5 -3.5q33 0 62 2t57 5t55.5 5t59.5 2q39 0 67 -3t47 -8t31 -12t19 -16q15 -18 23 -42.5t8 -77.5q0 -31 -3 -51t-8 -31t-11 -15t-13 -4q-12 0 -21 8.5t-25.5 18t-45.5 18t-83 8.5 q-30 0 -57.5 -1t-55 -2.5t-55.5 -2.5t-61 -1q-81 0 -145 15.5t-108.5 47t-68 79t-23.5 111.5z" />
<glyph unicode="&#x470;" horiz-adv-x="1615" d="M116 736v494q0 10 6.5 17.5t21 12.5t39 7.5t62.5 2.5q37 0 62 -2.5t39.5 -7.5t20.5 -12.5t6 -17.5v-475q0 -69 17 -126.5t53 -99.5t92.5 -66t135.5 -26v793q0 10 6.5 17.5t21.5 12.5t39.5 7.5t61.5 2.5q36 0 61.5 -2.5t40 -7.5t20.5 -12.5t6 -17.5v-793q77 2 133 25 t93 63.5t55 96t18 122.5v486q0 10 5.5 17.5t20 12.5t39 7.5t62.5 2.5q37 0 61 -2.5t38.5 -7.5t20 -12.5t5.5 -17.5v-480q0 -121 -36 -216.5t-106 -163t-172.5 -104.5t-236.5 -40v-194q0 -10 -6 -17t-20.5 -11.5t-40 -7t-61.5 -2.5q-38 0 -62.5 2.5t-39.5 7t-21 11.5t-6 17 v194q-133 3 -236 36.5t-174 98t-108 158.5t-37 217z" />
<glyph unicode="&#x471;" horiz-adv-x="1475" d="M117 898q-2 12 3 20.5t18 14t37 8t59 2.5q36 0 59 -2.5t38 -7.5t21 -12.5t8 -18.5q6 -36 9 -74t3 -75q0 -70 -5 -138t-5 -138q0 -73 13.5 -127t42.5 -89.5t76 -55.5t114 -24v1135q0 10 6 18.5t19.5 14t37 8t59.5 2.5t59.5 -2.5t37.5 -8t20 -13.5t6 -18v-1136 q68 5 117 25.5t80.5 60t46.5 99.5t15 144q0 61 -6 126t-13.5 122t-13.5 98t-6 53q0 8 5.5 14.5t18 10.5t36 6.5t59.5 2.5q35 0 58.5 -2.5t37.5 -7t20.5 -12t8.5 -18.5q10 -70 17.5 -127.5t12 -105t6 -85t1.5 -67.5q0 -128 -33 -226.5t-97.5 -164.5t-158 -103.5t-212.5 -44.5 v-291q0 -10 -6 -18t-20 -13.5t-37 -8t-60 -2.5q-36 0 -59.5 2.5t-37 8t-19.5 13.5t-6 18v291q-131 7 -223.5 40t-151.5 93.5t-87 146.5t-28 198q0 74 5 146t5 145q0 38 -2.5 76t-8.5 74z" />
<glyph unicode="&#x472;" horiz-adv-x="1352" d="M78 625q0 154 39.5 276.5t117 208t191 131t262.5 45.5q143 0 252.5 -37.5t183 -116t112 -199t38.5 -285.5q0 -158 -39 -282.5t-115 -211t-190.5 -131.5t-264.5 -45q-146 0 -256 37t-183.5 116t-110.5 201.5t-37 292.5zM348 544q4 -85 24 -153t59 -115t98 -71.5t144 -24.5 t147 26t102.5 74t61 115.5t22.5 148.5h-658zM348 732h655q-3 77 -23 141.5t-59.5 112t-98.5 73.5t-141 26q-84 0 -145 -26t-102 -73t-62 -111.5t-24 -142.5z" />
<glyph unicode="&#x473;" horiz-adv-x="1071" d="M70 464q0 110 29.5 201.5t89 157t148.5 101.5t208 36q113 0 199 -32t143 -94.5t85.5 -152.5t28.5 -205q0 -112 -30.5 -204.5t-89.5 -157.5t-148 -100.5t-208 -35.5q-118 0 -203.5 33.5t-141.5 97t-83 153.5t-27 202zM318 393q2 -54 17.5 -97t41.5 -74t65.5 -47.5 t91.5 -16.5q49 0 88 15t67.5 44t44.5 73t19 103h-435zM318 552h435q-3 48 -16 90t-39.5 72.5t-65.5 48t-95 17.5q-54 0 -94 -18t-66.5 -48t-41 -72t-17.5 -90z" />
<glyph unicode="&#x474;" horiz-adv-x="1223" d="M24 1222.5q-3 20.5 8.5 31.5t41 13.5t82.5 2.5q48 0 75 -1.5t41 -6.5t20.5 -15t11.5 -27l299 -973h1l150 594q34 135 67.5 220.5t73.5 135.5t89 68.5t115 18.5q33 0 57.5 -6t36.5 -13.5t16.5 -16t6.5 -18.5t3 -26.5t1 -39.5q0 -59 -7.5 -90t-22.5 -31q-9 0 -20 1t-20 1 q-21 0 -38.5 -10t-34.5 -38t-36.5 -79t-44.5 -133l-220 -740q-4 -17 -12.5 -27t-27 -15.5t-50 -7t-81.5 -1.5q-58 0 -92.5 1.5t-54.5 7t-28.5 16t-14.5 29.5l-376 1120q-12 34 -15 54.5z" />
<glyph unicode="&#x475;" horiz-adv-x="993" d="M21 905q0 10 5.5 17.5t19.5 12t38 6.5t61 2q40 0 63.5 -2.5t37.5 -6.5t20 -12.5t10 -20.5l198 -639l6 -38l7 38l115 437q16 70 35.5 120t49 81t70 44.5t98.5 13.5q36 0 64 -7t39 -17.5t15.5 -32t4.5 -68.5q0 -28 -2 -47t-6 -30t-9.5 -15.5t-11.5 -4.5q-8 0 -16.5 0.5 t-17.5 0.5q-16 0 -28 -3t-22.5 -14.5t-20.5 -33.5t-21 -59l-171 -579q-5 -17 -12.5 -27t-26.5 -16.5t-52 -8.5t-85 -2t-85.5 2.5t-52.5 9t-27.5 16.5t-13.5 26l-262 786q-8 29 -11 45t-3 26z" />
<glyph unicode="&#x476;" horiz-adv-x="1223" d="M22 1264zM24 1222.5q-3 20.5 8.5 31.5t41 13.5t82.5 2.5q48 0 75 -1.5t41 -6.5t20.5 -15t11.5 -27l299 -973h1l150 594q34 135 67.5 220.5t73.5 135.5t89 68.5t115 18.5q33 0 57.5 -6t36.5 -13.5t16.5 -16t6.5 -18.5t3 -26.5t1 -39.5q0 -59 -7.5 -90t-22.5 -31 q-9 0 -20 1t-20 1q-21 0 -38.5 -10t-34.5 -38t-36.5 -79t-44.5 -133l-220 -740q-4 -17 -12.5 -27t-27 -15.5t-50 -7t-81.5 -1.5q-58 0 -92.5 1.5t-54.5 7t-28.5 16t-14.5 29.5l-376 1120q-12 34 -15 54.5zM116.5 1635q-0.5 10 11 17t37.5 11t71 4q32 0 54 -2t36.5 -6.5 t24 -12t17.5 -18.5l159 -224q9 -14 11 -23t-6 -15.5t-28 -9t-53 -2.5q-28 0 -47 1.5t-31 5.5t-20.5 11t-17.5 16l-208 226q-10 11 -10.5 21zM490.5 1635q-0.5 10 11 17t37.5 11t71 4q32 0 54 -2t36.5 -6.5t24 -12t17.5 -18.5l159 -224q9 -14 11 -23t-6 -15.5t-28 -9 t-53 -2.5q-28 0 -47 1.5t-31 5.5t-20.5 11t-16.5 16l-209 226q-10 11 -10.5 21z" />
<glyph unicode="&#x477;" horiz-adv-x="993" d="M-44 938zM21 905q0 10 5.5 17.5t19.5 12t38 6.5t61 2q40 0 63.5 -2.5t37.5 -6.5t20 -12.5t10 -20.5l198 -639l6 -38l7 38l115 437q16 70 35.5 120t49 81t70 44.5t98.5 13.5q36 0 64 -7t39 -17.5t15.5 -32t4.5 -68.5q0 -28 -2 -47t-6 -30t-9.5 -15.5t-11.5 -4.5 q-8 0 -16.5 0.5t-17.5 0.5q-16 0 -28 -3t-22.5 -14.5t-20.5 -33.5t-21 -59l-171 -579q-5 -17 -12.5 -27t-26.5 -16.5t-52 -8.5t-85 -2t-85.5 2.5t-52.5 9t-27.5 16.5t-13.5 26l-262 786q-8 29 -11 45t-3 26zM34 1322.5q-1 9.5 11 17t37.5 11t70.5 3.5q32 0 54 -1.5t37 -6 t24 -12.5t17 -19l159 -223q9 -14 11 -23t-6 -15.5t-28 -9.5t-53 -3q-28 0 -46.5 2t-31 6t-20.5 10.5t-17 15.5l-208 227q-10 11 -11 20.5zM369 1322.5q-1 9.5 11 17t37.5 11t70.5 3.5q32 0 54 -1.5t37 -6t24 -12.5t17 -19l159 -223q9 -14 11 -23t-6 -15.5t-28 -9.5t-53 -3 q-28 0 -46.5 2t-31 6t-20.5 10.5t-17 15.5l-208 227q-10 11 -11 20.5z" />
<glyph unicode="&#x478;" horiz-adv-x="2197" d="M78 624q0 153 38.5 275.5t111.5 208.5t178 132t239 46q127 0 228 -38t170 -117t106.5 -200t37.5 -285q0 -157 -39 -281t-111.5 -210.5t-177.5 -131.5t-238 -45q-131 0 -232 38.5t-170.5 117.5t-105 201t-35.5 289zM348 637q0 -104 14 -186.5t46.5 -140.5t86.5 -89.5 t134 -31.5t134.5 35.5t89 96t49.5 141t15 171.5q0 100 -14 181.5t-47.5 139.5t-87 89.5t-132.5 31.5q-80 0 -135 -35t-89 -95t-49 -139.5t-15 -168.5zM1271 897q0 18 12 28.5t40 14t73 3.5q42 0 66.5 -1.5t38.5 -7t20.5 -18t13.5 -34.5l205 -583h3l188 595q6 25 15 33.5 t30.5 12t75.5 3.5q42 0 69.5 -3.5t41 -14.5t13.5 -29t-8 -42l-290 -854l-106 -309q-9 -24 -47.5 -34.5t-114.5 -10.5q-39 0 -62.5 3t-35 11t-12.5 19.5t6 28.5l116 292q-13 6 -23 18t-15 26l-300 801q-13 34 -13 52z" />
<glyph unicode="&#x479;" horiz-adv-x="1914" d="M70 460q0 111 29.5 203.5t86 158.5t140.5 102t193 36q212 0 319 -125t107 -357q0 -111 -28.5 -203.5t-85.5 -158.5t-141 -102t-193 -36q-105 0 -185.5 32t-133.5 93.5t-80.5 151.5t-27.5 205zM323 471q0 -64 10 -119t32 -94.5t56.5 -61.5t84.5 -22q90 0 138 78t48 216 q0 64 -9.5 118.5t-31 94.5t-56.5 62.5t-85 22.5q-44 0 -79 -20.5t-58.5 -59t-36.5 -93t-13 -122.5zM988 897q0 18 12 28.5t39.5 14t73.5 3.5q42 0 66.5 -1.5t38 -7t20.5 -18t14 -34.5l205 -583h3l187 595q6 25 15.5 33.5t31 12t75.5 3.5q42 0 69.5 -3.5t41 -14.5t13.5 -29 t-8 -42l-290 -854l-106 -309q-9 -24 -48 -34.5t-114 -10.5q-39 0 -62.5 3t-35 11t-12.5 19.5t6 28.5l116 292q-13 6 -23 18t-15 26l-300 801q-13 34 -13 52z" />
<glyph unicode="&#x47a;" horiz-adv-x="1430" d="M78 624q0 128 29.5 234.5t87 188t142.5 137t196 81.5q11 50 32 71q42 40 147 40t144 -39q19 -21 30 -64q113 -19 200.5 -66t146.5 -124.5t89.5 -186t30.5 -250.5q0 -132 -31.5 -240.5t-91 -191.5t-146 -138t-197.5 -79q-11 -48 -32 -68q-42 -40 -145 -40q-106 0 -146 39 q-20 20 -30 63q-222 39 -339 194.5t-117 438.5zM348 637q0 -79 9 -146.5t31 -121.5t59.5 -92.5t94.5 -59.5q9 24 23 37q42 40 147 40t144 -39q12 -12 22 -36q59 23 98.5 64.5t63 96t33.5 119t10 134.5q0 77 -10 144.5t-33 120.5t-62.5 92t-98.5 61q-9 -27 -24 -40 q-42 -40 -145 -40q-106 0 -146 39q-12 12 -20 32q-57 -25 -94.5 -66t-60.5 -94t-32 -115.5t-9 -129.5z" />
<glyph unicode="&#x47b;" horiz-adv-x="1171" d="M70 460q0 92 22.5 170.5t67.5 140.5t112 105.5t156 64.5q9 41 28 61q36 36 132 36t130 -35q18 -18 26 -56q182 -34 270 -153.5t88 -315.5q0 -92 -22.5 -171t-67 -141t-112 -105.5t-156.5 -64.5q-9 -40 -27 -58q-36 -36 -131 -37q-97 0 -131 36q-18 18 -26 53 q-182 34 -270.5 154t-88.5 316zM323 471q0 -90 27 -159t90 -105q6 13 16 22q36 36 132 37q96 0 130 -36q8 -10 14 -21q59 35 88 101t29 158q0 89 -27 157.5t-91 105.5q-7 -15 -14 -21q-36 -36 -131 -36t-131 35q-9 7 -15 20q-59 -35 -88 -101t-29 -157z" />
<glyph unicode="&#x47c;" horiz-adv-x="1892" d="M84 645q0 149 31 267.5t91 201t147.5 126.5t203.5 44q54 0 99 -6.5t79.5 -18t56.5 -25t31 -28.5q3 -4 6 -10t5.5 -16t4 -27.5t1.5 -45.5q0 -59 -11.5 -80.5t-21.5 -21.5q-12 0 -29 10.5t-43.5 23.5t-64 23.5t-88.5 10.5q-52 0 -94.5 -24t-72 -75.5t-45.5 -133t-16 -196.5 q0 -139 20 -227.5t56.5 -139t87 -70t111.5 -19.5q39 0 70 9t57 25t47.5 37.5t39.5 48.5q5 7 11 14.5t17 13.5t29 10t46 4q29 0 47 -4t29 -10.5t17 -14t11 -13.5q18 -26 38.5 -48t46.5 -38t58 -25t71 -9q61 0 111.5 19.5t87 70t56.5 139t20 227.5q0 115 -16 196.5t-46 133 t-72.5 75.5t-93.5 24q-52 0 -89 -10.5t-63.5 -23.5t-43.5 -23.5t-29 -10.5q-11 0 -22 22t-11 80q0 27 1.5 45t4 28t5 16t5.5 10q9 15 31.5 28.5t56.5 25t79 18t100 6.5q115 0 203 -44t148 -126.5t91 -201t31 -267.5q0 -336 -134.5 -501.5t-402.5 -165.5q-55 0 -103.5 11 t-89.5 29.5t-74.5 42.5t-58.5 49q-25 -25 -58.5 -49t-74.5 -42.5t-89.5 -29.5t-103.5 -11q-269 0 -402.5 165.5t-133.5 501.5zM606 1666q0 114 62 176t180 62q51 0 91 -10t75 -25t69 -33t73 -32.5t86 -24.5t110 -9q9 0 15.5 -2.5t11.5 -10t8 -22.5t3 -40q0 -24 -3 -39 t-9 -23t-14.5 -11t-20.5 -3q-66 -1 -118.5 8.5t-95.5 23.5t-78 30.5t-67.5 31.5t-63.5 24.5t-66 9.5q-41 0 -60 -28.5t-19 -65.5q0 -18 -19 -25t-68 -7q-47 0 -64.5 10t-17.5 35zM819 1540v8q0 27 8 44t24 26.5t41.5 13t60.5 3.5t60 -4t41 -14t23.5 -27.5t7.5 -43.5 q0 -42 -8.5 -77t-41.5 -75l-20 -25q-17 -20 -28.5 -32t-25 -19t-29 -10t-38.5 -3q-32 0 -40.5 4.5t-8.5 15.5q0 8 4.5 14.5t12.5 14.5l53 51q9 8 15 14t10 11t6.5 11t3.5 16q-26 0 -50 2.5t-41.5 11t-28.5 25t-11 44.5z" />
<glyph unicode="&#x47d;" horiz-adv-x="1589" d="M73 479q0 112 26.5 201.5t77.5 152t125 95t171 32.5q92 0 149 -18.5t72 -41.5q2 -3 5.5 -7t6.5 -14t5 -27t2 -45q0 -32 -4 -51t-9.5 -28t-11 -11.5t-10.5 -2.5q-10 0 -22.5 8t-33 17.5t-50 18t-72.5 8.5q-36 0 -68 -17t-55 -51.5t-37 -88.5t-14 -130q0 -94 18 -153.5 t46 -94t62.5 -47t67.5 -12.5q63 0 106 26.5t72 66.5q4 5 11 10.5t17.5 10t27.5 7.5t41 3t41 -3t27.5 -7.5t17.5 -10t11 -10.5q29 -40 72 -66.5t106 -26.5q32 0 67 12.5t63 47t46 94t18 153.5q0 76 -14 130t-37.5 88.5t-55 51.5t-67.5 17q-43 0 -72.5 -8.5t-50 -18t-33 -17.5 t-22.5 -8q-5 0 -10.5 2.5t-11 11.5t-9.5 27.5t-4 51.5q0 28 2 45t5 27t6.5 14t5.5 7q16 22 72.5 41t148.5 19q97 0 171 -32.5t125 -95t77.5 -152t26.5 -201.5q0 -127 -29.5 -221.5t-85.5 -156.5t-137.5 -92.5t-186.5 -30.5q-54 0 -97 9t-77.5 23.5t-61.5 33.5t-47 39 q-21 -20 -47.5 -39t-61.5 -33.5t-78 -23.5t-96 -9q-104 0 -186 30.5t-138 92.5t-85.5 156.5t-29.5 221.5zM467 1344q0 57 15.5 103t46.5 79t75.5 51t103.5 18q51 0 91 -10.5t75 -25.5t69.5 -32.5t73.5 -32.5t85.5 -25t109.5 -9q9 0 15.5 -3t12 -11.5t8 -24.5t2.5 -42 q0 -25 -3 -41.5t-9 -25t-14.5 -12t-20.5 -3.5q-66 -1 -118.5 8t-95.5 23.5t-78 31t-67 31t-63.5 24.5t-65.5 10q-41 0 -60 -28.5t-19 -65.5q0 -18 -19 -25t-68 -7q-47 0 -64.5 9.5t-17.5 35.5zM680 1208v8q0 55 31 75.5t102 20.5q70 0 101 -22t31 -76q0 -42 -8 -86.5 t-41 -85.5l-21 -24q-17 -20 -28.5 -32t-24.5 -19.5t-29 -10.5t-39 -3q-32 0 -40.5 5t-8.5 16q0 8 4.5 14t13.5 14l52 52q17 17 25.5 29.5t10.5 31.5q-26 0 -50.5 4t-42 14.5t-28 28.5t-10.5 46z" />
<glyph unicode="&#x47e;" horiz-adv-x="1892" d="M84 645q0 149 31 267.5t91 201t147.5 126.5t203.5 44q54 0 99 -6.5t79.5 -18t56.5 -25t31 -28.5q3 -4 6 -10t5.5 -16t4 -27.5t1.5 -45.5q0 -59 -11.5 -80.5t-21.5 -21.5q-12 0 -29 10.5t-43.5 23.5t-64 23.5t-88.5 10.5q-52 0 -94.5 -24t-72 -75.5t-45.5 -133t-16 -196.5 q0 -139 20 -227.5t56.5 -139t87 -70t111.5 -19.5t107.5 21.5t80.5 57.5v366q0 20 28 30.5t101 10.5t101 -11t28 -30v-366q34 -35 81 -57t108 -22t111.5 19.5t87 70t56.5 139t20 227.5q0 115 -16 196.5t-46 133t-72.5 75.5t-93.5 24q-52 0 -89 -10.5t-63.5 -23.5t-43.5 -23.5 t-29 -10.5q-11 0 -22 22t-11 80q0 27 1.5 45t4 28t5 16t5.5 10q9 15 31.5 28.5t56.5 25t79 18t100 6.5q115 0 203 -44t148 -126.5t91 -201t31 -267.5q0 -336 -134.5 -501.5t-402.5 -165.5q-55 0 -103.5 11t-89.5 29.5t-74.5 42.5t-58.5 49q-25 -25 -58.5 -49t-74.5 -42.5 t-89.5 -29.5t-103.5 -11q-269 0 -402.5 165.5t-133.5 501.5zM462 1602h968l-110 -239h-63l-47 97h-186l-47 -97h-62l-47 97h-186l-47 -97h-63zM613 1274z" />
<glyph unicode="&#x47f;" horiz-adv-x="1438" d="M34 905q0 10 5.5 17.5t19.5 12t37.5 6.5t60.5 2q40 0 65 -2t38.5 -7t20 -13t10.5 -20l192 -598q2 -6 3.5 -13.5t3.5 -14.5q2 -8 4 -15q2 9 5 17q2 8 4.5 14.5t4.5 11.5l123 292l-84 250q-8 21 -10.5 35.5t-2.5 24.5t5.5 17.5t19.5 12t37.5 6.5t60.5 2q40 0 65 -2t38.5 -7 t20 -13t10.5 -20l188 -600q1 -4 2 -10.5t3 -13.5q2 -8 3 -15q3 8 6 15q2 7 4.5 13.5t4.5 11.5q34 80 61 162t45 160.5t28 149.5t10 127q0 9 4 17t18.5 13.5t39.5 8.5t67 3q41 0 66 -2.5t39.5 -8t19 -13.5t4.5 -18q0 -62 -15 -143.5t-43 -175t-68 -194t-90 -200.5 q-41 -79 -66 -122.5t-34 -51.5q-7 -7 -20 -11t-30 -6t-37 -2.5t-37 -0.5q-41 0 -68 2.5t-43 8.5t-24.5 16t-13.5 26l-88 263l-107 -263q-7 -17 -15 -27t-24.5 -16t-42.5 -8t-68 -2q-41 0 -67.5 2.5t-42.5 8.5t-24.5 16t-14.5 26l-274 798q-8 21 -10.5 35.5t-2.5 24.5z M238 1297h968l-110 -239h-63l-47 97h-186l-47 -97h-62l-47 97h-186l-47 -97h-63zM389 969z" />
<glyph unicode="&#x480;" horiz-adv-x="1035" d="M77 615q0 161 43 286t120 210t185 129t238 44q53 0 101.5 -9t89.5 -23q42 -15 75 -33q33 -17 47 -31t18.5 -22.5t7.5 -21.5q3 -14 4.5 -32.5t1.5 -46.5q0 -59 -9 -83t-27 -24q-15 0 -37.5 17t-57.5 38t-85 38t-118 17q-75 0 -134.5 -30.5t-100.5 -87.5t-63 -139t-22 -182 q0 -111 23 -193t65.5 -134.5t102.5 -78.5t136 -26q51 0 83 9.5t48 9.5q14 0 19.5 -13t5.5 -53v-464q0 -10 -6.5 -18t-21 -13t-39.5 -7.5t-62 -2.5q-74 0 -101.5 10.5t-27.5 30.5v296q-117 9 -210 53.5t-158 123.5t-99.5 193.5t-34.5 262.5z" />
<glyph unicode="&#x481;" horiz-adv-x="814" d="M71 452q0 130 33 225.5t91.5 158t138.5 93t176 30.5q38 0 76 -8t70.5 -19t58 -24.5t37.5 -25.5q10 -9 15 -18t8 -20t3.5 -27.5t0.5 -42.5q0 -57 -9.5 -79.5t-25.5 -22.5q-17 0 -35.5 13.5t-43.5 30t-60.5 30.5t-83.5 14q-97 0 -147.5 -73.5t-50.5 -216.5t50 -214.5 t150 -71.5q32 0 57 6t43.5 14t29.5 14.5t17 6.5q11 0 16 -9.5t5 -41.5v-490q0 -10 -5.5 -17.5t-20 -12.5t-38 -7t-59.5 -2t-59.5 2t-37.5 7t-20 12.5t-6 17.5v296q-184 13 -279 134.5t-95 337.5z" />
<glyph unicode="&#x482;" horiz-adv-x="1218" d="M68 554q0 12 5.5 28t18.5 38q14 23 26 36.5t22.5 18.5t20 4t16.5 -5l254 -146l175 308l-253 145q-8 5 -14 13.5t-6 22.5q0 12 5.5 27.5t17.5 37.5q14 23 26.5 36.5t23 18.5t20 4.5t15.5 -4.5l254 -146l163 285q8 14 25 14q14 0 34 -8t51 -25q52 -30 66 -49.5t5 -34.5 l-163 -285l253 -146q8 -5 13.5 -13t5.5 -22q0 -12 -4.5 -27.5t-17.5 -37.5q-15 -25 -27.5 -38.5t-23 -18.5t-19 -3.5t-15.5 5.5l-254 145l-176 -306l254 -146q8 -5 14 -13t6 -22q0 -12 -5.5 -27.5t-18.5 -37.5q-15 -25 -27.5 -38.5t-22.5 -18.5t-19 -3.5t-16 5.5l-254 146 l-164 -288q-8 -14 -24 -13q-13 0 -32.5 7.5t-50.5 25.5q-53 30 -67.5 48.5t-5.5 34.5l164 288l-254 146q-8 5 -14 12.5t-6 21.5z" />
<glyph unicode="&#x483;" horiz-adv-x="0" d="M-845 938zM-827 1158q0 66 29.5 95.5t97.5 29.5h397q8 47 35 74t79 27q65 0 90 -30.5t25 -92.5q0 -66 -30 -95.5t-97 -29.5h-399q-8 -47 -34 -74t-79 -27q-33 0 -55 7.5t-35.5 22.5t-18.5 38.5t-5 54.5z" />
<glyph unicode="&#x484;" horiz-adv-x="0" d="M-840 938zM-836 1150q0 26 2.5 42t8 25t12 11.5t15.5 2.5q62 0 109 10t86 24.5t73.5 32t69.5 33t75 25.5t91 10q59 0 103.5 -18t75.5 -50.5t46.5 -79t15.5 -103.5q0 -25 -17.5 -35t-64.5 -10q-49 0 -68 7.5t-19 25.5q0 37 -19 65t-60 28q-34 0 -65.5 -9.5t-63.5 -24.5 t-67 -31.5t-78 -30.5t-95.5 -23.5t-118.5 -8.5q-12 0 -21 3.5t-14.5 12.5t-8.5 25t-3 41z" />
<glyph unicode="&#x485;" horiz-adv-x="0" d="M-745 938zM-587 1316q0 54 31 76.5t101 22.5q71 0 102.5 -21t31.5 -76v-7q0 -28 -11 -46.5t-28.5 -28.5t-41.5 -14t-50 -4q2 -20 10.5 -32.5t24.5 -29.5l53 -52q9 -8 13 -14t4 -14q0 -11 -8 -15.5t-40 -4.5q-23 0 -39 3t-29 10t-25.5 19.5t-27.5 31.5l-21 25 q-33 41 -41.5 85t-8.5 86z" />
<glyph unicode="&#x486;" horiz-adv-x="0" d="M-737 938zM-579 1311v7q0 55 31.5 76t102.5 21q70 0 101 -22.5t31 -76.5q0 -42 -8.5 -86t-41.5 -85l-20 -25q-17 -20 -29 -32t-25 -19t-28.5 -10t-39.5 -3q-32 0 -40 4.5t-8 15.5q0 8 4 14.5t13 13.5l53 52q17 17 25 29.5t10 32.5q-26 0 -50 4t-41.5 14t-28.5 28t-11 47z " />
<glyph unicode="&#x488;" horiz-adv-x="1970" d="M-9 419q0 53 14 93.5t41.5 68t71 42.5t102.5 15q61 0 103.5 -15t70 -42.5t40.5 -67.5t13 -92q0 -16 -13 -22.5t-51 -6.5q-20 0 -32.5 2t-20.5 5.5t-11.5 9.5t-3.5 14q-3 21 -8 38t-16.5 28.5t-28.5 18t-42 6.5q-22 0 -39.5 -5.5t-30 -17t-19.5 -28.5t-9 -40 q-2 -16 -15.5 -23.5t-47.5 -7.5q-21 0 -34 2t-20.5 4.5t-10.5 8t-3 12.5zM106 -69q0 53 14 93t41.5 68t71 42.5t102.5 14.5q61 0 103.5 -14.5t70 -42.5t40.5 -68t13 -91q0 -16 -13 -23t-51 -7q-20 0 -32.5 2t-20 6t-11 10t-3.5 14q-3 21 -8.5 37.5t-16.5 28.5t-28.5 18 t-42.5 6q-22 0 -39.5 -5t-30 -16.5t-19.5 -28.5t-9 -40q-2 -16 -15.5 -24t-47.5 -8q-21 0 -34 2t-20.5 5t-10.5 8.5t-3 12.5zM106 896q0 53 14 93t41.5 68t71 42.5t102.5 14.5q61 0 103.5 -14.5t70 -42.5t40.5 -68t13 -92q0 -16 -13 -22.5t-51 -6.5q-20 0 -32.5 2t-20 6 t-11 10t-3.5 13q-3 21 -8.5 38t-16.5 29t-28.5 18t-42.5 6q-22 0 -39.5 -5.5t-30 -16.5t-19.5 -28.5t-9 -40.5q-2 -16 -15.5 -23.5t-47.5 -7.5q-21 0 -34 2t-20.5 5t-10.5 8.5t-3 12.5zM745 -340q0 53 13.5 93.5t41.5 68.5t71.5 42.5t102.5 14.5q61 0 103.5 -14.5t70 -42.5 t40.5 -68t13 -92q0 -16 -13 -22.5t-51 -6.5q-20 0 -32.5 2t-20.5 6t-11.5 9.5t-3.5 13.5q-3 21 -8 38t-16.5 28.5t-28.5 18t-42 6.5q-22 0 -39.5 -5.5t-30 -16.5t-19.5 -28.5t-9 -40.5q-2 -16 -16 -24q-14 -7 -48 -7q-21 0 -33.5 2t-20 5t-10.5 8t-3 12zM745 1174 q0 53 13.5 93.5t41.5 68t71.5 42.5t102.5 15q61 0 103.5 -15t70 -42.5t40.5 -67.5t13 -92q0 -16 -13 -23t-51 -7q-20 0 -32.5 2t-20.5 6t-11.5 10t-3.5 14q-3 21 -8 37.5t-16.5 28.5t-28.5 18.5t-42 6.5q-22 0 -39.5 -5.5t-30 -17t-19.5 -28.5t-9 -40q-2 -16 -16 -24t-48 -8 q-21 0 -33.5 2t-20 5t-10.5 8.5t-3 12.5zM1392 -69q0 53 13.5 93t41.5 68t71.5 42.5t101.5 14.5q61 0 104 -14.5t70 -42.5t40.5 -68t13.5 -91q0 -16 -13.5 -23t-51.5 -7q-20 0 -32.5 2t-20 6t-11 10t-3.5 14q-3 21 -8.5 37.5t-16.5 28.5t-28 18t-43 6q-22 0 -39.5 -5 t-30 -16.5t-19.5 -28.5t-9 -40q-2 -16 -15.5 -24t-47.5 -8q-21 0 -34 2t-20.5 5t-10 8.5t-2.5 12.5zM1392 896q0 53 13.5 93t41.5 68t71.5 42.5t101.5 14.5q61 0 104 -14.5t70 -42.5t40.5 -68t13.5 -92q0 -16 -13.5 -22.5t-51.5 -6.5q-20 0 -32.5 2t-20 6t-11 10t-3.5 13 q-3 21 -8.5 38t-16.5 29t-28 18t-43 6q-22 0 -39.5 -5.5t-30 -16.5t-19.5 -28.5t-9 -40.5q-2 -16 -15.5 -23.5t-47.5 -7.5q-21 0 -34 2t-20.5 5t-10 8.5t-2.5 12.5zM1518 419q0 53 13.5 93.5t41.5 68t71.5 42.5t101.5 15q61 0 104 -15t70 -42.5t40.5 -67.5t13.5 -92 q0 -16 -13.5 -22.5t-51.5 -6.5q-20 0 -32.5 2t-20 5.5t-11 9.5t-3.5 14q-3 21 -8.5 38t-16.5 28.5t-28.5 18t-42.5 6.5q-22 0 -39.5 -5.5t-30 -17t-19.5 -28.5t-9 -40q-2 -16 -15.5 -23.5t-47.5 -7.5q-21 0 -34 2t-20.5 4.5t-10 8t-2.5 12.5z" />
<glyph unicode="&#x489;" horiz-adv-x="1898" d="M-28 624q0 22 2 36.5t5.5 20.5t10 6.5t15.5 -3.5l215 -95h124q26 0 42.5 -6.5t25 -19.5t11.5 -33.5t3 -50.5q0 -27 -3 -46.5t-11.5 -32t-25 -18.5t-42.5 -6q-31 0 -56.5 3t-48.5 10t-44.5 18t-44.5 28l-149 104q-8 6 -14 12.5t-8.5 16t-4.5 23t-2 33.5zM142.5 -55.5 q-1.5 6.5 2.5 11.5t13 9l219 85l88 87q19 19 35 26t31.5 3.5t31.5 -15.5t38 -33q20 -20 31.5 -36t14 -30.5t-5 -30.5t-26.5 -35q-21 -21 -41 -37t-41.5 -27.5t-44.5 -18.5q-22 -7 -50 -11l-180 -33q-10 -1 -19 -1t-17.5 5t-19.5 13.5t-25 21.5q-16 17 -24.5 28.5t-10 18z M299 1220q0 9 5 17.5t13 19.5t22 25q17 16 28 24.5t18 10t11.5 -2.5t8.5 -13l85 -219l87 -88q19 -19 26 -35t4 -31.5t-15.5 -31.5t-32.5 -38q-20 -20 -36 -31.5t-30.5 -14t-30.5 5t-35 26.5q-21 21 -37.5 41t-27.5 41.5t-18.5 44.5t-11.5 50l-32 180q-1 10 -1 19z M771.5 -450.5q-0.5 6.5 3.5 14.5l95 215v124q0 26 6.5 43t19.5 25t33.5 11t49.5 3q27 0 47 -3t32.5 -11t18.5 -25t6 -43q0 -31 -3 -56.5t-10.5 -48.5t-18 -44.5t-27.5 -43.5l-104 -149q-6 -8 -12.5 -14t-16 -9t-23 -5t-33.5 -2q-22 0 -36.5 2t-20.5 6t-6.5 10.5zM816 1115 q0 31 3 56.5t10.5 48.5t18 44.5t27.5 44.5l104 149q6 8 12.5 14t16.5 8.5t23 4.5t33 2q22 0 36.5 -2t20.5 -5.5t6.5 -10t-3.5 -15.5l-95 -215v-124q0 -26 -6 -42.5t-19.5 -25t-34 -11.5t-49.5 -3q-27 0 -46.5 3t-32.5 11.5t-19 25t-6 42.5zM1253 966.5q-3 14.5 4.5 30.5 t26.5 35q21 21 41.5 37.5t42 27.5t44.5 18.5t50 11.5l180 32q10 1 18.5 1t17.5 -5t19.5 -13t25.5 -22q16 -17 24.5 -28t10 -18t-3 -11.5t-13.5 -8.5l-219 -85l-87 -87q-19 -19 -35 -26t-31.5 -4t-32 15.5t-37.5 32.5q-20 20 -31.5 36t-14.5 30.5zM1292.5 90.5 q3.5 15.5 15.5 32t33 37.5q20 20 36 31.5t30.5 14.5t30.5 -4.5t35 -26.5q21 -21 37 -41.5t27.5 -42t18.5 -44.5t11 -50l33 -180q1 -10 1 -18.5t-5 -17.5t-13.5 -19.5t-21.5 -25.5q-17 -16 -28.5 -24.5t-18 -10t-11.5 3t-9 13.5l-85 219l-87 87q-19 19 -26 35t-3.5 31.5z M1474 539q0 27 2.5 46.5t11 32.5t25.5 19t43 6q31 0 56.5 -3t48.5 -10.5t44.5 -18t43.5 -27.5l149 -105q8 -6 14 -12t9 -16t5 -23t2 -33q0 -22 -2 -36.5t-6 -20.5t-10.5 -6.5t-14.5 3.5l-215 95h-124q-26 0 -43 6t-25.5 19.5t-11 34t-2.5 49.5z" />
<glyph unicode="&#x48a;" horiz-adv-x="1382" d="M138 35v1195q0 10 6 17.5t21.5 12.5t39.5 7.5t62 2.5t62.5 -2.5t39 -7.5t20.5 -12.5t6 -17.5v-669q0 -31 -1 -66.5t-3 -68.5h2q17 29 42 70t52 80l440 655q7 10 14.5 17.5t21 12.5t33 7t49.5 2q37 0 60 -2.5t36.5 -7.5t19 -12.5t5.5 -18.5v-1045h158q22 0 34 -3.5 t16.5 -10.5t2.5 -16t-8 -22l-193 -430q-12 -25 -44 -33.5t-102 -8.5q-40 0 -65 4t-37 11.5t-13.5 17.5t5.5 22l153 280q-17 -1 -36 -1q-37 0 -62 2.5t-39 7.5t-20 12t-6 17v666q0 38 1 75t3 65h-2q-8 -14 -18.5 -32t-23 -38t-26.5 -41q-13 -20 -27 -40l-439 -656 q-8 -11 -16 -18.5t-21.5 -12t-32.5 -6t-49 -1.5q-38 0 -61.5 2.5t-37 7.5t-18 12.5t-4.5 18.5zM308 1603q0 15 5 24t18 14.5t35 8t55 2.5q31 0 51.5 -3t31.5 -8.5t15 -15t4 -21.5q0 -23 9.5 -44t27.5 -36t44.5 -25t58.5 -10q31 0 56.5 9.5t43.5 24.5t27.5 36t9.5 46 q0 12 4 21t15 14.5t30 8.5t48 3q35 0 58.5 -2.5t37 -8t19 -14.5t5.5 -24q0 -54 -19 -103.5t-60.5 -87t-109 -60t-166.5 -22.5q-96 0 -163 20.5t-109.5 56t-62 86t-19.5 110.5z" />
<glyph unicode="&#x48b;" horiz-adv-x="1177" d="M123 31v874q0 9 5.5 16.5t19.5 12t37 7t58 2.5q69 0 97.5 -9.5t28.5 -28.5v-386q0 -40 -3 -83t-8 -83q23 39 48 77.5t52 74.5l297 400q8 11 16.5 18.5t22 11.5t32.5 6t49 2q34 0 56.5 -2t35.5 -6.5t18 -12.5t5 -18v-720h129q22 0 34 -3.5t16.5 -10.5t2.5 -16t-8 -22 l-184 -415q-6 -13 -14.5 -21t-22.5 -12.5t-35.5 -6.5t-53.5 -2q-37 0 -59.5 4t-33.5 11t-12.5 17.5t5.5 21.5l143 265h-26q-35 0 -59 2t-39 6.5t-21.5 11.5t-6.5 16v389q0 41 2.5 85t7.5 86q-23 -41 -50.5 -80.5t-56.5 -78.5l-294 -400q-9 -11 -16.5 -18t-19.5 -11.5 t-30.5 -6t-48.5 -1.5q-35 0 -57 2t-35 6.5t-18.5 11.5t-5.5 17zM209 1320q0 15 5.5 24.5t18 15t34.5 8t55 2.5q31 0 52 -3t31.5 -9t15 -15.5t4.5 -22.5q0 -26 9 -48.5t27 -38.5t44.5 -25.5t58.5 -9.5q31 0 56.5 9t44 25.5t27.5 39.5t9 50q0 12 4 21t15 15t30.5 9t48.5 3 q35 0 58 -2.5t36.5 -8t19 -15t5.5 -24.5q0 -58 -18.5 -108.5t-60 -89t-109.5 -61t-167 -22.5q-96 0 -163 20.5t-109.5 57t-62 89t-19.5 114.5z" />
<glyph unicode="&#x48c;" horiz-adv-x="1135" d="M15 1049q0 28 2.5 45.5t7 28t12 14t16.5 3.5h114v90q0 10 6.5 17.5t21.5 12.5t40 7.5t61 2.5q38 0 62.5 -2.5t39 -7.5t20.5 -12.5t6 -17.5v-90h223q19 0 29 -18t10 -73q0 -28 -2.5 -46t-7.5 -28t-12.5 -14t-16.5 -4h-223v-157h177q144 0 228.5 -25t143.5 -74t91.5 -120 t32.5 -162q0 -90 -27 -165t-87 -131.5t-157 -89.5t-264 -33h-316q-17 0 -31 4.5t-24.5 14.5t-17 25.5t-6.5 36.5v876h-114q-9 0 -16.5 3.5t-12 13t-7 28t-2.5 47.5zM424 199h153q92 0 137.5 18t71 47t36.5 64t11 69q0 48 -13.5 85.5t-42 63.5t-73 40.5t-132.5 14.5h-148 v-402z" />
<glyph unicode="&#x48d;" horiz-adv-x="1006" d="M12 1105q0 31 2.5 50.5t7 30t12 14.5t16.5 4h91v117q0 10 5.5 17.5t20 12t38 7t58.5 2.5q36 0 59.5 -2.5t37.5 -7t20.5 -12t6.5 -17.5v-117h226q9 0 16.5 -4t12 -14.5t7 -30t2.5 -50.5t-2.5 -50.5t-7 -30t-12 -14.5t-16.5 -4h-226v-370q33 3 72 5t80 2q110 0 191.5 -22 t133.5 -63t78 -99.5t26 -132.5q0 -77 -29 -141t-88.5 -109.5t-150 -70.5t-213.5 -25q-32 0 -66 0.5t-67.5 2t-65 3.5t-59.5 5q-47 5 -67.5 28.5t-20.5 71.5v915h-91q-9 0 -16.5 3.5t-12 13.5t-7 30t-2.5 52zM387 172q28 -3 60 -5t68 -2q100 0 147 39t47 108q0 34 -10.5 61 t-34.5 46t-62 29t-92 10q-34 0 -66.5 -1.5t-56.5 -3.5v-281z" />
<glyph unicode="&#x48e;" horiz-adv-x="1064" d="M138 35v1137q0 46 24 69t63 23h297q45 0 85.5 -3.5t97.5 -15t115 -41.5t99 -76.5t62.5 -108.5t21.5 -139q0 -106 -33 -188.5t-96.5 -138.5t-156 -85.5t-217.5 -29.5h-105v-403q0 -10 -6.5 -17.5t-21 -12.5t-39 -8t-62.5 -3q-37 0 -62 3t-40 8t-20.5 12.5t-5.5 17.5z M395 637h115q62 0 103 16.5t67.5 46t40 71t13.5 90.5q0 66 -23 109.5t-57.5 64t-72 25.5t-77.5 5h-109v-428zM480 746q0 14 12 28t41 34q39 28 64 27q18 0 25 -14l288 -415q5 -6 6.5 -13t1.5 -13q-1 -14 -14 -28t-36 -30t-38.5 -22.5t-25.5 -6.5q-17 0 -29 16l-289 417 q-6 9 -6 20z" />
<glyph unicode="&#x48f;" horiz-adv-x="1073" d="M123 -312v1216q0 10 5 17.5t17 12t32 7t51 2.5q29 0 49 -2.5t32 -7t17 -12t5 -17.5v-102q38 39 74.5 68.5t75 49.5t79 30t86.5 10q96 0 163 -37.5t109.5 -103t62 -152.5t19.5 -186q0 -116 -25 -209t-73 -158.5t-119 -100.5t-163 -35q-38 0 -69.5 7t-61.5 22t-59.5 37.5 t-60.5 53.5v-410q0 -10 -6 -18t-20 -13.5t-37.5 -8t-59.5 -2.5t-59.5 2.5t-37.5 8t-20 13.5t-6 18zM369 323q52 -65 99 -100.5t97 -35.5q48 0 82 24t55.5 63.5t31.5 89.5t10 100q0 56 -8 107t-28 91t-53 64t-82 24q-24 0 -48 -7.5t-49 -24t-51.5 -43t-55.5 -65.5v-287z M522 291q0 14 12 28t41 34q39 28 64 27q18 0 25 -14l288 -415q5 -6 6.5 -13t1.5 -13q-1 -14 -14 -28t-36 -30t-38.5 -22.5t-25.5 -6.5q-17 0 -29 16l-289 417q-6 9 -6 20z" />
<glyph unicode="&#x490;" horiz-adv-x="868" d="M138 33v1150q0 41 21 61t55 20h413v239q0 10 4.5 16.5t16 11.5t32.5 7.5t55 2.5q37 0 59.5 -3t34.5 -8.5t15.5 -12.5t3.5 -17v-363q0 -42 -20.5 -63t-55.5 -21h-376v-1020q0 -10 -6.5 -17t-21 -12t-39 -7.5t-62.5 -2.5q-37 0 -62 2.5t-40 7.5t-21 12t-6 17z" />
<glyph unicode="&#x491;" horiz-adv-x="734" d="M123 33v825q0 39 16.5 59.5t51.5 20.5h311v190q0 7 4.5 12.5t16 10t31 6.5t50.5 2q33 0 53.5 -2.5t31.5 -7t15 -11.5t4 -14v-324q0 -39 -16.5 -59t-51.5 -20h-271v-688q0 -10 -6 -17t-20 -12t-37.5 -7.5t-59.5 -2.5t-59.5 2.5t-37.5 7.5t-20 12t-6 17z" />
<glyph unicode="&#x492;" horiz-adv-x="881" d="M16 652q0 28 2.5 46t7 28t12 13.5t16.5 3.5h113v429q0 46 24 69t63 23h579q9 0 16 -5t12 -17t7.5 -31.5t2.5 -47.5q0 -27 -2.5 -46.5t-7.5 -31.5t-12 -17.5t-16 -5.5h-408v-319h215q19 0 28.5 -17.5t9.5 -73.5q0 -28 -2.5 -45.5t-7.5 -28t-12.5 -14t-15.5 -3.5h-215v-526 q0 -11 -6 -18t-21 -12.5t-39.5 -8t-62.5 -2.5q-37 0 -62 2.5t-39.5 8t-21 12.5t-6.5 18v526h-113q-9 0 -16.5 3t-12 13t-7 28t-2.5 47z" />
<glyph unicode="&#x493;" horiz-adv-x="755" d="M16 463q0 31 2.5 50t7 30t12 15t16.5 4h116v296q0 39 16.5 59.5t51.5 20.5h461q10 0 17 -5.5t11.5 -18.5t7.5 -34t3 -51t-3 -51t-7.5 -34t-11.5 -18t-17 -5h-283v-159h220q9 0 16 -4t12 -15t7.5 -30.5t2.5 -49.5q0 -31 -2.5 -50.5t-7.5 -30.5t-12 -15t-16 -4h-220v-330 q0 -10 -6 -17t-20 -12t-37.5 -7.5t-59.5 -2.5t-59.5 2.5t-37.5 7.5t-20 12t-6 17v330h-116q-9 0 -16.5 3.5t-12 14t-7 30.5t-2.5 52z" />
<glyph unicode="&#x494;" horiz-adv-x="1108" d="M138 35v1137q0 47 24 69.5t63 22.5h579q19 0 28.5 -21.5t9.5 -79.5q0 -56 -10 -78.5t-28 -22.5h-408v-283q30 3 69 3q141 0 251 -39t186.5 -112.5t117 -179t40.5 -238.5q0 -141 -33 -249t-93.5 -181t-146.5 -110.5t-192 -37.5q-83 0 -133.5 14.5t-68.5 33.5 q-6 6 -11.5 13t-9 18.5t-5.5 27.5t-2 40q0 31 2.5 51.5t7 31.5t10.5 15.5t11 4.5q6 0 18 -5.5t31.5 -11.5t49 -11t72.5 -5q45 0 85 20.5t71 64.5t49 114.5t18 171.5q0 92 -29 158t-76.5 108t-109 62t-127.5 20q-28 0 -52 -3v-533q0 -11 -6 -18t-21 -12.5t-39.5 -8 t-62.5 -2.5q-74 0 -101.5 10.5t-27.5 30.5z" />
<glyph unicode="&#x495;" horiz-adv-x="913" d="M123 33v825q0 80 68 80h461q19 0 29 -23.5t10 -85.5t-10 -85t-29 -23h-283v-174h16q108 0 197 -30.5t151.5 -88t96.5 -140.5t34 -188q0 -111 -28.5 -198t-81 -146.5t-125 -90t-160.5 -30.5q-70 0 -111.5 12t-55.5 27q-10 10 -17 28.5t-7 60.5q0 60 9 81t20 21 q8 0 17.5 -4.5t25 -9.5t39.5 -9.5t60 -4.5q30 0 59.5 12t52 42t36.5 80t14 125q0 71 -17.5 120.5t-48 79.5t-72 43.5t-89.5 13.5h-15v-320q0 -10 -6 -17t-20 -12t-37.5 -7.5t-59.5 -2.5t-59.5 2.5t-37.5 7.5t-20 12t-6 17z" />
<glyph unicode="&#x496;" horiz-adv-x="1775" d="M57 34q0 5 0.5 12t2.5 16t6 22t11 30l88 252q24 70 48.5 118.5t52 81.5t59.5 54t72 36v1q-34 11 -62.5 29.5t-53.5 49.5t-48 76.5t-45 111.5l-76 226q-11 31 -14.5 49.5t-3.5 30.5q0 11 5 18.5t19.5 12t39.5 7t64 2.5q41 0 66 -2.5t40 -8t21 -15t10 -22.5l80 -268 q17 -56 36 -94t44.5 -61.5t58.5 -33.5t79 -10h50v474q0 11 5.5 18.5t19.5 12.5t38.5 7.5t61.5 2.5t61.5 -2.5t38.5 -7.5t20 -12.5t6 -18.5v-474h50q44 0 77.5 11t59.5 35.5t45.5 62t35.5 91.5l80 267q4 14 10 23t21 14.5t40 8t66 2.5q39 0 63.5 -2.5t39.5 -7t20 -12t5 -18.5 q0 -13 -4.5 -31t-13.5 -49l-75 -222q-21 -62 -43.5 -107t-47.5 -75t-54 -50t-65 -34v-1q41 -18 73 -39.5t59.5 -55t51 -81.5t48.5 -119l52 -153h132q25 0 36.5 -12.5t11.5 -32.5v-465q0 -20 -22.5 -30t-89.5 -10q-66 0 -89 10.5t-23 29.5v292q-16 -1 -33 -1q-41 0 -67.5 2.5 t-41.5 8t-22.5 14.5t-12.5 23l-91 286q-19 61 -40.5 101.5t-49.5 66t-62.5 35.5t-79.5 10h-50v-506q0 -11 -6 -18t-20 -12.5t-38.5 -8t-61.5 -2.5t-61.5 2.5t-38.5 8t-19.5 12.5t-5.5 18v506h-50q-48 0 -84 -12t-63.5 -38t-48 -66t-37.5 -97l-90 -286q-5 -14 -12.5 -23 t-23 -14.5t-41.5 -8t-67 -2.5t-66 2.5t-40.5 7.5t-21 12t-5.5 18z" />
<glyph unicode="&#x497;" horiz-adv-x="1560" d="M47 23q0 8 4 21.5t14 38.5l84 191q21 50 43.5 84.5t47 58t50.5 39.5t57 28v2q-23 8 -47 21.5t-47 35.5t-45 56t-43 85l-69 169q-10 23 -14 36.5t-4 23.5q0 8 5 13.5t18 9t36 5.5t59 2q41 0 67 -2t40.5 -6t21 -11.5t10.5 -17.5l69 -190q16 -41 31.5 -69t34.5 -44.5 t42.5 -24t53.5 -7.5h49v343q0 8 6.5 13.5t21 8.5t38 5t56.5 2t56 -2t38 -5t21 -8.5t6 -13.5v-343h50q29 0 53 8t43.5 25t36 44.5t31.5 67.5l74 190q4 10 9.5 17.5t19.5 11.5t39 6t65 2q36 0 59 -2t36.5 -5.5t18.5 -9t5 -13.5q0 -10 -3.5 -23.5t-13.5 -36.5l-72 -169 q-21 -50 -43 -84.5t-44 -56.5t-44.5 -35t-45.5 -21v-2q30 -13 56.5 -28.5t49.5 -39t44.5 -58.5t42.5 -85l29 -69h129q27 0 37.5 -10t10.5 -39v-447q-1 -14 -26.5 -21.5t-78.5 -7.5q-57 0 -82.5 7.5t-25.5 21.5v285h-14q-41 0 -67.5 2t-41 6t-21.5 11t-11 15l-81 206 q-17 43 -33.5 72t-36.5 46t-45 24.5t-59 7.5h-50v-360q0 -8 -6 -13.5t-21 -9t-37.5 -5.5t-56.5 -2q-33 0 -56.5 2t-38 5.5t-21 9.5t-6.5 13v360h-49q-35 0 -60 -7.5t-45.5 -24.5t-37.5 -46t-33 -72l-80 -206q-4 -9 -11 -15.5t-21.5 -10.5t-40.5 -6t-67 -2q-36 0 -59.5 2 t-37.5 5.5t-20 9t-6 12.5z" />
<glyph unicode="&#x498;" horiz-adv-x="963" d="M61 198q0 41 7 55.5t22 14.5q12 0 33.5 -12.5t54.5 -28t80 -28t110 -12.5q53 0 96 12.5t72.5 36t46.5 56t17 72.5q0 44 -15.5 79.5t-47.5 59.5t-81.5 37.5t-118.5 13.5h-134q-15 0 -23.5 4t-14 14.5t-7 29.5t-1.5 50q0 28 2 46.5t7.5 29t13.5 15t20 4.5h136 q60 0 105.5 12t76.5 34.5t47 55.5t16 75q0 35 -11 64.5t-34.5 49.5t-60 31t-85.5 11q-59 0 -106 -12.5t-81.5 -27.5t-58.5 -28t-36 -13q-7 0 -11.5 4t-8.5 14t-5.5 27.5t-1.5 46.5q0 20 1 36.5t4 30t8 23.5t15 20t42 25.5t77.5 29t103.5 22t122 8.5q102 0 177.5 -21.5 t126.5 -62t76 -99.5t25 -135q0 -61 -16.5 -110.5t-47 -88t-73 -64t-94.5 -37.5v-2q60 -7 109 -33t84 -66t55 -91t20 -110q0 -96 -36.5 -168.5t-103.5 -122t-160 -73.5t-206 -24q-62 0 -114.5 8.5t-91 21.5t-62 26t-33.5 21t-15 17t-8 25t-4 40.5t-1 60.5zM243 -254 q0 18 2 29.5t5.5 18t10.5 9t17 2.5h99q29 0 45 9.5t16 30.5q0 16 -9 32.5t-33 40.5l-82 82h245l41 -42q22 -21 36.5 -40.5t22.5 -37.5t11.5 -35.5t3.5 -35.5q0 -42 -18 -73.5t-49 -52t-73 -30t-91 -9.5q-47 0 -87 5.5t-76 18.5q-10 3 -17.5 8t-11.5 13.5t-6 22.5t-2 34z" />
<glyph unicode="&#x499;" horiz-adv-x="853" d="M57 158q0 22 2 36t5 23t8 12t12 3q13 0 33 -12t50.5 -26t75 -27t107.5 -13q43 0 75.5 9t54.5 25t33 39.5t11 52.5q0 27 -10.5 49t-35.5 37t-65.5 22.5t-99.5 7.5h-93q-13 0 -21 4.5t-12.5 14.5t-6 26.5t-1.5 39.5q0 22 2 37.5t6 24.5t11.5 13t18.5 4h91q53 0 91 7.5 t62 22.5t35.5 37t11.5 52q0 25 -11 45t-30.5 33.5t-47 19.5t-61.5 6q-56 0 -99 -12t-75.5 -27t-53.5 -26.5t-31 -11.5q-6 0 -11 2.5t-9.5 11t-7 23t-2.5 38.5q0 38 5.5 61t17.5 35.5t43 27.5t72.5 27t91 20t100.5 8q80 0 146.5 -15.5t113 -47.5t71.5 -79t25 -108 q0 -37 -12 -71.5t-33.5 -62t-52 -49t-70.5 -33.5l-1 -2q42 -5 78.5 -23.5t64.5 -46.5t44 -66t16 -82q0 -72 -30 -127t-85 -93t-132.5 -57t-174.5 -19q-50 0 -95.5 7t-84.5 18.5t-64 23.5t-36.5 21.5t-17 18.5t-8 21t-3.5 29t-1 41zM193 -254q0 18 2 29.5t5.5 18t10.5 9 t17 2.5h99q29 0 45 9.5t16 30.5q0 16 -9 32.5t-33 40.5l-82 82h245l41 -42q22 -21 36.5 -40.5t22.5 -37.5t11.5 -35.5t3.5 -35.5q0 -42 -18 -73.5t-49 -52t-73 -30t-91 -9.5q-47 0 -87 5.5t-76 18.5q-10 3 -17.5 8t-11.5 13.5t-6 22.5t-2 34z" />
<glyph unicode="&#x49a;" horiz-adv-x="1238" d="M138 35v1194q0 11 6 18.5t21 12.5t39.5 7.5t62.5 2.5t62.5 -2.5t39 -7.5t20.5 -12.5t6 -18.5v-474h57q44 0 77 11.5t60 37t49 66t43 100.5l85 252q5 14 11.5 23t21.5 14.5t40 8t67 2.5q38 0 63 -2.5t39 -7t19 -12t5 -18.5q0 -13 -4.5 -31t-14.5 -49l-85 -224 q-23 -62 -47 -106.5t-49.5 -75t-54.5 -50t-64 -32.5v-1q39 -17 70.5 -37.5t59.5 -53t53.5 -79.5t51.5 -115l65 -163h133q25 0 37 -12.5t12 -32.5v-465q0 -20 -23 -30t-89 -10t-89 10.5t-23 29.5v292q-14 -1 -31 -1q-42 0 -67.5 2.5t-41.5 8t-23.5 14.5t-11.5 23l-102 281 q-21 62 -44.5 103.5t-52 67.5t-64.5 36.5t-81 10.5h-57v-506q0 -11 -6 -18t-20.5 -12.5t-39 -8t-62.5 -2.5q-37 0 -62 2.5t-40 8t-21 12.5t-6 18z" />
<glyph unicode="&#x49b;" horiz-adv-x="1073" d="M123 28v882q0 7 6.5 13.5t21 10.5t38 6.5t57.5 2.5q33 0 56.5 -2.5t38 -6.5t21.5 -10.5t7 -13.5v-339h50q30 0 54.5 7.5t44.5 24.5t37 45.5t33 70.5l73 187q3 10 10 17.5t21 11.5t39 6t66 2q36 0 59 -2t36 -5.5t18 -9t5 -13.5q0 -10 -4 -23.5t-14 -36.5l-69 -166 q-21 -50 -43.5 -85t-46.5 -57.5t-48.5 -36t-46.5 -21.5v-2q30 -13 56.5 -27.5t50 -38t45.5 -58t44 -83.5l31 -73h126q27 0 37.5 -10t10.5 -39v-447q-1 -14 -26.5 -21.5t-79.5 -7.5q-57 0 -82 7.5t-25 21.5v285h-12q-41 0 -67 2t-42 5.5t-22.5 10.5t-10.5 16l-81 208 q-15 42 -32 70.5t-37.5 45.5t-47 24.5t-60.5 7.5h-50v-356q0 -7 -7 -13t-21.5 -11t-38 -7.5t-56.5 -2.5q-34 0 -57.5 2.5t-38 7.5t-21 11t-6.5 13z" />
<glyph unicode="&#x49c;" horiz-adv-x="1174" d="M138 35v1194q0 11 6 18.5t21 12.5t39.5 7.5t62.5 2.5t62.5 -2.5t39 -7.5t20.5 -12.5t6 -18.5v-474h74v141q0 50 15.5 71t64.5 21t64 -21t15 -71v-109q10 7 19 17q27 25 49.5 65.5t42.5 100.5l85 252q5 14 12 23t22 14.5t40 8t67 2.5q38 0 63 -2.5t39 -7t19 -12t5 -18.5 q0 -13 -4.5 -31t-15.5 -49l-85 -224q-23 -62 -46.5 -106.5t-49.5 -75t-54.5 -50t-64.5 -32.5v-1q39 -17 71 -37.5t60 -53t53 -79.5t52 -115l103 -262q16 -40 19 -55t3 -25q0 -11 -6 -18t-21 -12t-40.5 -7.5t-65.5 -2.5q-42 0 -68 2.5t-41.5 8t-23.5 14.5t-12 23l-101 281 q-21 62 -44.5 103.5t-52.5 66.5q-14 13 -28 22v-109q0 -50 -15.5 -71t-64.5 -21t-64 21t-15 71v135h-74v-506q0 -11 -6 -18t-20.5 -12.5t-39 -8t-62.5 -2.5q-37 0 -62 2.5t-40 8t-21 12.5t-6 18z" />
<glyph unicode="&#x49d;" horiz-adv-x="1057" d="M123 28v882q0 7 6.5 13.5t21 10.5t38 6.5t57.5 2.5q33 0 56.5 -2.5t38 -6.5t21.5 -10.5t7 -13.5v-339h65v134q0 48 14.5 68t61.5 20t61 -20t14 -68v-103l1 1q21 18 38 46t32 70l73 187q3 10 10 17.5t21 11.5t39 6t66 2q36 0 59 -2t36.5 -5.5t18 -9t4.5 -13.5 q0 -10 -3.5 -23.5t-13.5 -36.5l-70 -166q-21 -50 -43.5 -85t-46.5 -57.5t-48.5 -36t-46.5 -21.5v-2q30 -13 56.5 -27.5t50.5 -38t46 -58t43 -83.5l85 -195q6 -13 9.5 -22t5.5 -16.5t2.5 -12.5t0.5 -9q0 -8 -5.5 -13t-19 -8.5t-37.5 -5.5t-60 -2q-41 0 -67.5 2t-42 5.5 t-22.5 10.5t-11 16l-81 208q-15 42 -32 70.5t-37 45.5q-5 4 -10 7v-106q0 -48 -14.5 -68t-61.5 -20t-61 20t-14 68v131h-65v-356q0 -7 -7 -13t-21.5 -11t-38 -7.5t-56.5 -2.5q-34 0 -57.5 2.5t-38 7.5t-21 11t-6.5 13z" />
<glyph unicode="&#x49e;" horiz-adv-x="1152" d="M16 1019q0 28 2.5 45.5t7 28t12 13.5t16.5 3h120v120q0 11 6.5 18.5t21 12.5t39.5 7.5t62 2.5q38 0 62.5 -2.5t39 -7.5t20.5 -12.5t6 -18.5v-120h146q19 0 28.5 -17.5t9.5 -72.5q0 -28 -2.5 -46t-7 -28t-12 -14t-16.5 -4h-146v-172h57q44 0 77.5 11.5t60 37t48.5 66 t43 100.5l85 252q5 14 11.5 23t22 14.5t40 8t66.5 2.5q38 0 63 -2.5t39.5 -7t19 -12t4.5 -18.5q0 -13 -4 -31t-15 -49l-85 -224q-23 -62 -46.5 -106.5t-49.5 -75t-55 -50t-64 -32.5v-1q39 -17 71 -37.5t59.5 -53t53 -79.5t51.5 -115l104 -262q16 -40 18.5 -55t2.5 -25 q0 -11 -5.5 -18t-21 -12t-40.5 -7.5t-65 -2.5q-42 0 -68 2.5t-41.5 8t-23.5 14.5t-12 23l-102 281q-21 62 -44.5 103.5t-52 67.5t-64.5 36.5t-81 10.5h-57v-506q0 -11 -6 -18t-20.5 -12.5t-39 -8t-62.5 -2.5q-37 0 -62 2.5t-39.5 8t-21 12.5t-6.5 18v892h-120 q-9 0 -16.5 3.5t-12 13t-7 27.5t-2.5 48z" />
<glyph unicode="&#x49f;" horiz-adv-x="1022" d="M16 1144q0 26 2 42.5t6 26t10.5 12.5t14.5 3h107v98q0 7 6.5 13.5t21 10.5t38 6.5t57.5 2.5q33 0 56.5 -2.5t38.5 -6.5t21.5 -10.5t6.5 -13.5v-98h197q17 0 25 -16t8 -68q0 -26 -2 -43t-6.5 -26.5t-11 -12.5t-13.5 -3h-197v-488h50q30 0 54.5 7.5t44.5 24.5t37 45.5 t33 70.5l73 187q3 10 10 17.5t21 11.5t39 6t66 2q36 0 59 -2t36 -5.5t18 -9t5 -13.5q0 -10 -4 -23.5t-13 -36.5l-70 -166q-21 -50 -43.5 -85t-46.5 -57.5t-48.5 -36t-46.5 -21.5v-2q30 -13 56.5 -27.5t50.5 -38t46 -58t43 -83.5l85 -195q6 -13 9.5 -22t5.5 -16.5t2.5 -12.5 t0.5 -9q0 -8 -5.5 -13t-19 -8.5t-37.5 -5.5t-60 -2q-41 0 -67.5 2t-42 5.5t-22.5 10.5t-11 16l-81 208q-15 42 -32 70.5t-37.5 45.5t-47 24.5t-60.5 7.5h-50v-356q0 -7 -6.5 -13t-21.5 -11t-38.5 -7.5t-56.5 -2.5q-34 0 -57.5 2.5t-38 7.5t-21 11t-6.5 13v1031h-107 q-8 0 -14.5 2.5t-10.5 11.5t-6 25.5t-2 45.5z" />
<glyph unicode="&#x4a0;" horiz-adv-x="1291" d="M12 1163q0 60 9 80.5t29 20.5h444q76 0 76 -74v-435h58q44 0 77 11t60.5 37t49 67t41.5 100l85 252q5 14 12 23t22 14.5t40.5 8t66.5 2.5q39 0 63.5 -2.5t38 -7t19 -12.5t5.5 -18q0 -13 -4.5 -31t-15.5 -49l-84 -224q-23 -62 -47 -106.5t-50 -75t-54.5 -50t-63.5 -32.5 v-1q39 -17 70.5 -37.5t59.5 -53t53.5 -79.5t51.5 -115l104 -262q8 -21 12 -34t6 -21.5t2.5 -14t0.5 -10.5q0 -11 -6 -18t-21 -12t-41 -7.5t-65 -2.5q-41 0 -67.5 2.5t-42 8t-23 14.5t-11.5 23l-102 281q-21 62 -44.5 103.5t-52.5 67.5t-64 36.5t-81 10.5h-58v-506 q0 -11 -5.5 -18t-20.5 -12.5t-39.5 -8t-62.5 -2.5q-74 0 -101.5 10.5t-27.5 30.5v1027h-263q-20 0 -29 22t-9 79z" />
<glyph unicode="&#x4a1;" horiz-adv-x="1137" d="M12 829q0 30 3 51t7.5 34t11.5 18.5t17 5.5h398q35 0 52 -20.5t17 -59.5v-287h49q30 0 54.5 7.5t45 24.5t37.5 45.5t32 70.5l74 187q3 10 9.5 17.5t20.5 11.5t39 6t66 2q36 0 59 -2t36.5 -5.5t18 -9t4.5 -13.5q0 -10 -3.5 -23.5t-13.5 -36.5l-69 -166q-21 -50 -44 -85 t-47 -57.5t-48.5 -36t-46.5 -21.5v-2q30 -13 56.5 -27.5t50.5 -38t46 -58t43 -83.5l85 -195q6 -13 9.5 -22t5.5 -16.5t2.5 -12.5t0.5 -9q0 -8 -5.5 -13t-19 -8.5t-37.5 -5.5t-60 -2q-41 0 -67.5 2t-42 5.5t-22.5 10.5t-11 16l-81 208q-15 42 -32 70.5t-37.5 45.5t-46.5 24.5 t-61 7.5h-49v-356q0 -7 -7 -13t-21.5 -11t-38 -7.5t-56.5 -2.5q-34 0 -58 2.5t-38.5 7.5t-21 11t-6.5 13v693h-220q-10 0 -17 5t-11.5 18t-7.5 34t-3 51z" />
<glyph unicode="&#x4a2;" horiz-adv-x="1345" d="M138 35v1194q0 20 27 30.5t102 10.5q38 0 62.5 -3t39 -8t20.5 -13t6 -17v-464h472v464q0 10 6 17.5t20.5 12.5t39.5 8t63 3q73 0 100.5 -11t27.5 -30v-1016h130q25 0 37 -12.5t12 -32.5v-465q0 -20 -23 -30t-90 -10q-66 0 -89 10.5t-23 29.5v291h-82q-38 0 -63 3t-39.5 8 t-20.5 12.5t-6 17.5v511h-472v-511q0 -10 -6 -17.5t-20.5 -12.5t-39 -8t-62.5 -3q-74 0 -101.5 11t-27.5 30z" />
<glyph unicode="&#x4a3;" horiz-adv-x="1144" d="M123 33v871q0 10 6 17.5t20 12t37.5 7t59.5 2.5t59.5 -2.5t37.5 -7t20 -12t6 -17.5v-326h353v326q0 10 5.5 17.5t19.5 12t38 7t60 2.5q35 0 59 -2.5t37.5 -7t19.5 -12t6 -17.5v-699h100q27 0 37.5 -10t10.5 -39v-447q-1 -14 -26.5 -21.5t-78.5 -7.5q-57 0 -82.5 7.5 t-25.5 21.5v285h-57q-36 0 -60 2.5t-38 7.5t-19.5 12t-5.5 17v343h-353v-343q0 -10 -6 -17t-20 -12t-37.5 -7.5t-59.5 -2.5t-59.5 2.5t-37.5 7.5t-20 12t-6 17z" />
<glyph unicode="&#x4a4;" horiz-adv-x="1455" d="M138 35v1194q0 10 6 17.5t21 12.5t39.5 8t62.5 3t62.5 -3t39 -8t20.5 -13t6 -17v-464h472v407q0 46 24 69t63 23h451q9 0 16.5 -5t12 -17t7 -31.5t2.5 -47.5q0 -27 -2.5 -46.5t-7 -31.5t-12 -17.5t-16.5 -5.5h-281v-1027q0 -10 -6.5 -17.5t-21 -12.5t-39 -8t-61.5 -3 q-38 0 -63 3t-39 8t-20.5 12.5t-6.5 17.5v511h-472v-511q0 -10 -6 -17.5t-20.5 -12.5t-39 -8t-62.5 -3q-37 0 -62 3t-40 8t-21 12.5t-6 17.5z" />
<glyph unicode="&#x4a5;" horiz-adv-x="1239" d="M123 33v871q0 10 6 17.5t20 12t37.5 7t59.5 2.5t59.5 -2.5t37.5 -7t20 -12t6 -17.5v-326h353v280q0 39 16.5 59.5t51.5 20.5h398q10 0 17 -5.5t12 -18.5t8 -34t3 -51t-3 -51t-8 -34t-12 -18t-17 -5h-221v-688q0 -10 -6 -17t-19.5 -12t-37.5 -7.5t-59 -2.5q-36 0 -60 2.5 t-38 7.5t-19.5 12t-5.5 17v343h-353v-343q0 -10 -6 -17t-20 -12t-37.5 -7.5t-59.5 -2.5t-59.5 2.5t-37.5 7.5t-20 12t-6 17z" />
<glyph unicode="&#x4a6;" horiz-adv-x="1835" d="M138 33v1139q0 46 24 69t63 23h812q39 0 63 -23t24 -69v-393q30 3 68 3q141 0 251.5 -39t186.5 -112.5t116.5 -179t40.5 -238.5q0 -141 -32.5 -249t-93 -181t-146.5 -110.5t-193 -37.5q-83 0 -133 14.5t-69 33.5q-6 6 -11 13t-8.5 18.5t-5.5 27.5t-2 40q0 31 2.5 51.5 t6.5 31.5t10 15.5t12 4.5t17.5 -5.5t31 -11.5t49.5 -11t73 -5q45 0 85 20.5t70.5 64.5t49 114.5t18.5 171.5q0 92 -29 158t-77 108t-109.5 62t-126.5 20q-28 0 -52 -3v-535q0 -10 -6.5 -17t-21 -12t-39 -7.5t-61.5 -2.5q-38 0 -63 2.5t-39 7.5t-20.5 12t-6.5 17v1012h-472 v-1012q0 -10 -6 -17t-20.5 -12t-39 -7.5t-62.5 -2.5q-37 0 -62 2.5t-40 7.5t-21 12t-6 17z" />
<glyph unicode="&#x4a7;" horiz-adv-x="1488" d="M123 33v825q0 39 16.5 59.5t51.5 20.5h686q34 0 50.5 -20.5t16.5 -59.5v-311h16q108 0 197 -30.5t151.5 -88t96.5 -140.5t34 -188q0 -111 -28.5 -198t-81 -146.5t-125 -90t-160.5 -30.5q-70 0 -111 12t-56 27q-10 10 -16.5 28.5t-6.5 60.5q0 60 8.5 81t19.5 21 q8 0 17.5 -4.5t25 -9.5t39.5 -9.5t60 -4.5q30 0 59.5 12t52 42t37 80t14.5 125q0 71 -18 120.5t-48.5 79.5t-72 43.5t-89.5 13.5h-15v-320q0 -10 -5.5 -17t-20 -12t-38 -7.5t-59.5 -2.5q-35 0 -59 2.5t-38.5 7.5t-20 12t-5.5 17v701h-329v-701q0 -10 -6.5 -17t-20.5 -12 t-37.5 -7.5t-59.5 -2.5t-59.5 2.5t-37.5 7.5t-19.5 12t-5.5 17z" />
<glyph unicode="&#x4a8;" horiz-adv-x="1319" d="M78 615q0 158 39.5 283t115 211t183.5 131.5t247 45.5q34 0 67.5 -5t58.5 -14q24 -10 34 -32t10 -76q0 -34 -4 -55t-10 -32t-13.5 -14.5t-14.5 -3.5q-5 0 -18.5 3.5t-31.5 7t-39 7t-40 3.5q-84 0 -144 -32t-99 -91.5t-57 -144.5t-18 -192q0 -213 83 -320t240 -107 q-57 87 -88.5 190.5t-31.5 216.5q0 104 27 181t72.5 128t108 76t133.5 25t133.5 -23.5t109.5 -73.5t73.5 -127t26.5 -184q0 -64 -13 -127t-38 -121.5t-61 -111.5t-81 -97q33 -12 69 -12q26 0 50.5 4t44.5 9t34 9t21 4t12.5 -3.5t10 -13.5t6.5 -30.5t2 -53.5q0 -50 -7.5 -75 t-25.5 -33q-13 -6 -31 -10t-38 -7t-40.5 -5t-37.5 -2q-74 0 -142.5 23.5t-129.5 65.5q-44 -16 -89 -24t-94 -8q-138 0 -244.5 41.5t-180.5 122t-112 199.5t-38 274zM807 597q0 -92 18.5 -169t50.5 -137q48 59 72 136.5t24 156.5q0 108 -22 159t-64 51t-60.5 -48.5 t-18.5 -148.5z" />
<glyph unicode="&#x4a9;" horiz-adv-x="1127" d="M70 459q0 120 34.5 213.5t98 157.5t152.5 97t201 33q36 0 67 -4t54 -12q11 -4 17.5 -7.5t11 -13.5t6.5 -28t2 -48q0 -27 -3.5 -44t-9.5 -26t-12.5 -12t-13.5 -3t-13.5 1t-14.5 3q-14 3 -33 6.5t-49 3.5q-49 0 -94 -16.5t-80.5 -53t-57 -95.5t-21.5 -144q0 -62 13.5 -115 t41.5 -92.5t72 -63.5t106 -30q-38 53 -61.5 115t-23.5 136q0 70 20 128t57.5 99t91.5 63t121 22q59 0 112 -19.5t94 -58.5t65 -96t24 -131q0 -94 -36 -165t-94 -126q13 -2 25.5 -3t24.5 -1q27 0 43.5 2.5t27.5 6t17.5 6t11.5 2.5q8 0 15 -3.5t12 -13.5t7.5 -27.5t2.5 -44.5 q0 -26 -2 -44.5t-6.5 -30t-12.5 -18.5t-20 -12q-11 -5 -27 -8t-34.5 -4.5t-35.5 -2t-31 -0.5q-61 0 -118.5 17t-107.5 48q-38 -13 -70.5 -18.5t-75.5 -5.5q-111 0 -201.5 31t-154.5 92t-99.5 151t-35.5 207zM687 428q0 -62 17 -112t45 -83q32 31 49.5 79.5t17.5 113.5 q0 59 -16.5 92t-49.5 33q-32 0 -47.5 -33t-15.5 -90z" />
<glyph unicode="&#x4aa;" horiz-adv-x="1058" d="M77 615q0 161 43 286t120 210t185 129t238 44q53 0 101.5 -8.5t90 -23t75 -33t46.5 -31.5t18 -22t8 -22.5t4.5 -32t1.5 -46.5q0 -29 -2 -49.5t-7 -33t-12 -18.5t-15 -6q-15 0 -37.5 17t-58 38t-85 38t-117.5 17q-75 0 -134.5 -30.5t-101 -87.5t-63 -138.5t-21.5 -182.5 q0 -111 23 -193t65.5 -134.5t102.5 -78.5t136 -26q68 0 118 16t85.5 36t58.5 35.5t36 15.5q10 0 15.5 -4t9.5 -15.5t6 -33t2 -56.5q0 -24 -1.5 -41t-4.5 -29.5t-8 -21t-15.5 -20t-41.5 -29t-75.5 -33.5t-101.5 -27t-123 -11q-130 0 -234.5 40.5t-178 120t-112.5 198.5 t-39 277zM430 -254q0 18 2 29.5t5.5 18t10.5 9t17 2.5h99q29 0 45 9.5t16 30.5q0 16 -9 32.5t-33 40.5l-82 82h245l41 -42q22 -21 36.5 -40.5t22.5 -37.5t11.5 -35.5t3.5 -35.5q0 -42 -18 -73.5t-49 -52t-73 -30t-91 -9.5q-47 0 -87 5.5t-76 18.5q-10 3 -17.5 8t-11.5 13.5 t-6 22.5t-2 34z" />
<glyph unicode="&#x4ab;" horiz-adv-x="836" d="M70 452q0 131 33 226t91.5 157.5t138.5 93t176 30.5q39 0 76.5 -7t70 -18.5t58.5 -26t37 -25.5t15.5 -18.5t6.5 -19t3.5 -28.5t1.5 -42q0 -57 -9.5 -79.5t-25.5 -22.5q-17 0 -35.5 13.5t-43.5 30t-60.5 30.5t-83.5 14q-96 0 -147 -74t-51 -216q0 -70 13 -124t37.5 -90 t62.5 -54t87 -18q51 0 87.5 15t64 33.5t46 33.5t31.5 15q9 0 14.5 -5t9 -18t5.5 -33.5t2 -52.5q0 -25 -1.5 -42.5t-4 -29t-5.5 -19t-15 -18.5t-40 -27t-64.5 -29t-79 -20.5t-87.5 -7.5q-101 0 -178.5 31t-130 92t-79.5 149t-27 201zM268 -254q0 18 2 29.5t5.5 18t10.5 9 t17 2.5h99q29 0 45 9.5t16 30.5q0 16 -9 32.5t-33 40.5l-82 82h245l41 -42q22 -21 36.5 -40.5t22.5 -37.5t11.5 -35.5t3.5 -35.5q0 -42 -18 -73.5t-49 -52t-73 -30t-91 -9.5q-47 0 -87 5.5t-76 18.5q-10 3 -17.5 8t-11.5 13.5t-6 22.5t-2 34z" />
<glyph unicode="&#x4ac;" horiz-adv-x="990" d="M12 1158q0 29 2.5 50t7 33t11.5 17.5t17 5.5h890q9 0 16.5 -5.5t12.5 -17.5t7.5 -33t2.5 -50q0 -28 -2.5 -48t-7.5 -32.5t-12.5 -18t-16.5 -5.5h-316v-841h129q25 0 37 -12.5t12 -32.5v-465q0 -20 -23 -30t-90 -10q-66 0 -89 10.5t-23 29.5v291h-82q-37 0 -62 3t-39.5 8 t-21 12.5t-6.5 17.5v1019h-316q-10 0 -17 5.5t-11.5 18t-7 32.5t-2.5 48z" />
<glyph unicode="&#x4ad;" horiz-adv-x="778" d="M9 832q0 29 3 49t7.5 33t11.5 18.5t17 5.5h683q9 0 16.5 -5.5t12.5 -18.5t7.5 -34t2.5 -51q0 -32 -2.5 -53.5t-7.5 -34t-12.5 -17.5t-16.5 -5h-219v-514h100q27 0 37.5 -10t10.5 -39v-447q-1 -14 -26.5 -21.5t-78.5 -7.5q-57 0 -82.5 7.5t-25.5 21.5v285h-58 q-35 0 -58.5 2.5t-38 7.5t-19.5 12t-5 17v686h-220q-10 0 -17.5 5t-12 18t-7 35.5t-2.5 54.5z" />
<glyph unicode="&#x4ae;" horiz-adv-x="1039" d="M21 1224q-5 20 6 30.5t41.5 13t83.5 2.5q45 0 72 -2t42.5 -7.5t23 -14.5t14.5 -22l140 -311q21 -45 41 -94.5t40 -104.5h2q19 53 38.5 102.5t38.5 94.5l138 309q5 16 12.5 25t22 15t40 8t67.5 2q56 0 86.5 -2.5t41.5 -13t5.5 -31t-23.5 -55.5l-346 -689v-444 q0 -10 -6 -17.5t-21 -12.5t-39.5 -8t-61.5 -3q-38 0 -62.5 3t-40 8t-21 12.5t-5.5 17.5v444l-346 689q-19 36 -24 56z" />
<glyph unicode="&#x4af;" horiz-adv-x="952" d="M16 905q0 21 25.5 29.5t99.5 8.5q40 0 65 -2t40 -7t21.5 -13t11.5 -20l197 -537l7 -24l8 24l194 537q4 12 11 20t21 12.5t37.5 7t60.5 2.5q36 0 59.5 -2t37.5 -6.5t19.5 -12t5.5 -17.5q0 -11 -7 -31t-15 -39l-316 -776v-375q0 -10 -6 -17.5t-20 -12.5t-37.5 -7t-59.5 -2 t-59.5 2t-38 7t-20 12.5t-5.5 17.5v375l-315 776q-11 25 -16.5 44t-5.5 26z" />
<glyph unicode="&#x4b0;" horiz-adv-x="1039" d="M21 1224q-5 20 6 30.5t41.5 13t83.5 2.5q45 0 72 -2t42.5 -7.5t23 -14.5t14.5 -22l140 -311q21 -45 41 -94.5t40 -104.5h2q19 53 38.5 102.5t38.5 94.5l138 309q5 16 12.5 25t22 15t40 8t67.5 2q56 0 86.5 -2.5t41.5 -13t5.5 -31t-23.5 -55.5l-346 -689v-16h246 q19 0 28.5 -17.5t9.5 -73.5q0 -28 -2.5 -45.5t-7.5 -28t-12.5 -14.5t-15.5 -4h-246v-245q0 -10 -6 -17.5t-21 -12.5t-39.5 -8t-61.5 -3q-38 0 -62.5 3t-40 8t-21 12.5t-5.5 17.5v245h-245q-9 0 -16.5 3.5t-12.5 13.5t-7.5 28t-2.5 47q0 28 2.5 46t7.5 28t12.5 13.5t16.5 3.5 h245v16l-346 689q-19 36 -24 56z" />
<glyph unicode="&#x4b1;" horiz-adv-x="952" d="M16 905q0 21 25.5 29.5t99.5 8.5q40 0 65 -2t40 -7t21.5 -13t11.5 -20l197 -537l7 -24l8 24l194 537q4 12 11 20t21 12.5t37.5 7t60.5 2.5q36 0 59.5 -2t37.5 -6.5t19.5 -12t5.5 -17.5q0 -11 -7 -31t-15 -39l-316 -776v-30h156q9 0 16 -4t12 -14.5t7.5 -30t2.5 -49.5 q0 -31 -2.5 -51t-7.5 -30.5t-12 -14.5t-16 -4h-156v-147q0 -10 -6 -17.5t-20 -12.5t-37.5 -7t-59.5 -2t-59.5 2t-38 7t-20 12.5t-5.5 17.5v147h-156q-9 0 -16 3.5t-12 13.5t-7.5 30t-2.5 53q0 31 2.5 50t7.5 29.5t12 14.5t16 4h156v30l-315 776q-11 25 -16.5 44t-5.5 26z " />
<glyph unicode="&#x4b2;" horiz-adv-x="1209" d="M38 41.5q6 20.5 24 55.5l303 551l-281 519q-18 35 -24 56t5 31.5t41.5 13t85.5 2.5q46 0 73 -2t42.5 -6.5t22 -12.5t12.5 -20l221 -417l216 417q6 12 12.5 20t20.5 12.5t39 6.5t69 2q49 0 77 -2.5t39 -13.5t5.5 -31.5t-21.5 -55.5l-282 -516l237 -438h143q25 0 37 -12.5 t12 -32.5v-465q0 -20 -23 -30t-89 -10t-89.5 10.5t-23.5 29.5v291h-15q-47 0 -73 2t-41 6.5t-22 12t-12 19.5l-237 456l-236 -456q-6 -12 -13 -19.5t-22 -12t-42 -6.5t-71 -2q-51 0 -78.5 3t-37.5 13.5t-4 31z" />
<glyph unicode="&#x4b3;" horiz-adv-x="1001" d="M31.5 23.5q-0.5 10.5 8.5 27.5l241 428l-222 403q-9 18 -9.5 30t12 19t40.5 9.5t76 2.5q43 0 68.5 -1.5t40.5 -4t21.5 -9t11.5 -16.5l156 -291l154 291q3 8 9 14t18.5 9.5t34.5 5.5t60 2q43 0 69 -2t37 -8.5t10.5 -19t-11.5 -31.5l-216 -396l154 -281h130q27 0 37.5 -10 t10.5 -39v-447q-1 -14 -26.5 -21.5t-79.5 -7.5q-57 0 -82 7.5t-25 21.5v285h-4q-44 0 -71 2q-26 1 -41.5 5.5t-23 11t-11.5 15.5l-161 310l-161 -310q-4 -10 -10.5 -16t-21 -10.5t-40 -6t-66.5 -1.5q-43 0 -68 2.5t-37 9.5t-12.5 17.5z" />
<glyph unicode="&#x4b4;" horiz-adv-x="1504" d="M12 1158q0 29 2.5 50t7 33t11.5 17.5t17 5.5h811q9 0 16.5 -5.5t12.5 -17.5t7 -32.5t2 -50.5q0 -28 -2 -48t-7 -32.5t-12.5 -18t-16.5 -5.5h-277v-841h467v1017q0 10 6 17.5t21 12.5t40 7.5t62 2.5q38 0 62.5 -2.5t39 -7.5t20.5 -12.5t6 -17.5v-1017h111q24 0 33.5 -11.5 t9.5 -41.5v-458q0 -10 -5 -16.5t-17 -11t-34 -7t-55 -2.5t-55 2.5t-35 7t-18.5 11t-5.5 16.5v298h-836q-34 0 -54 20t-20 61v973h-277q-10 0 -17 5.5t-11.5 18t-7 32.5t-2.5 48z" />
<glyph unicode="&#x4b5;" horiz-adv-x="1224" d="M9 832q0 29 3 49t7.5 33t11.5 18.5t17 5.5h596q9 0 16 -5.5t12 -18.5t7.5 -34t2.5 -51q0 -32 -2.5 -53.5t-7.5 -34t-12.5 -17.5t-15.5 -5h-176v-514h333v699q0 10 5.5 17.5t20 12t38.5 7t59 2.5q36 0 59.5 -2.5t37.5 -7t20 -12t6 -17.5v-699h100q27 0 37.5 -10t10.5 -39 v-447q-1 -14 -26 -21.5t-79 -7.5q-57 0 -82.5 7.5t-25.5 21.5v291h-690q-35 0 -51.5 20t-16.5 59v640h-176q-10 0 -17.5 5t-12 18t-7 35.5t-2.5 54.5z" />
<glyph unicode="&#x4b6;" horiz-adv-x="1198" d="M75 868v361q0 10 6 17.5t20 12.5t38 8t60 3q37 0 62 -3t40.5 -8t22.5 -12.5t7 -17.5v-335q0 -59 12 -102t40.5 -71.5t75 -43t115.5 -14.5q44 0 86 3.5t84 8.5v554q0 10 7 17.5t22.5 12.5t40.5 8t61 3q37 0 61 -3t38 -8t20.5 -12.5t6.5 -17.5v-1016h111q24 0 33.5 -11.5 t9.5 -41.5v-458q0 -10 -4.5 -16.5t-17 -11t-34.5 -7t-55 -2.5t-54.5 2.5t-35 7t-18.5 11t-5 16.5v292h-56q-36 0 -61 3t-40.5 8t-22.5 12t-7 17v432q-52 -5 -101.5 -8.5t-100.5 -3.5q-104 0 -189.5 18.5t-147.5 65t-96 127t-34 203.5z" />
<glyph unicode="&#x4b7;" horiz-adv-x="1060" d="M76 624v280q0 10 5.5 17.5t19.5 12t37.5 7t59.5 2.5t59.5 -2.5t38 -7t19.5 -12t5 -17.5v-243q0 -64 10 -94t27.5 -48t43 -25.5t58.5 -7.5q47 0 91.5 11.5t87.5 32.5v374q0 10 5 17.5t19.5 12t38.5 7t60 2.5q35 0 59 -2.5t37.5 -7t19.5 -12t6 -17.5v-699h100 q27 0 37.5 -10t10.5 -39v-447q-1 -14 -26.5 -21.5t-78.5 -7.5q-57 0 -82.5 7.5t-25.5 21.5v285h-57q-36 0 -60 2.5t-38.5 7.5t-19.5 12t-5 17v300q-48 -21 -102.5 -31t-119.5 -10q-99 0 -163.5 23.5t-104.5 65.5t-56 98.5t-16 144.5z" />
<glyph unicode="&#x4b8;" horiz-adv-x="1138" d="M75 868v361q0 10 6 17.5t20 12.5t38 8t60 3q37 0 62 -3t40.5 -8t22.5 -12.5t7 -17.5v-335q0 -59 12 -102t40.5 -71.5t74.5 -42.5l2 -1v143q0 50 15.5 71t64.5 21t64 -21t15 -71v-157q21 2 41 3q42 4 84 9v554q0 10 7 17.5t22.5 12.5t40.5 8t61 3q37 0 61 -3t38 -8 t20.5 -12.5t6.5 -17.5v-1195q0 -10 -6.5 -17t-20.5 -12t-38 -8t-61 -3q-36 0 -61 3t-40.5 8t-22.5 12t-7 17v432q-52 -5 -101 -9q-12 -1 -24 -1v-126q0 -50 -15.5 -71t-64.5 -21t-64 21t-15 71v127q-58 4 -108 16q-85 19 -147 65t-96 126.5t-34 203.5z" />
<glyph unicode="&#x4b9;" horiz-adv-x="1005" d="M76 624v280q0 10 5.5 17.5t19.5 12t37.5 7t59.5 2.5t59.5 -2.5t38 -7t19.5 -12t5 -17.5v-243q0 -64 10 -94t27.5 -48t42.5 -26l4 -1v145q0 48 15 68t61 20q47 0 61.5 -20t14.5 -68v-139q41 12 82 32v374q0 10 5 17.5t19.5 12t38.5 7t60 2.5q35 0 59 -2.5t37.5 -7 t19.5 -12t6 -17.5v-871q0 -10 -6 -17t-19.5 -12t-37.5 -7.5t-59 -2.5q-36 0 -60 2.5t-38.5 7.5t-19.5 12t-5 17v300q-39 -17 -82 -27v-121q0 -48 -15 -68t-62 -20t-61 20t-14 68v107q-91 1 -152 23q-64 23 -104 65.5t-56 99t-16 144.5z" />
<glyph unicode="&#x4ba;" horiz-adv-x="1138" d="M138 34v1195q0 10 6 17.5t20.5 12.5t38.5 8t61 3q36 0 61 -3t40.5 -8t22.5 -12.5t7 -17.5v-431q52 5 101.5 8.5t100.5 3.5q104 0 189.5 -19t147.5 -65t95.5 -126.5t33.5 -203.5v-362q0 -10 -5.5 -17t-20 -12t-38 -8t-60.5 -3t-61.5 3t-40.5 8t-22.5 12t-6.5 17v336 q0 59 -12.5 102t-40.5 71t-74.5 43t-116.5 15q-44 0 -85.5 -3.5t-83.5 -8.5v-555q0 -10 -7 -17t-22.5 -12t-40.5 -8t-61 -3q-37 0 -61 3t-38.5 8t-20.5 12t-6 17z" />
<glyph unicode="&#x4bb;" horiz-adv-x="1005" d="M123 33v871q0 10 6 17.5t19.5 12t37.5 7t59 2.5q36 0 60 -2.5t38 -7t19.5 -12t5.5 -17.5v-300q48 21 102 31.5t120 10.5q99 0 163.5 -23.5t104 -65.5t56 -99t16.5 -145v-280q0 -10 -5.5 -17t-19.5 -12t-37.5 -7.5t-59.5 -2.5t-59.5 2.5t-38 7.5t-19.5 12t-5 17v243 q0 64 -10 94t-27.5 48.5t-43 25.5t-58.5 7q-47 0 -91.5 -11t-87.5 -33v-374q0 -10 -5.5 -17t-19.5 -12t-38 -7.5t-60 -2.5q-35 0 -59 2.5t-37.5 7.5t-19.5 12t-6 17z" />
<glyph unicode="&#x4bc;" horiz-adv-x="1559" d="M29 811q0 37 6.5 75t17.5 63q5 12 12 21t20 15.5t32.5 10t49.5 3.5q33 0 54.5 -2t33.5 -6.5t16 -10t4 -12.5q0 -9 -3.5 -20.5t-8.5 -27t-9 -34t-4 -38.5q0 -42 22 -63t59 -26q18 117 64.5 213.5t122 166t178.5 107.5t232 38q136 0 239.5 -45t173 -131t105 -210t35.5 -283 q0 -27 -13.5 -48t-46.5 -21h-825q8 -82 32 -148.5t68 -113.5t109.5 -72t155.5 -25q80 0 148.5 19.5t122.5 42.5t92.5 43t58.5 20q16 0 22 -29t6 -75q0 -17 -0.5 -34t-3 -32.5t-7.5 -28.5t-15 -21q-21 -17 -62 -37.5t-95.5 -38t-123 -29t-145.5 -11.5q-299 0 -458 145.5 t-177 429.5q-71 6 -126 21.5t-92.5 45.5t-57 77t-19.5 116zM601 755h604q-3 65 -22.5 123.5t-54.5 101t-86 68t-117 25.5q-69 0 -124 -23.5t-95.5 -65.5t-67 -100.5t-37.5 -128.5z" />
<glyph unicode="&#x4bd;" horiz-adv-x="1254" d="M21 621q0 33 6 68t16 57q5 11 11.5 19t17.5 14t28.5 9t45.5 3q30 0 49 -2t29.5 -6t14.5 -8.5t4 -11.5q0 -8 -3.5 -20t-7.5 -26.5t-7.5 -32t-3.5 -36.5q0 -47 28.5 -66t77.5 -18q13 93 48.5 167t91 124.5t131 77.5t167.5 27q109 0 186.5 -32t127.5 -89.5t73.5 -135.5 t23.5 -170v-39q0 -45 -20 -66.5t-55 -21.5h-531q0 -57 13.5 -101.5t42 -76.5t74 -48.5t109.5 -16.5t113 9.5t84.5 20.5t59 20.5t38.5 9.5q18 0 24.5 -16t6.5 -65q0 -43 -4 -62t-17 -33q-6 -7 -34 -18.5t-72 -23t-101 -19.5t-121 -8q-222 0 -337 105t-128 323 q-72 0 -127.5 9.5t-93.5 33.5t-58.5 65.5t-20.5 106.5zM570 564h368q3 104 -41 163t-138 59q-47 0 -81.5 -17.5t-57.5 -47.5t-35.5 -70.5t-14.5 -86.5z" />
<glyph unicode="&#x4be;" horiz-adv-x="1559" d="M29 811q0 37 6.5 75t17.5 63q5 12 12 21t20 15.5t32.5 10t49.5 3.5q33 0 54.5 -2t33.5 -6.5t16 -10t4 -12.5q0 -9 -3.5 -20.5t-8.5 -27t-9 -34t-4 -38.5q0 -42 22 -63t59 -26q18 117 64.5 213.5t122 166t178.5 107.5t232 38q136 0 239.5 -45t173 -131t105 -210t35.5 -283 q0 -27 -13.5 -48t-46.5 -21h-825q8 -82 32 -148.5t68 -113.5t109.5 -72t155.5 -25q80 0 148.5 19.5t122.5 42.5t92.5 43t58.5 20q16 0 22 -29t6 -75q0 -17 -0.5 -34t-3 -32.5t-7.5 -28.5t-15 -21q-20 -15 -54 -33t-81 -34.5t-105 -29.5t-124 -17v-276q0 -10 -4.5 -16.5 t-17 -11t-34.5 -7t-55 -2.5t-54.5 2.5t-34.5 7t-18.5 11t-5.5 16.5v286q-223 36 -340.5 177t-132.5 386q-71 6 -126 21.5t-92.5 45.5t-57 77t-19.5 116zM601 755h604q-3 65 -22.5 123.5t-54.5 101t-86 68t-117 25.5q-69 0 -124 -23.5t-95.5 -65.5t-67 -100.5t-37.5 -128.5z " />
<glyph unicode="&#x4bf;" horiz-adv-x="1254" d="M21 621q0 33 6 68t16 57q5 11 11.5 19t17.5 14t28.5 9t45.5 3q30 0 49 -2t29.5 -6t14.5 -8.5t4 -11.5q0 -8 -3.5 -20t-7.5 -26.5t-7.5 -32t-3.5 -36.5q0 -47 28.5 -66t77.5 -18q13 93 48.5 167t91 124.5t131 77.5t167.5 27q109 0 186.5 -32t127.5 -89.5t73.5 -135.5 t23.5 -170v-39q0 -45 -20 -66.5t-55 -21.5h-531q0 -57 13.5 -101.5t42 -76.5t74 -48.5t109.5 -16.5t113 9.5t84.5 20.5t59 20.5t38.5 9.5q18 0 24.5 -16t6.5 -65q0 -43 -4 -62t-17 -33q-5 -6 -24.5 -14.5t-50 -17.5t-71 -18t-87.5 -14v-274q-1 -14 -26.5 -21.5t-79.5 -7.5 q-57 0 -82 7.5t-25 21.5v277q-164 25 -250 129t-97 291q-72 0 -127.5 9.5t-93.5 33.5t-58.5 65.5t-20.5 106.5zM570 564h368q3 104 -41 163t-138 59q-47 0 -81.5 -17.5t-57.5 -47.5t-35.5 -70.5t-14.5 -86.5z" />
<glyph unicode="&#x4c0;" horiz-adv-x="533" d="M138 35v1194q0 10 6 17.5t21.5 12.5t39.5 8t62 3t62.5 -3t39 -8t21 -13t6.5 -17v-1194q0 -10 -6.5 -17.5t-21 -12.5t-39 -8t-62.5 -3q-37 0 -62 3t-40 8t-21 12.5t-6 17.5z" />
<glyph unicode="&#x4c1;" horiz-adv-x="1665" d="M57 34q0 5 0.5 12t2.5 16t6 22t11 30l88 252q24 70 48.5 118.5t52 81.5t59.5 54t72 36v1q-34 11 -62.5 29.5t-53.5 49.5t-48 76.5t-45 111.5l-76 226q-11 31 -14.5 49.5t-3.5 30.5q0 11 5 18.5t19.5 12t39.5 7t64 2.5q41 0 66 -2.5t40 -8t21 -15t10 -22.5l80 -268 q17 -56 36 -94t44.5 -61.5t58.5 -33.5t79 -10h50v474q0 11 5.5 18.5t19.5 12.5t38.5 7.5t61.5 2.5t61.5 -2.5t38.5 -7.5t20 -12.5t6 -18.5v-474h50q44 0 77.5 11t59.5 35.5t45.5 62t35.5 91.5l80 267q4 14 10 23t21 14.5t40 8t66 2.5q39 0 63.5 -2.5t39.5 -7t20 -12t5 -18.5 q0 -13 -4.5 -31t-13.5 -49l-75 -222q-21 -62 -43.5 -107t-47.5 -75t-54 -50t-65 -34v-1q41 -18 73 -39.5t59.5 -55t51 -81.5t48.5 -119l87 -252q7 -18 11 -30.5t6 -21.5t3 -16t1 -12q0 -11 -5.5 -18t-21 -12t-41 -7.5t-65.5 -2.5q-41 0 -67.5 2.5t-41.5 8t-22.5 14.5 t-12.5 23l-91 286q-19 61 -40.5 101.5t-49.5 66t-62.5 35.5t-79.5 10h-50v-506q0 -11 -6 -18t-20 -12.5t-38.5 -8t-61.5 -2.5t-61.5 2.5t-38.5 8t-19.5 12.5t-5.5 18v506h-50q-48 0 -84 -12t-63.5 -38t-48 -66t-37.5 -97l-90 -286q-5 -14 -12.5 -23t-23 -14.5t-41.5 -8 t-67 -2.5t-66 2.5t-40.5 7.5t-21 12t-5.5 18zM378 1264zM478 1603q0 15 5 24t18 14.5t35 8t55 2.5q31 0 51.5 -3t31.5 -8.5t15 -15t4 -21.5q0 -23 9.5 -44t27.5 -36t44.5 -25t58.5 -10q31 0 56.5 9.5t43.5 24.5t27.5 36t9.5 46q0 12 4 21t15 14.5t30 8.5t48 3 q35 0 58.5 -2.5t37 -8t19 -14.5t5.5 -24q0 -54 -19 -103.5t-60.5 -87t-109 -60t-166.5 -22.5q-96 0 -163 20.5t-109.5 56t-62 86t-19.5 110.5z" />
<glyph unicode="&#x4c2;" horiz-adv-x="1473" d="M47 23q0 8 4 21.5t14 38.5l84 191q21 50 43.5 84.5t47 58t50.5 39.5t57 28v2q-23 8 -47 21.5t-47 35.5t-45 56t-43 85l-69 169q-10 23 -14 36.5t-4 23.5q0 8 5 13.5t18 9t36 5.5t59 2q41 0 67 -2t40.5 -6t21 -11.5t10.5 -17.5l69 -190q16 -41 31.5 -69t34.5 -44.5 t42.5 -24t53.5 -7.5h49v343q0 8 6.5 13.5t21 8.5t38 5t56.5 2t56 -2t38 -5t21 -8.5t6 -13.5v-343h50q29 0 53 8t43.5 25t36 44.5t31.5 67.5l74 190q4 10 9.5 17.5t19.5 11.5t39 6t65 2q36 0 59 -2t36.5 -5.5t18.5 -9t5 -13.5q0 -10 -3.5 -23.5t-13.5 -36.5l-72 -169 q-21 -50 -43 -84.5t-44 -56.5t-44.5 -35t-45.5 -21v-2q30 -13 56.5 -28.5t49.5 -39t44.5 -58.5t42.5 -85l83 -191q6 -13 10 -22t6 -16.5t2.5 -12.5t0.5 -9q0 -8 -5.5 -13t-19.5 -8.5t-37.5 -5.5t-60.5 -2q-41 0 -67.5 2t-41 6t-21.5 11t-11 15l-81 206q-17 43 -33.5 72 t-36.5 46t-45 24.5t-59 7.5h-50v-360q0 -8 -6 -13.5t-21 -9t-37.5 -5.5t-56.5 -2q-33 0 -56.5 2t-38 5.5t-21 9.5t-6.5 13v360h-49q-35 0 -60 -7.5t-45.5 -24.5t-37.5 -46t-33 -72l-80 -206q-4 -9 -11 -15.5t-21.5 -10.5t-40.5 -6t-67 -2q-36 0 -59.5 2t-37.5 5.5t-20 9 t-6 12.5zM280 938zM380 1320q0 15 5 24.5t18 15t35 8t55 2.5q31 0 51.5 -3t31.5 -9t15 -15.5t4 -22.5q0 -26 9.5 -48.5t27.5 -38.5t44.5 -25.5t58.5 -9.5q31 0 56.5 9t43.5 25.5t27.5 39.5t9.5 50q0 12 4 21t15 15t30 9t48 3q35 0 58.5 -2.5t37 -8t19 -15t5.5 -24.5 q0 -58 -19 -108.5t-60.5 -89t-109 -61t-166.5 -22.5q-96 0 -163 20.5t-109.5 57t-62 89t-19.5 114.5z" />
<glyph unicode="&#x4c3;" horiz-adv-x="1167" d="M138 35v1194q0 21 27 31t102 10q38 0 62.5 -2.5t39 -7.5t20.5 -13t6 -18v-474h57q44 0 77 11t60.5 37t49 67t42.5 100l85 252q5 14 11.5 23t21.5 14.5t40.5 8t66.5 2.5q39 0 63.5 -2.5t38 -7t19 -12.5t5.5 -18q0 -13 -4.5 -31t-14.5 -49l-85 -224q-40 -104 -87 -160 t-101 -84v-2q88 -25 156.5 -70t116 -107.5t72 -141t24.5 -172.5q0 -132 -32.5 -234.5t-93 -173.5t-146.5 -108.5t-192 -37.5q-83 0 -138.5 14.5t-73.5 33.5q-6 6 -11.5 13t-9 18.5t-5.5 27.5t-2 40q0 31 2.5 51.5t7 31.5t10.5 15.5t12 4.5t19 -5.5t34.5 -11.5t52.5 -11 t74 -5q45 0 85 20t71 63.5t49 110.5t18 163q0 87 -29 150.5t-76.5 104.5t-109.5 60.5t-127 19.5h-103v-509q0 -11 -6 -18t-20.5 -12.5t-39 -8t-62.5 -2.5q-74 0 -101.5 10.5t-27.5 30.5z" />
<glyph unicode="&#x4c4;" horiz-adv-x="1015" d="M123 28v882q0 15 27.5 24t95.5 9q67 0 95 -9t28 -24v-339h50q30 0 54 7.5t44 24.5t37 45.5t34 70.5l73 187q4 10 11 17.5t21 11.5t39 6t65 2q36 0 59 -2t36 -5.5t18 -9.5t5 -13q0 -10 -4 -23.5t-14 -36.5l-69 -166q-20 -46 -41 -79t-43.5 -55.5t-45.5 -36t-45 -22.5v-2 q71 -19 129 -53t99 -84t63.5 -116.5t22.5 -148.5q0 -107 -31 -192t-85.5 -143.5t-131 -89t-167.5 -30.5q-70 0 -116 12t-61 27q-10 10 -16.5 28.5t-6.5 60.5q0 60 8.5 81t19.5 21q8 0 19 -4.5t28.5 -9.5t43 -9.5t61.5 -4.5q34 0 67 13.5t58.5 45.5t41 83t15.5 126 q0 71 -22.5 123.5t-60.5 87t-88 50.5q-49 17 -105 17h-69v-355q0 -15 -28 -24.5t-95 -9.5q-68 0 -95.5 10t-27.5 24z" />
<glyph unicode="&#x4c5;" horiz-adv-x="1335" d="M10 81q0 42 2 68t6.5 40t12.5 19t19 5q30 0 58 12t54 48.5t49.5 101.5t46.5 172t46 261t47 366q6 50 23.5 70t51.5 20h620q35 0 54 -20t19 -61v-999h158q22 0 34 -3.5t16.5 -10.5t2.5 -16t-8 -22l-193 -430q-12 -25 -44 -33.5t-102 -8.5q-40 0 -64.5 4t-37 11.5t-14 17.5 t5.5 22l153 280q-17 -1 -35 -1q-38 0 -62.5 2.5t-39 7.5t-20.5 12t-6 17v1020h-271q-27 -224 -55.5 -391t-61 -286t-71 -195.5t-87.5 -120.5t-111 -61t-142 -17q-15 0 -25.5 4t-16.5 15t-9 30.5t-3 49.5z" />
<glyph unicode="&#x4c6;" horiz-adv-x="1116" d="M20 91q0 36 1 58.5t5 34.5t11 16t17 4q27 0 52 11.5t47 40t41.5 76t36 119.5t31 172.5t28.5 232.5q2 40 17 60t49 20h505q34 0 51 -20t17 -60v-672h129q22 0 34 -3.5t16 -10.5t2 -16t-7 -22l-184 -415q-6 -13 -14.5 -21t-23 -12.5t-36 -6.5t-52.5 -2q-37 0 -59.5 4 t-34 11t-12.5 17.5t5 21.5l144 266q-14 -1 -29 -1q-36 0 -60 2.5t-38.5 7.5t-19.5 12t-5 17v704h-177q-16 -153 -39 -268.5t-53 -199.5t-66.5 -139.5t-80.5 -87.5t-95.5 -46t-108.5 -14q-14 0 -22.5 4t-13.5 15.5t-6.5 33t-1.5 56.5z" />
<glyph unicode="&#x4c7;" horiz-adv-x="1261" d="M138 35v1194q0 20 27 30.5t102 10.5q38 0 62.5 -3t39 -8t20.5 -13t6 -17v-464h472v464q0 10 6 17.5t20.5 12.5t39.5 8t63 3q73 0 100.5 -11t27.5 -30v-1094q0 -117 -28.5 -209.5t-82.5 -156.5t-133 -97.5t-182 -33.5q-55 0 -95 4t-68 11t-46.5 18.5t-29.5 25.5 q-14 19 -18 41.5t-4 56.5q0 27 1 44t4 27t8.5 13.5t13.5 3.5q7 0 20 -6.5t36.5 -14t58 -13.5t84.5 -6q42 0 79.5 15.5t65 49.5t43.5 90t16 136v412h-472v-511q0 -10 -6 -17.5t-20.5 -12.5t-39 -8t-62.5 -3q-74 0 -101.5 11t-27.5 30z" />
<glyph unicode="&#x4c8;" horiz-adv-x="1089" d="M123 33v871q0 10 6 17.5t20 12t37.5 7t59.5 2.5t59.5 -2.5t37.5 -7t20 -12t6 -17.5v-326h353v326q0 10 5.5 17.5t19.5 12t38 7t60 2.5q35 0 59 -2.5t37.5 -7t19.5 -12t6 -17.5v-829q0 -103 -24 -183.5t-70 -137.5t-114.5 -86.5t-156.5 -29.5q-97 0 -151.5 14t-76.5 42 q-14 17 -18 38.5t-4 54.5q0 25 1 41.5t4 25.5t8.5 12.5t13.5 3.5q6 0 20 -6t37 -13t55.5 -13t76.5 -6q32 0 60.5 12.5t49 41t32.5 75t12 113.5v302h-353v-343q0 -10 -6 -17t-20 -12t-37.5 -7.5t-59.5 -2.5t-59.5 2.5t-37.5 7.5t-20 12t-6 17z" />
<glyph unicode="&#x4c9;" horiz-adv-x="1340" d="M138 35v1194q0 10 6 17.5t21 12.5t39.5 8t62.5 3t62.5 -3t39 -8t20.5 -13t6 -17v-464h472v464q0 10 6.5 17.5t20.5 12.5t39 8t63 3q37 0 61.5 -3t39 -8t21 -13t6.5 -17v-1045h158q22 0 34 -3.5t16.5 -10.5t2.5 -16t-8 -22l-193 -430q-12 -25 -44 -33.5t-102 -8.5 q-40 0 -65 4t-37 11.5t-13.5 17.5t5.5 22l153 280q-16 -1 -35 -1q-38 0 -63 3t-39 8t-20.5 12.5t-6.5 17.5v511h-472v-511q0 -10 -6 -17.5t-20.5 -12.5t-39 -8t-62.5 -3q-37 0 -62 3t-40 8t-21 12.5t-6 17.5z" />
<glyph unicode="&#x4ca;" horiz-adv-x="1154" d="M123 33v871q0 10 6 17.5t20 12t37.5 7t59.5 2.5t59.5 -2.5t37.5 -7t20 -12t6 -17.5v-326h353v326q0 10 5.5 17.5t19.5 12t38 7t60 2.5q35 0 59 -2.5t37.5 -7t19.5 -12t6 -17.5v-720h129q22 0 34 -3.5t16 -10.5t2 -16t-7 -22l-184 -415q-6 -13 -14.5 -21t-23 -12.5 t-36 -6.5t-52.5 -2q-37 0 -59.5 4t-33.5 11t-12.5 17.5t4.5 21.5l144 266q-14 -1 -29 -1q-36 0 -60 2.5t-38 7.5t-19.5 12t-5.5 17v343h-353v-343q0 -10 -6 -17t-20 -12t-37.5 -7.5t-59.5 -2.5t-59.5 2.5t-37.5 7.5t-20 12t-6 17z" />
<glyph unicode="&#x4cb;" horiz-adv-x="1138" d="M75 868v361q0 10 6 17.5t20 12.5t38 8t60 3q37 0 62 -3t40.5 -8t22.5 -12.5t7 -17.5v-335q0 -59 12 -102t40.5 -71.5t75 -43t115.5 -14.5q44 0 86 3.5t84 8.5v554q0 10 7 17.5t22.5 12.5t40.5 8t61 3q37 0 61 -3t38 -8t20.5 -12.5t6.5 -17.5v-1195q0 -10 -6.5 -17 t-20.5 -12t-38 -8t-61 -3h-61v-292q0 -10 -5 -16.5t-18.5 -11t-35 -7t-54.5 -2.5t-55 2.5t-34 7t-17 11t-5 16.5v458q0 30 9 41.5t34 11.5h111v253q-52 -5 -101.5 -8.5t-100.5 -3.5q-104 0 -189.5 18.5t-147.5 65t-96 127t-34 203.5z" />
<glyph unicode="&#x4cc;" horiz-adv-x="1005" d="M76 624v280q0 10 5.5 17.5t19.5 12t37.5 7t59.5 2.5t59.5 -2.5t38 -7t19.5 -12t5 -17.5v-243q0 -64 10 -94t27.5 -48t43 -25.5t58.5 -7.5q47 0 91.5 11.5t87.5 32.5v374q0 10 5 17.5t19.5 12t38.5 7t60 2.5q35 0 59 -2.5t37.5 -7t19.5 -12t6 -17.5v-871q0 -10 -6 -17 t-19.5 -12t-37.5 -7.5t-59 -2.5h-59v-285q0 -14 -25.5 -21.5t-81.5 -7.5q-54 0 -79.5 7.5t-26.5 21.5v428q0 28 10.5 38.5t37.5 10.5h101v147q-48 -21 -102.5 -31t-119.5 -10q-99 0 -163.5 23.5t-104.5 65.5t-56 98.5t-16 144.5z" />
<glyph unicode="&#x4cd;" horiz-adv-x="1827" d="M138 35v1126q0 50 26 76.5t70 26.5h168q45 0 77.5 -7.5t56 -24.5t39 -45t27.5 -69l273 -753h4l283 751q13 41 28 69.5t35 46t47.5 25t63.5 7.5h173q26 0 45 -7t31.5 -20t18.5 -32t6 -44v-977h159q22 0 33.5 -3.5t16 -10.5t2.5 -16t-8 -22l-193 -430q-12 -25 -44 -33.5 t-101 -8.5q-40 0 -65 4t-37.5 11.5t-14 17.5t5.5 22l153 280q-13 -1 -29 -1q-35 0 -58.5 3t-37 8t-19.5 12.5t-6 17.5v1028h-2l-366 -1027q-4 -13 -12.5 -21t-24 -13t-39 -6.5t-56.5 -1.5t-56.5 2.5t-38.5 8t-24 13t-12 18.5l-353 1027h-2v-1028q0 -10 -5.5 -17.5t-20 -12.5 t-37.5 -8t-59 -3q-35 0 -58.5 3t-38 8t-19.5 12.5t-5 17.5z" />
<glyph unicode="&#x4ce;" horiz-adv-x="1469" d="M15 31q0 11 2 26t6 46l113 788q3 17 10.5 27t25.5 15.5t48.5 7.5t79.5 2q48 0 78 -2.5t47.5 -8t26 -16t14.5 -25.5l145 -408q10 -27 20.5 -63t19.5 -68q11 -38 22 -78q9 39 19 78q9 32 19 67.5t19 63.5l138 408q6 16 14.5 26t26 15.5t47 8t78.5 2.5q48 0 80 -2.5t50.5 -8 t26 -16t9.5 -25.5l81 -707h130q22 0 34 -3.5t16.5 -10.5t2.5 -16t-8 -22l-184 -415q-6 -13 -14.5 -21t-22.5 -12.5t-35.5 -6.5t-53.5 -2q-37 0 -59.5 4t-33.5 11t-12.5 17.5t5.5 21.5l142 265h-11q-40 0 -65 2t-38.5 7t-19 12.5t-6.5 20.5l-35 486q-1 18 -2.5 48.5t-3 60 t-2.5 52t-1 23.5q-1 -2 -7.5 -24.5t-14.5 -52t-16.5 -59.5t-14.5 -48l-164 -486q-4 -12 -10 -19.5t-19 -13t-35.5 -7.5t-58.5 -2q-37 0 -59 2.5t-34.5 7t-18.5 11.5t-9 17l-173 490q-8 21 -17 52.5t-17 61.5q-10 34 -20 71q-2 -37 -4 -71q-2 -29 -4.5 -60.5t-4.5 -53.5 l-46 -486q-1 -12 -7 -20t-19.5 -13t-37.5 -7t-60 -2t-59 2t-36.5 6.5t-18 11t-4.5 17.5z" />
<glyph unicode="&#x4cf;" horiz-adv-x="533" d="M138 35v1194q0 10 6 17.5t21.5 12.5t39.5 8t62 3t62.5 -3t39 -8t21 -13t6.5 -17v-1194q0 -10 -6.5 -17.5t-21 -12.5t-39 -8t-62.5 -3q-37 0 -62 3t-40 8t-21 12.5t-6 17.5z" />
<glyph unicode="&#x4d0;" horiz-adv-x="1211" d="M25 42.5q3 20.5 15 55.5l390 1121q6 17 13.5 27t24.5 15.5t47.5 7t80.5 1.5q58 0 92 -1.5t53 -7t27 -16.5t14 -29l391 -1120q12 -35 14.5 -55.5t-8 -31t-38 -13t-75.5 -2.5q-50 0 -77.5 1.5t-42 6t-20.5 12t-10 20.5l-85 254h-475l-80 -247q-4 -14 -10 -23t-20.5 -14.5 t-40 -7.5t-67.5 -2q-45 0 -70.5 3t-35.5 14t-7 31.5zM151 1264zM251 1603q0 15 5 24t18 14.5t35 8t55 2.5q31 0 51.5 -3t31.5 -8.5t15 -15t4 -21.5q0 -23 9.5 -44t27.5 -36t44.5 -25t58.5 -10q31 0 56.5 9.5t43.5 24.5t27.5 36t9.5 46q0 12 4 21t15 14.5t30 8.5t48 3 q35 0 58.5 -2.5t37 -8t19 -14.5t5.5 -24q0 -54 -19 -103.5t-60.5 -87t-109 -60t-166.5 -22.5q-96 0 -163 20.5t-109.5 56t-62 86t-19.5 110.5zM413 485h358l-178 537h-1z" />
<glyph unicode="&#x4d1;" horiz-adv-x="987" d="M13 938zM69 261q0 76 30 132t89 92.5t147 54.5t204 18h85v52q0 41 -8.5 72t-27.5 51.5t-50.5 30t-78.5 9.5q-62 0 -110 -13.5t-85 -30t-62 -30t-41 -13.5q-11 0 -19 6.5t-13.5 19.5t-8.5 31.5t-3 40.5q0 30 5 48t18.5 32t48 31t80 31.5t100 24t111.5 9.5q103 0 176 -20 t119.5 -61.5t68 -107t21.5 -155.5v-586q0 -14 -9.5 -21.5t-30.5 -11t-62 -3.5q-44 0 -64 3.5t-28.5 11.5t-8.5 21v70q-54 -58 -122.5 -90t-152.5 -32q-69 0 -127.5 18t-101 53.5t-66 88t-23.5 123.5zM113 1320q0 15 5 24.5t18 15t35 8t55 2.5q31 0 51.5 -3t31.5 -9t15 -15.5 t4 -22.5q0 -26 9.5 -48.5t27.5 -38.5t44.5 -25.5t58.5 -9.5q31 0 56.5 9t43.5 25.5t27.5 39.5t9.5 50q0 12 4 21t15 15t30 9t48 3q35 0 58.5 -2.5t37 -8t19 -15t5.5 -24.5q0 -58 -19 -108.5t-60.5 -89t-109 -61t-166.5 -22.5q-96 0 -163 20.5t-109.5 57t-62 89t-19.5 114.5z M310 269q0 -55 34.5 -86.5t95.5 -31.5q52 0 95.5 26.5t88.5 77.5v148h-94q-60 0 -101.5 -8.5t-68 -26t-38.5 -42.5t-12 -57z" />
<glyph unicode="&#x4d2;" horiz-adv-x="1211" d="M25 42.5q3 20.5 15 55.5l390 1121q6 17 13.5 27t24.5 15.5t47.5 7t80.5 1.5q58 0 92 -1.5t53 -7t27 -16.5t14 -29l391 -1120q12 -35 14.5 -55.5t-8 -31t-38 -13t-75.5 -2.5q-50 0 -77.5 1.5t-42 6t-20.5 12t-10 20.5l-85 254h-475l-80 -247q-4 -14 -10 -23t-20.5 -14.5 t-40 -7.5t-67.5 -2q-45 0 -70.5 3t-35.5 14t-7 31.5zM168 1264zM268 1494q0 69 27 96t102 27q76 0 101.5 -26t25.5 -93q0 -68 -26.5 -95.5t-101.5 -27.5t-101.5 26.5t-26.5 92.5zM413 485h358l-178 537h-1zM694 1494q0 69 27 96t102 27t101.5 -26t26.5 -93q0 -68 -27 -95.5 t-103 -27.5q-75 0 -101 26.5t-26 92.5z" />
<glyph unicode="&#x4d3;" horiz-adv-x="987" d="M69 261q0 76 30 132t89 92.5t147 54.5t204 18h85v52q0 41 -8.5 72t-27.5 51.5t-50.5 30t-78.5 9.5q-62 0 -110 -13.5t-85 -30t-62 -30t-41 -13.5q-11 0 -19 6.5t-13.5 19.5t-8.5 31.5t-3 40.5q0 30 5 48t18.5 32t48 31t80 31.5t100 24t111.5 9.5q103 0 176 -20 t119.5 -61.5t68 -107t21.5 -155.5v-586q0 -14 -9.5 -21.5t-30.5 -11t-62 -3.5q-44 0 -64 3.5t-28.5 11.5t-8.5 21v70q-54 -58 -122.5 -90t-152.5 -32q-69 0 -127.5 18t-101 53.5t-66 88t-23.5 123.5zM85 938zM185 1193q0 70 26 96.5t98 26.5q74 0 99 -26t25 -92 q0 -68 -26 -95t-98 -27q-73 0 -98.5 26t-25.5 91zM310 269q0 -55 34.5 -86.5t95.5 -31.5q52 0 95.5 26.5t88.5 77.5v148h-94q-60 0 -101.5 -8.5t-68 -26t-38.5 -42.5t-12 -57zM566 1193q0 70 26 96.5t98 26.5q73 0 98.5 -26t25.5 -92q0 -68 -25.5 -95t-99.5 -27 q-72 0 -97.5 26t-25.5 91z" />
<glyph unicode="&#x4d4;" horiz-adv-x="1550" d="M-44 28q0 11 5.5 27t17.5 43l557 1113q8 18 17 28t27.5 16t48.5 7.5t80 1.5h708q9 0 16 -5t12 -17.5t7.5 -31.5t2.5 -48q0 -27 -2.5 -46t-7.5 -31t-12 -17.5t-16 -5.5h-450v-309h381q10 0 17 -5t12 -16.5t7.5 -30.5t2.5 -47t-2.5 -47t-7.5 -31t-12.5 -16.5t-16.5 -4.5 h-381v-354h455q9 0 15.5 -5.5t11.5 -17t7.5 -30.5t2.5 -47t-2.5 -47.5t-7.5 -31t-11.5 -17t-15.5 -5.5h-634q-32 0 -53.5 19t-21.5 62v193h-381l-115 -234q-6 -14 -14 -23t-23.5 -14t-42 -7t-70.5 -2q-31 0 -52.5 1t-34.5 5t-18.5 11t-5.5 17zM411 471h302v591h-5z" />
<glyph unicode="&#x4d5;" horiz-adv-x="1549" d="M69 260q0 77 30 133t89 92.5t147 54.5t204 18h85v52q0 41 -8.5 72t-27.5 51.5t-50.5 30t-78.5 9.5q-62 0 -110 -13.5t-85 -30t-63 -30t-41 -13.5q-11 0 -19 6.5t-13 19.5t-8 31.5t-3 40.5q0 30 5 48t18.5 32t48 31t80 31.5t100 24t111.5 9.5q58 0 104.5 -8t83 -23.5 t64 -38.5t46.5 -51q47 59 122 90t170 31q104 0 179.5 -32t125 -90t73 -136t23.5 -170v-38q0 -45 -20 -66.5t-55 -21.5h-531q0 -56 13.5 -101t42.5 -77t75.5 -48.5t111.5 -16.5q62 0 110.5 9.5t83.5 20.5t59 20.5t37 9.5q9 0 15 -3.5t10 -12.5t6 -25t2 -40q0 -21 -1 -36.5 t-3.5 -26.5t-6 -18t-10.5 -14t-35 -18.5t-71.5 -23t-100 -19.5t-118.5 -8q-71 0 -128.5 10t-101.5 30t-78 48.5t-59 64.5q-32 -40 -70.5 -68.5t-80.5 -48t-87 -28t-93 -8.5q-69 0 -127.5 18t-101 53.5t-66 88t-23.5 122.5zM310 269q0 -55 34.5 -86.5t95.5 -31.5 q52 0 100 29.5t100 91.5q-10 26 -14 62.5t-4 68.5h-92q-60 0 -101.5 -8.5t-68 -26t-38.5 -42.5t-12 -57zM865 564h368q1 52 -9.5 93t-32.5 69.5t-56 44t-80 15.5q-48 0 -82.5 -17.5t-57.5 -47.5t-35.5 -70.5t-14.5 -86.5z" />
<glyph unicode="&#x4d6;" horiz-adv-x="975" d="M67 1264zM138 81v1102q0 43 22 62t54 19h631q9 0 15.5 -5t11.5 -17.5t7.5 -31.5t2.5 -48q0 -27 -2.5 -46t-7.5 -31t-11.5 -17.5t-15.5 -5.5h-451v-308h381q9 0 16.5 -5.5t12.5 -16.5t7 -30t2 -47t-2 -46.5t-7 -30t-12.5 -16t-16.5 -4.5h-381v-357h455q9 0 16 -5.5t12 -17 t7.5 -30.5t2.5 -47t-2.5 -47.5t-7.5 -31t-12.5 -17t-15.5 -5.5h-635q-32 0 -54 19t-22 62zM167 1603q0 15 5 24t18 14.5t35 8t55 2.5q31 0 51.5 -3t31.5 -8.5t15 -15t4 -21.5q0 -23 9.5 -44t27.5 -36t44.5 -25t58.5 -10q31 0 56.5 9.5t43.5 24.5t27.5 36t9.5 46q0 12 4 21 t15 14.5t30 8.5t48 3q35 0 58.5 -2.5t37 -8t19 -14.5t5.5 -24q0 -54 -19 -103.5t-60.5 -87t-109 -60t-166.5 -22.5q-96 0 -163 20.5t-109.5 56t-62 86t-19.5 110.5z" />
<glyph unicode="&#x4d7;" horiz-adv-x="1006" d="M52 938zM72 459q0 116 30.5 209.5t88 158.5t140 99t186.5 34q109 0 186.5 -32t127.5 -89.5t73.5 -135.5t23.5 -170v-39q0 -45 -20 -66.5t-55 -21.5h-531q0 -56 13.5 -101t42 -77t74 -48.5t109.5 -16.5t113 9.5t84.5 20.5t59 20.5t37.5 9.5q9 0 15 -3.5t10 -12.5t5.5 -25 t1.5 -40q0 -21 -1 -36.5t-3 -26.5t-6 -18t-10.5 -14t-34.5 -18.5t-72 -23t-100.5 -19.5t-121.5 -8q-116 0 -203.5 29t-146 88.5t-87.5 150.5t-29 213zM152 1320q0 15 5 24.5t18 15t35 8t55 2.5q31 0 51.5 -3t31.5 -9t15 -15.5t4 -22.5q0 -26 9.5 -48.5t27.5 -38.5 t44.5 -25.5t58.5 -9.5q31 0 56.5 9t43.5 25.5t27.5 39.5t9.5 50q0 12 4 21t15 15t30 9t48 3q35 0 58.5 -2.5t37 -8t19 -15t5.5 -24.5q0 -58 -19 -108.5t-60.5 -89t-109 -61t-166.5 -22.5q-96 0 -163 20.5t-109.5 57t-62 89t-19.5 114.5zM322 564h367q3 104 -41 163t-137 59 q-47 0 -81.5 -17.5t-57.5 -47.5t-35.5 -70.5t-14.5 -86.5z" />
<glyph unicode="&#x4d8;" horiz-adv-x="1315" d="M78 645q0 27 13.5 48t47.5 21h825q-8 82 -32.5 148.5t-68.5 113t-109 72t-155 25.5q-80 0 -148.5 -19.5t-123 -43t-93 -43t-57.5 -19.5q-16 0 -22.5 29t-6.5 75q0 16 0.5 33.5t3 33t8 28.5t15.5 21q21 17 61.5 37.5t95.5 38t123 29t146 11.5q317 0 476.5 -164t159.5 -483 q0 -145 -39.5 -266.5t-116 -209.5t-190 -136.5t-259.5 -48.5q-137 0 -240.5 44.5t-173 130t-105 210t-35.5 284.5zM354 505q3 -65 22.5 -123.5t55 -101.5t86.5 -68t117 -25q68 0 123 23t95.5 65t66.5 101t38 129h-604z" />
<glyph unicode="&#x4d9;" horiz-adv-x="1006" d="M79 404v39q0 45 20 66.5t55 21.5h531q0 56 -13.5 101.5t-42 77t-74 48t-109.5 16.5t-113 -9t-84.5 -20.5t-59 -20.5t-38.5 -9q-9 0 -14.5 3.5t-9.5 12t-5.5 24.5t-1.5 41q0 21 1 36.5t3 26t6 18t10 14t34.5 18.5t72.5 23t100.5 19.5t121.5 8.5q116 0 203.5 -29.5t146 -89 t87.5 -150t29 -212.5q0 -116 -30.5 -209.5t-88 -158.5t-140 -99t-186.5 -34q-109 0 -186.5 32t-127.5 89t-73.5 135t-23.5 170zM317 373q-3 -104 41.5 -163t137.5 -59q47 0 81.5 18t57.5 47.5t35.5 70t14.5 86.5h-368z" />
<glyph unicode="&#x4da;" horiz-adv-x="1315" d="M78 645q0 27 13.5 48t47.5 21h825q-8 82 -32.5 148.5t-68.5 113t-109 72t-155 25.5q-80 0 -148.5 -19.5t-123 -43t-93 -43t-57.5 -19.5q-16 0 -22.5 29t-6.5 75q0 16 0.5 33.5t3 33t8 28.5t15.5 21q21 17 61.5 37.5t95.5 38t123 29t146 11.5q317 0 476.5 -164t159.5 -483 q0 -145 -39.5 -266.5t-116 -209.5t-190 -136.5t-259.5 -48.5q-137 0 -240.5 44.5t-173 130t-105 210t-35.5 284.5zM206 1264zM306 1494q0 69 27 96t102 27q76 0 101.5 -26t25.5 -93q0 -68 -26.5 -95.5t-101.5 -27.5t-101.5 26.5t-26.5 92.5zM354 505q3 -65 22.5 -123.5 t55 -101.5t86.5 -68t117 -25q68 0 123 23t95.5 65t66.5 101t38 129h-604zM732 1494q0 69 27 96t102 27t101.5 -26t26.5 -93q0 -68 -27 -95.5t-103 -27.5q-75 0 -101 26.5t-26 92.5z" />
<glyph unicode="&#x4db;" horiz-adv-x="1006" d="M79 404v39q0 45 20 66.5t55 21.5h531q0 56 -13.5 101.5t-42 77t-74 48t-109.5 16.5t-113 -9t-84.5 -20.5t-59 -20.5t-38.5 -9q-9 0 -14.5 3.5t-9.5 12t-5.5 24.5t-1.5 41q0 21 1 36.5t3 26t6 18t10 14t34.5 18.5t72.5 23t100.5 19.5t121.5 8.5q116 0 203.5 -29.5t146 -89 t87.5 -150t29 -212.5q0 -116 -30.5 -209.5t-88 -158.5t-140 -99t-186.5 -34q-109 0 -186.5 32t-127.5 89t-73.5 135t-23.5 170zM86 938zM186 1193q0 70 26 96.5t98 26.5q74 0 99 -26t25 -92q0 -68 -26 -95t-98 -27q-73 0 -98.5 26t-25.5 91zM317 373q-3 -104 41.5 -163 t137.5 -59q47 0 81.5 18t57.5 47.5t35.5 70t14.5 86.5h-368zM567 1193q0 70 26 96.5t98 26.5q73 0 98.5 -26t25.5 -92q0 -68 -25.5 -95t-99.5 -27q-72 0 -97.5 26t-25.5 91z" />
<glyph unicode="&#x4dc;" horiz-adv-x="1665" d="M57 34q0 5 0.5 12t2.5 16t6 22t11 30l88 252q24 70 48.5 118.5t52 81.5t59.5 54t72 36v1q-34 11 -62.5 29.5t-53.5 49.5t-48 76.5t-45 111.5l-76 226q-11 31 -14.5 49.5t-3.5 30.5q0 11 5 18.5t19.5 12t39.5 7t64 2.5q41 0 66 -2.5t40 -8t21 -15t10 -22.5l80 -268 q17 -56 36 -94t44.5 -61.5t58.5 -33.5t79 -10h50v474q0 11 5.5 18.5t19.5 12.5t38.5 7.5t61.5 2.5t61.5 -2.5t38.5 -7.5t20 -12.5t6 -18.5v-474h50q44 0 77.5 11t59.5 35.5t45.5 62t35.5 91.5l80 267q4 14 10 23t21 14.5t40 8t66 2.5q39 0 63.5 -2.5t39.5 -7t20 -12t5 -18.5 q0 -13 -4.5 -31t-13.5 -49l-75 -222q-21 -62 -43.5 -107t-47.5 -75t-54 -50t-65 -34v-1q41 -18 73 -39.5t59.5 -55t51 -81.5t48.5 -119l87 -252q7 -18 11 -30.5t6 -21.5t3 -16t1 -12q0 -11 -5.5 -18t-21 -12t-41 -7.5t-65.5 -2.5q-41 0 -67.5 2.5t-41.5 8t-22.5 14.5 t-12.5 23l-91 286q-19 61 -40.5 101.5t-49.5 66t-62.5 35.5t-79.5 10h-50v-506q0 -11 -6 -18t-20 -12.5t-38.5 -8t-61.5 -2.5t-61.5 2.5t-38.5 8t-19.5 12.5t-5.5 18v506h-50q-48 0 -84 -12t-63.5 -38t-48 -66t-37.5 -97l-90 -286q-5 -14 -12.5 -23t-23 -14.5t-41.5 -8 t-67 -2.5t-66 2.5t-40.5 7.5t-21 12t-5.5 18zM391 1264zM491 1494q0 69 27 96t102 27q76 0 101.5 -26t25.5 -93q0 -68 -26.5 -95.5t-101.5 -27.5t-101.5 26.5t-26.5 92.5zM917 1494q0 69 27 96t102 27t101.5 -26t26.5 -93q0 -68 -27 -95.5t-103 -27.5q-75 0 -101 26.5 t-26 92.5z" />
<glyph unicode="&#x4dd;" horiz-adv-x="1473" d="M47 23q0 8 4 21.5t14 38.5l84 191q21 50 43.5 84.5t47 58t50.5 39.5t57 28v2q-23 8 -47 21.5t-47 35.5t-45 56t-43 85l-69 169q-10 23 -14 36.5t-4 23.5q0 8 5 13.5t18 9t36 5.5t59 2q41 0 67 -2t40.5 -6t21 -11.5t10.5 -17.5l69 -190q16 -41 31.5 -69t34.5 -44.5 t42.5 -24t53.5 -7.5h49v343q0 8 6.5 13.5t21 8.5t38 5t56.5 2t56 -2t38 -5t21 -8.5t6 -13.5v-343h50q29 0 53 8t43.5 25t36 44.5t31.5 67.5l74 190q4 10 9.5 17.5t19.5 11.5t39 6t65 2q36 0 59 -2t36.5 -5.5t18.5 -9t5 -13.5q0 -10 -3.5 -23.5t-13.5 -36.5l-72 -169 q-21 -50 -43 -84.5t-44 -56.5t-44.5 -35t-45.5 -21v-2q30 -13 56.5 -28.5t49.5 -39t44.5 -58.5t42.5 -85l83 -191q6 -13 10 -22t6 -16.5t2.5 -12.5t0.5 -9q0 -8 -5.5 -13t-19.5 -8.5t-37.5 -5.5t-60.5 -2q-41 0 -67.5 2t-41 6t-21.5 11t-11 15l-81 206q-17 43 -33.5 72 t-36.5 46t-45 24.5t-59 7.5h-50v-360q0 -8 -6 -13.5t-21 -9t-37.5 -5.5t-56.5 -2q-33 0 -56.5 2t-38 5.5t-21 9.5t-6.5 13v360h-49q-35 0 -60 -7.5t-45.5 -24.5t-37.5 -46t-33 -72l-80 -206q-4 -9 -11 -15.5t-21.5 -10.5t-40.5 -6t-67 -2q-36 0 -59.5 2t-37.5 5.5t-20 9 t-6 12.5zM322 938zM422 1193q0 70 26 96.5t98 26.5q74 0 99 -26t25 -92q0 -68 -26 -95t-98 -27q-73 0 -98.5 26t-25.5 91zM803 1193q0 70 26 96.5t98 26.5q73 0 98.5 -26t25.5 -92q0 -68 -25.5 -95t-99.5 -27q-72 0 -97.5 26t-25.5 91z" />
<glyph unicode="&#x4de;" horiz-adv-x="963" d="M11 1264zM61 198q0 41 7 55.5t22 14.5q12 0 33.5 -12.5t54.5 -28t80 -28t110 -12.5q53 0 96 12.5t72.5 36t46.5 56t17 72.5q0 44 -15.5 79.5t-47.5 59.5t-81.5 37.5t-118.5 13.5h-134q-15 0 -23.5 4t-14 14.5t-7 29.5t-1.5 50q0 28 2 46.5t7.5 29t13.5 15t20 4.5h136 q60 0 105.5 12t76.5 34.5t47 55.5t16 75q0 35 -11 64.5t-34.5 49.5t-60 31t-85.5 11q-59 0 -106 -12.5t-81.5 -27.5t-58.5 -28t-36 -13q-7 0 -11.5 4t-8.5 14t-5.5 27.5t-1.5 46.5q0 20 1 36.5t4 30t8 23.5t15 20t42 25.5t77.5 29t103.5 22t122 8.5q102 0 177.5 -21.5 t126.5 -62t76 -99.5t25 -135q0 -61 -16.5 -110.5t-47 -88t-73 -64t-94.5 -37.5v-2q60 -7 109 -33t84 -66t55 -91t20 -110q0 -96 -36.5 -168.5t-103.5 -122t-160 -73.5t-206 -24q-62 0 -114.5 8.5t-91 21.5t-62 26t-33.5 21t-15 17t-8 25t-4 40.5t-1 60.5zM111 1494 q0 69 27 96t102 27q76 0 101.5 -26t25.5 -93q0 -68 -26.5 -95.5t-101.5 -27.5t-101.5 26.5t-26.5 92.5zM537 1494q0 69 27 96t102 27t101.5 -26t26.5 -93q0 -68 -27 -95.5t-103 -27.5q-75 0 -101 26.5t-26 92.5z" />
<glyph unicode="&#x4df;" horiz-adv-x="853" d="M-3 938zM57 158q0 22 2 36t5 23t8 12t12 3q13 0 33 -12t50.5 -26t75 -27t107.5 -13q43 0 75.5 9t54.5 25t33 39.5t11 52.5q0 27 -10.5 49t-35.5 37t-65.5 22.5t-99.5 7.5h-93q-13 0 -21 4.5t-12.5 14.5t-6 26.5t-1.5 39.5q0 22 2 37.5t6 24.5t11.5 13t18.5 4h91 q53 0 91 7.5t62 22.5t35.5 37t11.5 52q0 25 -11 45t-30.5 33.5t-47 19.5t-61.5 6q-56 0 -99 -12t-75.5 -27t-53.5 -26.5t-31 -11.5q-6 0 -11 2.5t-9.5 11t-7 23t-2.5 38.5q0 38 5.5 61t17.5 35.5t43 27.5t72.5 27t91 20t100.5 8q80 0 146.5 -15.5t113 -47.5t71.5 -79 t25 -108q0 -37 -12 -71.5t-33.5 -62t-52 -49t-70.5 -33.5l-1 -2q42 -5 78.5 -23.5t64.5 -46.5t44 -66t16 -82q0 -72 -30 -127t-85 -93t-132.5 -57t-174.5 -19q-50 0 -95.5 7t-84.5 18.5t-64 23.5t-36.5 21.5t-17 18.5t-8 21t-3.5 29t-1 41zM97 1193q0 70 26 96.5t98 26.5 q74 0 99 -26t25 -92q0 -68 -26 -95t-98 -27q-73 0 -98.5 26t-25.5 91zM478 1193q0 70 26 96.5t98 26.5q73 0 98.5 -26t25.5 -92q0 -68 -25.5 -95t-99.5 -27q-72 0 -97.5 26t-25.5 91z" />
<glyph unicode="&#x4e0;" horiz-adv-x="979" d="M61 174q0 47 7.5 65t23.5 18q10 0 32.5 -12t59 -25.5t87 -25t117.5 -11.5q113 0 169.5 49.5t56.5 141.5q0 49 -14 88t-45 66t-79.5 41.5t-117.5 14.5h-55q-15 0 -25 3.5t-16.5 12.5t-10 27t-3.5 46q0 18 1.5 30t5.5 21.5t10 19t16 21.5l251 295h-420q-19 0 -28.5 22.5 t-9.5 78.5q0 58 10 80.5t28 22.5h647q41 0 60.5 -22.5t19.5 -64.5v-40q0 -30 -2 -51t-8.5 -38t-17 -33t-28.5 -36l-201 -239q80 -15 141.5 -47t103 -79t63 -106t21.5 -125q0 -101 -35.5 -176.5t-100.5 -126.5t-156 -76.5t-200 -25.5q-69 0 -126 8t-99.5 20t-69 24.5 t-36.5 21.5q-17 15 -22 40.5t-5 81.5z" />
<glyph unicode="&#x4e1;" horiz-adv-x="915" d="M41 -170q0 47 8 65t23 18q10 0 33 -11.5t60 -25.5t91 -25.5t126 -11.5q55 0 98 15t73 42t46 64.5t16 83.5q0 49 -16 90.5t-48.5 71t-83.5 46.5t-119 17h-70q-15 0 -25 2.5t-16.5 11.5t-9.5 24t-3 40q0 18 1.5 30t5 21.5t10 19t16.5 20.5l255 306h-409q-19 0 -29 18 t-10 73q0 58 10 80.5t29 22.5h613q41 0 60.5 -22.5t19.5 -64.5v-31q0 -26 -5.5 -47.5t-15 -40t-22 -35.5t-26.5 -35l-202 -248q88 -15 152.5 -48t107 -80.5t63 -107t20.5 -125.5q0 -101 -33.5 -177t-96.5 -127.5t-152 -77.5t-198 -26q-63 0 -117.5 8t-96.5 20t-69 24.5 t-37 21.5q-8 7 -13 15t-8 20t-4.5 30t-1.5 46z" />
<glyph unicode="&#x4e2;" horiz-adv-x="1303" d="M138 35v1195q0 10 6 17.5t21.5 12.5t39.5 7.5t62 2.5t62.5 -2.5t39 -7.5t20.5 -12.5t6 -17.5v-669q0 -31 -1 -66.5t-3 -68.5h2q17 29 42 70t52 80l440 655q7 10 14.5 17.5t21 12.5t33 7t49.5 2q37 0 60 -2.5t36.5 -7.5t19 -12.5t5.5 -18.5v-1196q0 -10 -6.5 -17t-21 -12 t-39.5 -7.5t-62 -2.5t-62 2.5t-39 7.5t-20 12t-6 17v666q0 38 1 75t3 65h-2q-8 -14 -18.5 -32t-23 -38t-26.5 -41q-13 -20 -27 -40l-439 -656q-8 -11 -16 -18.5t-21.5 -12t-32.5 -6t-49 -1.5q-38 0 -61.5 2.5t-37 7.5t-18 12.5t-4.5 18.5zM223 1264zM323 1487q0 24 2 42 t7 28.5t13.5 15.5t20.5 5h576q11 0 18 -5t12 -15t7 -27.5t2 -43.5q0 -25 -2 -42t-7 -28t-12.5 -15.5t-17.5 -4.5h-576q-12 0 -20.5 4.5t-13.5 15.5t-7 28t-2 42z" />
<glyph unicode="&#x4e3;" horiz-adv-x="1113" d="M123 31v874q0 9 5.5 16.5t19.5 12t37 7t58 2.5q69 0 97.5 -9.5t28.5 -28.5v-386q0 -40 -3 -83t-8 -83q23 39 48 77.5t52 74.5l297 400q8 11 16.5 18.5t22 11.5t32.5 6t49 2q34 0 56.5 -2t35.5 -6.5t18 -12.5t5 -18v-874q0 -10 -5.5 -16.5t-19 -11t-36.5 -6.5t-58 -2 t-59 2t-39 6.5t-21.5 11.5t-6.5 16v389q0 41 2.5 85t7.5 86q-23 -41 -50.5 -80.5t-56.5 -78.5l-294 -400q-9 -11 -16.5 -18t-19.5 -11.5t-30.5 -6t-48.5 -1.5q-35 0 -57 2t-35 6.5t-18.5 11.5t-5.5 17zM167 938zM267 1202q0 24 2 42t7 28t13.5 15t20.5 5h498q11 0 18.5 -4.5 t12 -15t7 -27.5t2.5 -43q0 -25 -2.5 -41.5t-7 -27.5t-12.5 -15.5t-18 -4.5h-498q-12 0 -20.5 4.5t-13.5 15.5t-7 27.5t-2 41.5z" />
<glyph unicode="&#x4e4;" horiz-adv-x="1303" d="M138 35v1195q0 10 6 17.5t21.5 12.5t39.5 7.5t62 2.5t62.5 -2.5t39 -7.5t20.5 -12.5t6 -17.5v-669q0 -31 -1 -66.5t-3 -68.5h2q17 29 42 70t52 80l440 655q7 10 14.5 17.5t21 12.5t33 7t49.5 2q37 0 60 -2.5t36.5 -7.5t19 -12.5t5.5 -18.5v-1196q0 -10 -6.5 -17t-21 -12 t-39.5 -7.5t-62 -2.5t-62 2.5t-39 7.5t-20 12t-6 17v666q0 38 1 75t3 65h-2q-8 -14 -18.5 -32t-23 -38t-26.5 -41q-13 -20 -27 -40l-439 -656q-8 -11 -16 -18.5t-21.5 -12t-32.5 -6t-49 -1.5q-38 0 -61.5 2.5t-37 7.5t-18 12.5t-4.5 18.5zM220 1264zM320 1494q0 69 27 96 t102 27q76 0 101.5 -26t25.5 -93q0 -68 -26.5 -95.5t-101.5 -27.5t-101.5 26.5t-26.5 92.5zM746 1494q0 69 27 96t102 27t101.5 -26t26.5 -93q0 -68 -27 -95.5t-103 -27.5q-75 0 -101 26.5t-26 92.5z" />
<glyph unicode="&#x4e5;" horiz-adv-x="1113" d="M123 31v874q0 9 5.5 16.5t19.5 12t37 7t58 2.5q69 0 97.5 -9.5t28.5 -28.5v-386q0 -40 -3 -83t-8 -83q23 39 48 77.5t52 74.5l297 400q8 11 16.5 18.5t22 11.5t32.5 6t49 2q34 0 56.5 -2t35.5 -6.5t18 -12.5t5 -18v-874q0 -10 -5.5 -16.5t-19 -11t-36.5 -6.5t-58 -2 t-59 2t-39 6.5t-21.5 11.5t-6.5 16v389q0 41 2.5 85t7.5 86q-23 -41 -50.5 -80.5t-56.5 -78.5l-294 -400q-9 -11 -16.5 -18t-19.5 -11.5t-30.5 -6t-48.5 -1.5q-35 0 -57 2t-35 6.5t-18.5 11.5t-5.5 17zM143 938zM243 1193q0 70 26 96.5t98 26.5q74 0 99 -26t25 -92 q0 -68 -26 -95t-98 -27q-73 0 -98.5 26t-25.5 91zM624 1193q0 70 26 96.5t98 26.5q73 0 98.5 -26t25.5 -92q0 -68 -25.5 -95t-99.5 -27q-72 0 -97.5 26t-25.5 91z" />
<glyph unicode="&#x4e6;" horiz-adv-x="1352" d="M78 624q0 153 39 275.5t116.5 208.5t191 132t263.5 46q144 0 254 -38t183.5 -117t111 -200t37.5 -285q0 -157 -39 -281t-116 -210.5t-191 -131.5t-263 -45q-147 0 -257 38.5t-183.5 117.5t-110 201t-36.5 289zM237 1264zM337 1494q0 69 27 96t102 27q76 0 101.5 -26 t25.5 -93q0 -68 -26.5 -95.5t-101.5 -27.5t-101.5 26.5t-26.5 92.5zM348 637q0 -104 15.5 -186.5t52.5 -141t99.5 -89.5t157.5 -31t158.5 35.5t102.5 96t55 141t16 171.5q0 100 -15.5 181.5t-53.5 139.5t-100.5 89.5t-155.5 31.5q-95 0 -158.5 -35.5t-102.5 -95t-55 -139 t-16 -168.5zM763 1494q0 69 27 96t102 27t101.5 -26t26.5 -93q0 -68 -27 -95.5t-103 -27.5q-75 0 -101 26.5t-26 92.5z" />
<glyph unicode="&#x4e7;" horiz-adv-x="1075" d="M70 460q0 111 30 203.5t89.5 158.5t149 102t209.5 36q117 0 203 -32t142 -93.5t83.5 -151t27.5 -205.5q0 -111 -29.5 -203t-89 -158.5t-149.5 -102.5t-210 -36q-116 0 -202 32t-142.5 93.5t-84 151.5t-27.5 205zM123 938zM223 1193q0 70 26 96.5t98 26.5q74 0 99 -26 t25 -92q0 -68 -26 -95t-98 -27q-73 0 -98.5 26t-25.5 91zM323 471q0 -64 11 -118.5t35 -94.5t65 -62t101 -22q56 0 97 20t67.5 58t39 92.5t12.5 123.5q0 64 -10.5 118.5t-34.5 94.5t-64.5 62.5t-102.5 22.5q-55 0 -96 -20t-67 -59t-39.5 -93t-13.5 -123zM604 1193 q0 70 26 96.5t98 26.5q73 0 98.5 -26t25.5 -92q0 -68 -25.5 -95t-99.5 -27q-72 0 -97.5 26t-25.5 91z" />
<glyph unicode="&#x4e8;" horiz-adv-x="1352" d="M78 623q0 152 39 275t116 209t191 132.5t264 46.5q143 0 252.5 -37t183.5 -115t112 -198.5t38 -285.5q0 -157 -39 -281.5t-115.5 -211.5t-190.5 -133t-264 -46q-147 0 -257 38t-183.5 117t-110 200.5t-36.5 289.5zM351 544q2 -25 4.5 -49t7.5 -46q12 -62 35.5 -110 t60.5 -81t90.5 -51t123.5 -18t123.5 20.5t92.5 57t63.5 86.5t35.5 111q8 40 12 80h-649zM354 742h646q-2 20 -4.5 38t-6.5 36q-12 61 -35.5 109t-61.5 81.5t-90.5 51t-121.5 17.5q-70 0 -124 -20.5t-92.5 -56.5t-63.5 -86t-37 -108q-3 -16 -5.5 -31t-3.5 -31z" />
<glyph unicode="&#x4e9;" horiz-adv-x="1075" d="M70 460q0 111 30 203.5t89.5 158.5t149 102t209.5 36q117 0 203 -32t142 -93.5t83.5 -151t27.5 -205.5q0 -111 -29.5 -203.5t-89 -158.5t-149.5 -102t-210 -36q-116 0 -202 32t-142.5 93.5t-84 151.5t-27.5 205zM328 383q6 -47 20.5 -85.5t39.5 -66t61 -42.5t86 -15 q94 0 145 54.5t65 154.5h-417zM329 561h416q-7 46 -21 83.5t-39 64.5t-60.5 42t-85.5 15q-92 0 -143 -54t-67 -151z" />
<glyph unicode="&#x4ea;" horiz-adv-x="1352" d="M78 623q0 152 39 275t116 209t191 132.5t264 46.5q143 0 252.5 -37t183.5 -115t112 -198.5t38 -285.5q0 -157 -39 -281.5t-115.5 -211.5t-190.5 -133t-264 -46q-147 0 -257 38t-183.5 117t-110 200.5t-36.5 289.5zM234 1264zM334 1494q0 69 27 96t102 27q76 0 101.5 -26 t25.5 -93q0 -68 -26.5 -95.5t-101.5 -27.5t-101.5 26.5t-26.5 92.5zM351 544q2 -25 4.5 -49t7.5 -46q12 -62 35.5 -110t60.5 -81t90.5 -51t123.5 -18t123.5 20.5t92.5 57t63.5 86.5t35.5 111q8 40 12 80h-649zM354 742h646q-2 20 -4.5 38t-6.5 36q-12 61 -35.5 109 t-61.5 81.5t-90.5 51t-121.5 17.5q-70 0 -124 -20.5t-92.5 -56.5t-63.5 -86t-37 -108q-3 -16 -5.5 -31t-3.5 -31zM760 1494q0 69 27 96t102 27t101.5 -26t26.5 -93q0 -68 -27 -95.5t-103 -27.5q-75 0 -101 26.5t-26 92.5z" />
<glyph unicode="&#x4eb;" horiz-adv-x="1075" d="M70 460q0 111 30 203.5t89.5 158.5t149 102t209.5 36q117 0 203 -32t142 -93.5t83.5 -151t27.5 -205.5q0 -111 -29.5 -203.5t-89 -158.5t-149.5 -102t-210 -36q-116 0 -202 32t-142.5 93.5t-84 151.5t-27.5 205zM123 938zM223 1193q0 70 26 96.5t98 26.5q74 0 99 -26 t25 -92q0 -68 -26 -95t-98 -27q-73 0 -98.5 26t-25.5 91zM328 383q6 -47 20.5 -85.5t39.5 -66t61 -42.5t86 -15q94 0 145 54.5t65 154.5h-417zM329 561h416q-7 46 -21 83.5t-39 64.5t-60.5 42t-85.5 15q-92 0 -143 -54t-67 -151zM604 1193q0 70 26 96.5t98 26.5 q73 0 98.5 -26t25.5 -92q0 -68 -25.5 -95t-99.5 -27q-72 0 -97.5 26t-25.5 91z" />
<glyph unicode="&#x4ec;" horiz-adv-x="1077" d="M37 1264zM70 193q0 48 9 69.5t25 21.5q12 0 32.5 -15t56 -32.5t88.5 -32.5t130 -15q69 0 125 22t96.5 67t64 112.5t27.5 157.5h-525q-10 0 -16.5 5.5t-11.5 17t-7.5 30.5t-2.5 46t2.5 47t7.5 31t11.5 16.5t16.5 5.5h522q-7 80 -32.5 141t-66.5 103t-98.5 63t-127.5 21 q-63 0 -112 -14.5t-84.5 -32t-58 -33t-33.5 -15.5q-6 0 -11 4.5t-9 15t-6.5 28t-2.5 43.5q0 29 1.5 50t4.5 34t7.5 22.5t13.5 18t37.5 24.5t72 30.5t98.5 24.5t121 10q130 0 234.5 -40.5t178 -121.5t113 -201.5t39.5 -279.5q0 -169 -38.5 -293.5t-112.5 -206.5 t-180.5 -122.5t-246.5 -40.5q-48 0 -98.5 7t-94.5 19.5t-79 29t-48.5 29.5t-18 22t-7.5 23t-4.5 34t-1.5 50zM137 1494q0 69 27 96t102 27q76 0 101.5 -26t25.5 -93q0 -68 -26.5 -95.5t-101.5 -27.5t-101.5 26.5t-26.5 92.5zM563 1494q0 69 27 96t102 27t101.5 -26t26.5 -93 q0 -68 -27 -95.5t-103 -27.5q-75 0 -101 26.5t-26 92.5z" />
</font>
</defs>
</svg>
